<svg width="235" height="75" viewBox="0 0 235 75" fill="none" xmlns="http://www.w3.org/2000/svg" class="h-11 md:h-16 w-auto"><rect width="235" height="75" rx="5" fill="#DD4545"></rect><path d="M93.1325 57H96.7325L90.2525 39.984H86.4125L79.8845 57H83.3885L84.8045 53.112H91.7165L93.1325 57ZM88.2605 43.656L90.6125 50.088H85.9085L88.2605 43.656ZM101.814 61.56V55.848C102.39 56.64 103.59 57.288 105.222 57.288C108.558 57.288 110.79 54.648 110.79 51.072C110.79 47.568 108.798 44.928 105.342 44.928C103.566 44.928 102.246 45.72 101.718 46.632V45.192H98.622V61.56H101.814ZM107.646 51.096C107.646 53.208 106.35 54.432 104.718 54.432C103.086 54.432 101.766 53.184 101.766 51.096C101.766 49.008 103.086 47.784 104.718 47.784C106.35 47.784 107.646 49.008 107.646 51.096ZM116.509 61.56V55.848C117.085 56.64 118.285 57.288 119.917 57.288C123.253 57.288 125.485 54.648 125.485 51.072C125.485 47.568 123.493 44.928 120.037 44.928C118.261 44.928 116.941 45.72 116.413 46.632V45.192H113.317V61.56H116.509ZM122.341 51.096C122.341 53.208 121.045 54.432 119.413 54.432C117.781 54.432 116.461 53.184 116.461 51.096C116.461 49.008 117.781 47.784 119.413 47.784C121.045 47.784 122.341 49.008 122.341 51.096ZM145.63 44.04C145.246 42.12 143.662 39.624 139.534 39.624C136.318 39.624 133.606 41.928 133.606 44.952C133.606 47.52 135.358 49.272 138.07 49.824L140.446 50.304C141.766 50.568 142.51 51.336 142.51 52.32C142.51 53.52 141.526 54.408 139.75 54.408C137.35 54.408 136.174 52.896 136.03 51.216L132.958 52.032C133.222 54.456 135.214 57.36 139.726 57.36C143.686 57.36 145.87 54.72 145.87 52.104C145.87 49.704 144.214 47.688 141.118 47.088L138.742 46.632C137.494 46.392 136.894 45.648 136.894 44.712C136.894 43.584 137.95 42.552 139.558 42.552C141.718 42.552 142.486 44.016 142.654 44.952L145.63 44.04ZM152.48 41.664H149.6V43.32C149.6 44.376 149.024 45.192 147.776 45.192H147.176V48.024H149.312V53.52C149.312 55.8 150.752 57.168 153.056 57.168C153.992 57.168 154.568 57 154.856 56.88V54.24C154.688 54.288 154.256 54.336 153.872 54.336C152.96 54.336 152.48 54 152.48 52.968V48.024H154.856V45.192H152.48V41.664ZM162.754 54.456C161.194 54.456 159.754 53.304 159.754 51.096C159.754 48.864 161.194 47.736 162.754 47.736C164.314 47.736 165.754 48.864 165.754 51.096C165.754 53.328 164.314 54.456 162.754 54.456ZM162.754 44.832C159.226 44.832 156.562 47.448 156.562 51.096C156.562 54.72 159.226 57.36 162.754 57.36C166.282 57.36 168.946 54.72 168.946 51.096C168.946 47.448 166.282 44.832 162.754 44.832ZM178.666 45.144C178.426 45.12 178.186 45.096 177.922 45.096C176.914 45.096 175.282 45.384 174.562 46.944V45.192H171.466V57H174.658V51.6C174.658 49.056 176.074 48.264 177.706 48.264C177.994 48.264 178.306 48.288 178.666 48.36V45.144ZM183.122 49.752C183.194 48.672 184.106 47.424 185.762 47.424C187.586 47.424 188.354 48.576 188.402 49.752H183.122ZM188.714 52.824C188.33 53.88 187.514 54.624 186.026 54.624C184.442 54.624 183.122 53.496 183.05 51.936H191.498C191.498 51.888 191.546 51.408 191.546 50.952C191.546 47.16 189.362 44.832 185.714 44.832C182.69 44.832 179.906 47.28 179.906 51.048C179.906 55.032 182.762 57.36 186.002 57.36C188.906 57.36 190.778 55.656 191.378 53.616L188.714 52.824Z" fill="#EEEEEE"></path><path d="M82.6525 25.608H84.9725C86.0819 25.608 86.9992 25.24 87.7245 24.504C88.4605 23.768 88.8285 22.7173 88.8285 21.352C88.8285 19.976 88.4659 18.9147 87.7405 18.168C87.0259 17.4213 86.1139 17.048 85.0045 17.048H82.6525V25.608ZM85.0205 27H81.0845V15.656H85.0525C86.5779 15.656 87.8579 16.1627 88.8925 17.176C89.9272 18.1787 90.4445 19.5707 90.4445 21.352C90.4445 23.1227 89.9219 24.5093 88.8765 25.512C87.8312 26.504 86.5459 27 85.0205 27ZM94.0242 25.176C94.4935 25.656 95.0642 25.896 95.7362 25.896C96.4082 25.896 96.9735 25.656 97.4322 25.176C97.9015 24.6853 98.1362 24.008 98.1362 23.144C98.1362 22.2907 97.9015 21.624 97.4322 21.144C96.9735 20.6533 96.4082 20.408 95.7362 20.408C95.0642 20.408 94.4935 20.6533 94.0242 21.144C93.5655 21.624 93.3362 22.2907 93.3362 23.144C93.3362 24.008 93.5655 24.6853 94.0242 25.176ZM92.9042 20.232C93.6508 19.4533 94.5948 19.064 95.7362 19.064C96.8775 19.064 97.8162 19.4533 98.5522 20.232C99.2988 21 99.6722 21.9707 99.6722 23.144C99.6722 24.328 99.3042 25.3093 98.5682 26.088C97.8322 26.856 96.8882 27.24 95.7362 27.24C94.5842 27.24 93.6402 26.856 92.9042 26.088C92.1682 25.3093 91.8002 24.328 91.8002 23.144C91.8002 21.9707 92.1682 21 92.9042 20.232ZM105.776 19.304H107.328L109.328 25.096L111.024 19.304H112.608L110.112 27H108.56L106.512 21.144L104.512 27H102.928L100.4 19.304H102.048L103.776 25.096L105.776 19.304ZM115.632 22.552V27H114.128V19.304H115.6V20.408C116.112 19.5227 116.901 19.08 117.968 19.08C118.853 19.08 119.53 19.3627 120 19.928C120.48 20.4933 120.72 21.224 120.72 22.12V27H119.216V22.376C119.216 21.0853 118.618 20.44 117.424 20.44C116.858 20.44 116.416 20.6427 116.096 21.048C115.786 21.4427 115.632 21.944 115.632 22.552ZM124.616 27H123.112V15.416H124.616V27ZM128.759 25.176C129.228 25.656 129.799 25.896 130.471 25.896C131.143 25.896 131.708 25.656 132.167 25.176C132.636 24.6853 132.871 24.008 132.871 23.144C132.871 22.2907 132.636 21.624 132.167 21.144C131.708 20.6533 131.143 20.408 130.471 20.408C129.799 20.408 129.228 20.6533 128.759 21.144C128.3 21.624 128.071 22.2907 128.071 23.144C128.071 24.008 128.3 24.6853 128.759 25.176ZM127.639 20.232C128.385 19.4533 129.329 19.064 130.471 19.064C131.612 19.064 132.551 19.4533 133.287 20.232C134.033 21 134.407 21.9707 134.407 23.144C134.407 24.328 134.039 25.3093 133.303 26.088C132.567 26.856 131.623 27.24 130.471 27.24C129.319 27.24 128.375 26.856 127.639 26.088C126.903 25.3093 126.535 24.328 126.535 23.144C126.535 21.9707 126.903 21 127.639 20.232ZM135.851 24.936C135.851 24.2747 136.064 23.7467 136.491 23.352C136.917 22.9467 137.483 22.696 138.187 22.6L140.267 22.296C140.661 22.2427 140.859 22.0507 140.859 21.72C140.859 21.3147 140.72 20.984 140.443 20.728C140.165 20.472 139.749 20.344 139.195 20.344C138.683 20.344 138.277 20.488 137.979 20.776C137.68 21.0533 137.504 21.4267 137.451 21.896L136.011 21.56C136.085 20.824 136.421 20.2267 137.019 19.768C137.616 19.2987 138.331 19.064 139.163 19.064C140.251 19.064 141.056 19.3307 141.579 19.864C142.101 20.3867 142.363 21.0587 142.363 21.88V25.736C142.363 26.1947 142.395 26.616 142.459 27H140.987C140.933 26.68 140.907 26.3333 140.907 25.96C140.693 26.3013 140.379 26.6 139.963 26.856C139.557 27.112 139.045 27.24 138.427 27.24C137.669 27.24 137.051 27.016 136.571 26.568C136.091 26.1093 135.851 25.5653 135.851 24.936ZM138.635 25.976C139.307 25.976 139.845 25.7947 140.251 25.432C140.656 25.0693 140.859 24.4933 140.859 23.704V23.352L138.507 23.704C138.165 23.7573 137.893 23.88 137.691 24.072C137.488 24.264 137.387 24.5253 137.387 24.856C137.387 25.1547 137.499 25.416 137.723 25.64C137.957 25.864 138.261 25.976 138.635 25.976ZM145.602 23.128C145.602 23.9387 145.799 24.6 146.194 25.112C146.599 25.624 147.154 25.88 147.858 25.88C148.53 25.88 149.068 25.6187 149.474 25.096C149.879 24.5733 150.082 23.9067 150.082 23.096C150.082 22.296 149.884 21.6507 149.49 21.16C149.095 20.6693 148.556 20.424 147.874 20.424C147.191 20.424 146.642 20.6747 146.226 21.176C145.81 21.6773 145.602 22.328 145.602 23.128ZM150.098 25.96V25.832C149.895 26.2267 149.586 26.5573 149.17 26.824C148.764 27.08 148.279 27.208 147.714 27.208C146.615 27.208 145.73 26.824 145.058 26.056C144.396 25.2773 144.066 24.3013 144.066 23.128C144.066 22.008 144.407 21.0587 145.09 20.28C145.772 19.4907 146.647 19.096 147.714 19.096C148.343 19.096 148.855 19.224 149.25 19.48C149.644 19.7253 149.916 20.0293 150.066 20.392V15.416H151.554V25.576C151.554 26.0987 151.58 26.5733 151.634 27H150.178C150.124 26.7013 150.098 26.3547 150.098 25.96ZM159.696 25.176C160.165 25.656 160.736 25.896 161.408 25.896C162.08 25.896 162.645 25.656 163.104 25.176C163.573 24.6853 163.808 24.008 163.808 23.144C163.808 22.2907 163.573 21.624 163.104 21.144C162.645 20.6533 162.08 20.408 161.408 20.408C160.736 20.408 160.165 20.6533 159.696 21.144C159.237 21.624 159.008 22.2907 159.008 23.144C159.008 24.008 159.237 24.6853 159.696 25.176ZM158.576 20.232C159.323 19.4533 160.267 19.064 161.408 19.064C162.549 19.064 163.488 19.4533 164.224 20.232C164.971 21 165.344 21.9707 165.344 23.144C165.344 24.328 164.976 25.3093 164.24 26.088C163.504 26.856 162.56 27.24 161.408 27.24C160.256 27.24 159.312 26.856 158.576 26.088C157.84 25.3093 157.472 24.328 157.472 23.144C157.472 21.9707 157.84 21 158.576 20.232ZM168.772 22.552V27H167.268V19.304H168.74V20.408C169.252 19.5227 170.042 19.08 171.108 19.08C171.994 19.08 172.671 19.3627 173.14 19.928C173.62 20.4933 173.86 21.224 173.86 22.12V27H172.356V22.376C172.356 21.0853 171.759 20.44 170.564 20.44C169.999 20.44 169.556 20.6427 169.236 21.048C168.927 21.4427 168.772 21.944 168.772 22.552ZM182.269 16.872V19.304H183.933V20.664H182.269V24.664C182.269 25.0267 182.349 25.2933 182.509 25.464C182.679 25.6347 182.957 25.72 183.341 25.72C183.565 25.72 183.762 25.6987 183.933 25.656V26.936C183.677 27.032 183.335 27.08 182.909 27.08C182.247 27.08 181.725 26.888 181.341 26.504C180.957 26.12 180.765 25.5813 180.765 24.888V20.664H179.293V19.304H179.709C180.103 19.304 180.397 19.1973 180.589 18.984C180.791 18.76 180.893 18.472 180.893 18.12V16.872H182.269ZM187.444 22.472V27H185.94V15.416H187.444V20.2C187.956 19.4533 188.735 19.08 189.78 19.08C190.665 19.08 191.343 19.3627 191.812 19.928C192.292 20.4933 192.532 21.224 192.532 22.12V27H191.028V22.376C191.028 21.0853 190.431 20.44 189.236 20.44C188.681 20.44 188.249 20.632 187.94 21.016C187.631 21.3893 187.465 21.8747 187.444 22.472ZM195.901 22.36H200.109C200.087 21.784 199.895 21.3147 199.533 20.952C199.17 20.5787 198.658 20.392 197.997 20.392C197.399 20.392 196.909 20.5893 196.525 20.984C196.141 21.368 195.933 21.8267 195.901 22.36ZM200.333 24.36L201.629 24.808C201.405 25.5227 200.989 26.1093 200.381 26.568C199.773 27.016 199.037 27.24 198.173 27.24C197.095 27.24 196.178 26.872 195.421 26.136C194.674 25.3893 194.301 24.3867 194.301 23.128C194.301 21.9547 194.663 20.984 195.389 20.216C196.114 19.448 196.978 19.064 197.981 19.064C199.143 19.064 200.05 19.432 200.701 20.168C201.351 20.8933 201.677 21.8693 201.677 23.096C201.677 23.288 201.666 23.448 201.645 23.576H195.853C195.863 24.2587 196.087 24.8187 196.525 25.256C196.973 25.6933 197.522 25.912 198.173 25.912C199.271 25.912 199.991 25.3947 200.333 24.36Z" fill="#E9F7FE"></path><path fill-rule="evenodd" clip-rule="evenodd" d="M54.0797 45.3064C53.3269 47.0055 52.9675 47.7639 51.9979 49.2651C50.6473 51.3614 48.7416 53.9725 46.3801 53.9946C44.2824 54.0146 43.7433 52.6034 40.8956 52.6204C38.0479 52.6374 37.4544 54.0197 35.3567 53.9998C32.9952 53.9784 31.191 51.6206 29.8389 49.5228C26.0594 43.6598 25.6644 36.7799 27.9955 33.1226C29.6519 30.5219 32.2663 29.0022 34.7234 29.0022C37.2255 29.0022 38.7986 30.4 40.868 30.4C42.8752 30.4 44.0976 29 46.9909 29C49.1778 29 51.4951 30.2132 53.1464 32.3096C47.7358 35.3304 48.6155 43.2012 54.0797 45.3064Z" fill="#EEEEEE"></path><path fill-rule="evenodd" clip-rule="evenodd" d="M45.5172 25.397C46.6081 23.9966 47.4352 22.0209 47.1344 20C45.3525 20.1218 43.2699 21.256 42.0534 22.7338C40.9489 24.0748 40.0369 26.0641 40.3918 27.9977C42.3353 28.0586 44.3481 26.8967 45.5172 25.397Z" fill="#EEEEEE"></path></svg>