<svg width="700" height="342" viewBox="0 0 700 342" fill="none" xmlns="http://www.w3.org/2000/svg">
  <path opacity="0.1" fill-rule="evenodd" clip-rule="evenodd"
    d="M-59.5198 51.772L-151.444 143.696C-158.473 150.725 -158.473 162.122 -151.444 169.152L-59.5198 261.076C-52.4903 268.105 -41.0934 268.105 -34.0639 261.076L57.86 169.152C64.8894 162.122 64.8894 150.725 57.86 143.696L-34.0639 51.772C-41.0934 44.7426 -52.4903 44.7426 -59.5198 51.772ZM-152.858 142.282C-160.668 150.092 -160.668 162.755 -152.858 170.566L-60.934 262.49C-53.1235 270.3 -40.4602 270.3 -32.6497 262.49L59.2742 170.566C67.0847 162.755 67.0847 150.092 59.2742 142.282L-32.6497 50.3578C-40.4602 42.5473 -53.1235 42.5473 -60.934 50.3578L-152.858 142.282ZM70.5879 181.88L-21.336 273.804C-28.3654 280.833 -28.3654 292.23 -21.336 299.259L70.5879 391.183C77.6173 398.213 89.0143 398.213 96.0437 391.183L187.968 299.259C194.997 292.23 194.997 280.833 187.968 273.804L96.0437 181.88C89.0143 174.85 77.6173 174.85 70.5879 181.88ZM-22.7502 272.389C-30.5607 280.2 -30.5607 292.863 -22.7502 300.674L69.1737 392.597C76.9842 400.408 89.6474 400.408 97.4579 392.597L189.382 300.674C197.192 292.863 197.192 280.2 189.382 272.389L97.4579 180.465C89.6474 172.655 76.9842 172.655 69.1737 180.465L-22.7502 272.389ZM108.772 403.911L200.696 311.987C207.725 304.958 219.122 304.958 226.151 311.987L318.075 403.911C325.105 410.941 325.105 422.338 318.075 429.367L226.151 521.291C219.122 528.32 207.725 528.32 200.696 521.291L108.772 429.367C101.742 422.338 101.742 410.941 108.772 403.911ZM107.357 430.781C99.5469 422.971 99.5469 410.307 107.357 402.497L199.281 310.573C207.092 302.763 219.755 302.763 227.566 310.573L319.489 402.497C327.3 410.307 327.3 422.971 319.489 430.781L227.566 522.705C219.755 530.516 207.092 530.516 199.281 522.705L107.357 430.781ZM70.5879 -78.3356L-21.336 13.5883C-28.3654 20.6177 -28.3654 32.0147 -21.336 39.0441L70.5879 130.968C77.6173 137.997 89.0143 137.997 96.0437 130.968L187.968 39.0441C194.997 32.0147 194.997 20.6177 187.968 13.5883L96.0437 -78.3356C89.0143 -85.3651 77.6173 -85.3651 70.5879 -78.3356ZM-22.7502 12.174C-30.5607 19.9845 -30.5607 32.6478 -22.7502 40.4583L69.1737 132.382C76.9842 140.193 89.6474 140.193 97.4579 132.382L189.382 40.4583C197.192 32.6478 197.192 19.9845 189.382 12.174L97.4579 -79.7498C89.6474 -87.5603 76.9842 -87.5603 69.1737 -79.7498L-22.7502 12.174ZM108.772 143.696L200.696 51.772C207.725 44.7426 219.122 44.7426 226.151 51.772L318.075 143.696C325.105 150.725 325.105 162.122 318.075 169.152L226.151 261.076C219.122 268.105 207.725 268.105 200.696 261.076L108.772 169.152C101.742 162.122 101.742 150.725 108.772 143.696ZM107.357 170.566C99.5469 162.755 99.5469 150.092 107.357 142.282L199.281 50.3578C207.092 42.5473 219.755 42.5473 227.566 50.3578L319.489 142.282C327.3 150.092 327.3 162.755 319.489 170.566L227.566 262.49C219.755 270.3 207.092 270.3 199.281 262.49L107.357 170.566ZM330.803 181.88L238.879 273.804C231.85 280.833 231.85 292.23 238.879 299.259L330.803 391.183C337.833 398.213 349.23 398.213 356.259 391.183L448.183 299.259C455.212 292.23 455.212 280.833 448.183 273.804L356.259 181.88C349.23 174.85 337.833 174.85 330.803 181.88ZM237.465 272.389C229.655 280.2 229.655 292.863 237.465 300.674L329.389 392.597C337.199 400.408 349.863 400.408 357.673 392.597L449.597 300.674C457.408 292.863 457.408 280.2 449.597 272.389L357.673 180.465C349.863 172.655 337.199 172.655 329.389 180.465L237.465 272.389ZM108.772 -116.519L200.696 -208.443C207.725 -215.473 219.122 -215.473 226.151 -208.443L318.075 -116.519C325.105 -109.49 325.105 -98.093 318.075 -91.0635L226.151 0.860339C219.122 7.88978 207.725 7.88978 200.696 0.860339L108.772 -91.0635C101.742 -98.093 101.742 -109.49 108.772 -116.519ZM107.357 -89.6493C99.5469 -97.4598 99.5469 -110.123 107.357 -117.934L199.281 -209.857C207.092 -217.668 219.755 -217.668 227.566 -209.857L319.489 -117.934C327.3 -110.123 327.3 -97.4598 319.489 -89.6493L227.566 2.27455C219.755 10.085 207.092 10.085 199.281 2.27455L107.357 -89.6493ZM330.803 -78.3356L238.879 13.5883C231.85 20.6177 231.85 32.0147 238.879 39.0441L330.803 130.968C337.833 137.997 349.23 137.997 356.259 130.968L448.183 39.0441C455.212 32.0146 455.212 20.6177 448.183 13.5883L356.259 -78.3356C349.23 -85.3651 337.833 -85.3651 330.803 -78.3356ZM237.465 12.174C229.655 19.9845 229.655 32.6478 237.465 40.4583L329.389 132.382C337.199 140.193 349.863 140.193 357.673 132.382L449.597 40.4583C457.408 32.6478 457.408 19.9845 449.597 12.174L357.673 -79.7498C349.863 -87.5603 337.199 -87.5603 329.389 -79.7498L237.465 12.174ZM368.987 143.696L460.911 51.772C467.94 44.7426 479.337 44.7426 486.367 51.772L578.291 143.696C585.32 150.725 585.32 162.122 578.291 169.152L486.367 261.076C479.337 268.105 467.94 268.105 460.911 261.076L368.987 169.152C361.957 162.122 361.957 150.725 368.987 143.696ZM367.573 170.566C359.762 162.755 359.762 150.092 367.573 142.282L459.497 50.3578C467.307 42.5473 479.97 42.5473 487.781 50.3578L579.705 142.282C587.515 150.092 587.515 162.755 579.705 170.566L487.781 262.49C479.97 270.3 467.307 270.3 459.497 262.49L367.573 170.566Z"
    fill="white" />
  <circle cx="579" cy="8" r="34" fill="#40FFF4" />
  <circle cx="624" cy="131" r="11" fill="#66B6FF" />
  <circle cx="498.5" cy="192.5" r="2.5" fill="#AB41FF" />
  <circle cx="633.5" cy="82.5" r="2.5" fill="#FFD541" />
  <circle cx="588.5" cy="339.5" r="2.5" fill="#418DFF" />
  <circle cx="588" cy="265" r="25" fill="#FFB340" />
  <circle cx="696" cy="322" r="11" fill="#FF4040" />
  <rect x="494.51" y="129.51" width="30" height="30" rx="6" transform="rotate(30 494.51 129.51)" fill="#4B6FF0" />
  <rect opacity="0.5" x="585" y="282.213" width="30" height="30" rx="6" transform="rotate(-45 585 282.213)"
    fill="#BDFF00" />
</svg>