<svg width="1440" height="277" viewBox="0 0 1440 277" fill="none" xmlns="http://www.w3.org/2000/svg">
<g style="mix-blend-mode:overlay" opacity="0.1">
<path d="M-16.8728 62.1208C36.2255 -8.93461 265.099 -95.78 514.112 -66.8314C744.988 -39.9916 607.493 6.85566 792.422 48.4363C977.352 90.0168 1227.63 25.9155 1394.82 78.9636C1491.86 109.754 1493.23 162.256 1376.96 204.955C1260.7 247.654 1026.79 280.55 653.267 272.129C300.433 264.174 125.186 221.991 42.0032 176.638C-41.18 131.285 -32.2965 82.7604 -16.8728 62.1208Z" stroke="url(#paint0_linear)" stroke-width="6" stroke-miterlimit="10"/>
<path d="M643.507 265.683C319.851 258.523 157.92 220.029 80.5223 178.394C3.87008 136.998 10.9111 92.6055 24.5989 73.2511C71.9196 7.41896 282.11 -73.1499 513.297 -48.2729C726.763 -25.3032 608.23 16.9845 779.412 54.8998C784.298 55.9745 789.229 56.9745 794.203 57.9047C928.881 83.1163 1095.09 56.4352 1231.98 67.4531C1269.14 70.4442 1304.23 76.1622 1335.75 86.4094C1426.43 115.885 1426.35 164.525 1317.99 203.811C1208.94 243.255 990.089 273.262 643.507 265.683Z" stroke="url(#paint1_linear)" stroke-width="6" stroke-miterlimit="10"/>
<path d="M633.748 259.237C339.27 252.873 190.653 218.067 119.04 180.149C48.919 142.712 53.9106 102.439 66.0718 84.3817C106.913 23.7329 299.07 -50.5161 512.483 -29.7144C708.493 -10.6091 608.556 27.2711 766.404 61.3633C770.953 62.3459 775.565 63.2538 780.202 64.1052C905.338 87.1361 1057.74 64.5784 1182.17 75.791C1216.14 78.8527 1248.19 84.3316 1276.69 93.8555C1360.98 122.025 1359.47 166.795 1259.02 202.667C1157.18 238.856 953.391 265.973 633.748 259.237Z" stroke="url(#paint2_linear)" stroke-width="6" stroke-miterlimit="10"/>
<path d="M623.987 252.79C358.687 247.222 223.053 216.157 157.558 181.904C93.6427 148.476 97.0269 112.281 107.543 95.5121C142.313 40.0737 315.963 -27.8756 511.668 -11.1558C690.162 4.09339 609.126 37.4697 753.395 67.8265C757.614 68.7143 761.9 69.5331 766.199 70.3055C881.796 91.1557 1020.4 72.7317 1132.35 84.1286C1163.15 87.2633 1192.14 92.5065 1217.63 101.301C1295.51 128.176 1292.59 169.064 1200.04 201.522C1105.42 234.456 916.692 258.685 623.987 252.79Z" stroke="url(#paint3_linear)" stroke-width="6" stroke-miterlimit="10"/>
<path d="M614.227 246.344C378.072 241.712 255.691 214.211 196.076 183.658C138.604 154.204 140.154 122.123 149.015 106.641C177.764 56.4191 332.77 -5.22409 510.852 7.40187C671.756 18.8099 609.731 47.6579 740.385 74.2892C744.276 75.0821 748.235 75.8115 752.197 76.5052C858.253 95.1743 983.074 80.8983 1082.54 92.4653C1110.15 95.6767 1136.07 100.687 1158.57 108.746C1230.01 134.341 1225.97 171.395 1141.07 200.377C1053.93 230.121 879.957 251.555 614.227 246.344Z" stroke="url(#paint4_linear)" stroke-width="6" stroke-miterlimit="10"/>
<path d="M604.466 239.897C397.487 236.083 288.343 212.263 234.594 185.413C183.581 159.93 183.297 131.968 190.488 117.772C213.283 72.771 349.47 17.4494 510.038 25.9601C653.255 33.5511 610.381 57.8346 727.377 80.7524C730.94 81.4502 734.571 82.0905 738.195 82.7055C834.712 99.1939 945.751 89.0839 1032.73 100.803C1057.17 104.096 1079.97 108.876 1099.5 116.192C1164.47 140.526 1159.13 173.675 1082.09 199.232C1002.21 225.734 843.255 244.297 604.466 239.897Z" stroke="url(#paint5_linear)" stroke-width="6" stroke-miterlimit="10"/>
<path d="M594.707 233.451C416.906 230.446 321.016 210.314 273.113 187.168C228.585 165.654 226.464 141.814 231.961 128.902C248.889 89.1305 366.037 40.1631 509.224 44.5191C634.64 48.3344 611.089 67.9942 714.368 87.2165C717.605 87.8187 720.906 88.3702 724.193 88.9066C811.169 103.214 908.42 97.2959 982.915 109.141C1004.18 112.522 1023.84 117.074 1040.44 123.638C1098.85 146.734 1092.27 175.952 1023.12 198.088C950.473 221.343 806.556 237.031 594.707 233.451Z" stroke="url(#paint6_linear)" stroke-width="6" stroke-miterlimit="10"/>
<path d="M584.947 227.004C436.328 224.796 353.724 208.361 311.631 188.923C273.624 171.372 269.666 151.663 273.432 140.032C284.618 105.497 382.673 60.9952 508.41 63.077C615.727 64.8539 611.872 78.1262 701.36 93.6794C704.272 94.1854 707.241 94.6488 710.193 95.1068C787.629 107.233 871.057 105.541 933.103 117.479C951.179 120.956 967.672 125.282 981.381 131.084C1033.1 152.973 1025.39 178.223 964.146 196.943C898.71 216.947 769.861 229.752 584.947 227.004Z" stroke="url(#paint7_linear)" stroke-width="6" stroke-miterlimit="10"/>
<path d="M575.186 220.558C455.755 219.126 386.489 206.4 350.149 190.678C318.722 177.082 312.921 161.515 314.904 151.162C320.516 121.87 398.814 85.8642 507.594 81.6356C597.101 78.1562 612.754 88.2181 688.35 100.143C690.941 100.552 693.577 100.928 696.19 101.307C764.085 111.253 833.608 113.828 883.29 125.816C898.156 129.403 911.441 133.502 922.318 138.53C967.153 159.254 958.464 180.485 905.172 195.799C846.912 212.542 733.172 222.453 575.186 220.558Z" stroke="url(#paint8_linear)" stroke-width="6" stroke-miterlimit="10"/>
<path d="M565.427 214.112C475.187 213.424 419.367 204.418 388.667 192.433C363.922 182.774 356.269 171.366 356.377 162.293C356.661 138.244 415.363 108.993 506.78 100.194C578.459 93.2948 613.759 98.2421 675.342 106.606C677.616 106.915 679.912 107.207 682.189 107.508C740.543 115.273 795.979 122.159 833.478 134.154C845.077 137.864 855.133 141.734 863.257 145.976C900.83 165.593 891.49 182.731 846.199 194.655C795.054 208.119 696.488 215.111 565.427 214.112Z" stroke="url(#paint9_linear)" stroke-width="6" stroke-miterlimit="10"/>
<path d="M505.965 118.753C562.767 108.178 619.372 108.124 668.186 113.708C717.001 119.292 758.025 130.514 783.664 142.492C836.272 167.067 831.342 183.361 787.225 193.51C743.108 203.66 659.805 207.666 555.667 207.666C451.529 207.666 402.529 192.247 397.85 173.423C393.169 154.599 432.813 132.371 505.965 118.753Z" stroke="url(#paint10_linear)" stroke-width="6" stroke-miterlimit="10"/>
</g>
<defs>
<linearGradient id="paint0_linear" x1="719.5" y1="-72.5483" x2="719.5" y2="273.452" gradientUnits="userSpaceOnUse">
<stop stop-color="#C2C2C2"/>
<stop offset="1" stop-color="#6F6F6F"/>
</linearGradient>
<linearGradient id="paint1_linear" x1="708.814" y1="-52.895" x2="708.814" y2="266.86" gradientUnits="userSpaceOnUse">
<stop stop-color="#C2C2C2"/>
<stop offset="1" stop-color="#6F6F6F"/>
</linearGradient>
<linearGradient id="paint2_linear" x1="698.068" y1="-33.2864" x2="698.068" y2="260.268" gradientUnits="userSpaceOnUse">
<stop stop-color="#C2C2C2"/>
<stop offset="1" stop-color="#6F6F6F"/>
</linearGradient>
<linearGradient id="paint3_linear" x1="687.294" y1="-13.7346" x2="687.294" y2="253.677" gradientUnits="userSpaceOnUse">
<stop stop-color="#C2C2C2"/>
<stop offset="1" stop-color="#6F6F6F"/>
</linearGradient>
<linearGradient id="paint4_linear" x1="676.569" y1="5.73511" x2="676.569" y2="247.126" gradientUnits="userSpaceOnUse">
<stop stop-color="#C2C2C2"/>
<stop offset="1" stop-color="#6F6F6F"/>
</linearGradient>
<linearGradient id="paint5_linear" x1="665.77" y1="25.0857" x2="665.77" y2="240.543" gradientUnits="userSpaceOnUse">
<stop stop-color="#C2C2C2"/>
<stop offset="1" stop-color="#6F6F6F"/>
</linearGradient>
<linearGradient id="paint6_linear" x1="654.917" y1="44.2478" x2="654.917" y2="233.96" gradientUnits="userSpaceOnUse">
<stop stop-color="#C2C2C2"/>
<stop offset="1" stop-color="#6F6F6F"/>
</linearGradient>
<linearGradient id="paint7_linear" x1="643.971" y1="63.0066" x2="643.971" y2="227.375" gradientUnits="userSpaceOnUse">
<stop stop-color="#C2C2C2"/>
<stop offset="1" stop-color="#6F6F6F"/>
</linearGradient>
<linearGradient id="paint8_linear" x1="632.867" y1="80.938" x2="632.867" y2="220.789" gradientUnits="userSpaceOnUse">
<stop stop-color="#C2C2C2"/>
<stop offset="1" stop-color="#6F6F6F"/>
</linearGradient>
<linearGradient id="paint9_linear" x1="621.48" y1="96.9312" x2="621.48" y2="214.206" gradientUnits="userSpaceOnUse">
<stop stop-color="#C2C2C2"/>
<stop offset="1" stop-color="#6F6F6F"/>
</linearGradient>
<linearGradient id="paint10_linear" x1="609.598" y1="110.018" x2="609.598" y2="207.666" gradientUnits="userSpaceOnUse">
<stop stop-color="#C2C2C2"/>
<stop offset="1" stop-color="#6F6F6F"/>
</linearGradient>
</defs>
</svg>
