<svg width="201" height="251" viewBox="0 0 201 251" fill="none" xmlns="http://www.w3.org/2000/svg">
  <circle opacity="0.2" cx="100" cy="161" r="80" fill="#FFCC00" />
  <g opacity="0.1" filter="url(#filter0_d)">
    <path
      d="M98.9208 164.107C99.496 163.807 100.181 163.805 100.758 164.101L165.846 197.476C167.296 198.219 167.296 200.292 165.846 201.035L100.758 234.41C100.181 234.706 99.496 234.704 98.9208 234.404L34.9266 201.029C33.493 200.281 33.493 198.23 34.9266 197.482L98.9208 164.107Z"
      fill="black" fill-opacity="0.01" />
  </g>
  <path
    d="M30.0444 86.2599C30.0444 82.6945 31.9428 79.3988 35.0269 77.6098L95.4039 42.5881C98.5068 40.7883 102.336 40.7883 105.439 42.5881L165.816 77.6098C168.9 79.3988 170.798 82.6945 170.798 86.2599V156.384C170.798 159.95 168.9 163.245 165.816 165.034L105.439 200.056C102.336 201.856 98.5068 201.856 95.4039 200.056L35.0269 165.034C31.9428 163.245 30.0444 159.95 30.0444 156.384V86.2599Z"
    fill="#FDDD48" />
  <path
    d="M100.422 120.58C100.422 116.735 102.627 113.23 106.094 111.566L166.023 82.7912C168.236 81.7288 170.799 83.3415 170.799 85.7962V156.382C170.799 159.948 168.901 163.243 165.816 165.032L105.428 200.061C103.206 201.35 100.422 199.746 100.422 197.177L100.422 162.142L100.422 120.58Z"
    fill="#FFCC00" />
  <path
    d="M30.0444 85.8063C30.0444 83.3497 32.6114 81.737 34.8245 82.8032L94.7617 111.679C98.2218 113.346 100.421 116.847 100.421 120.688V187.148C100.421 187.148 100.482 192.51 101.729 194.316C102.797 195.862 104.515 196.932 106.069 197.266C108.314 197.748 110.618 197.01 110.618 197.01L105.448 200.03C102.341 201.845 98.4984 201.851 95.3859 200.046L35.0269 165.035C31.9428 163.246 30.0444 159.95 30.0444 156.385V85.8063Z"
    fill="#E6B800" />
  <rect width="56.9867" height="56.9867" transform="matrix(0.866871 0.498532 -0.866871 0.498532 100.147 53.209)"
    fill="#FBE072" />
  <path opacity="0.5" d="M109.145 130.716L101.712 113.008L100.539 131.648L109.145 130.716Z" fill="#C79F00" />
  <path
    d="M107.315 127.619L100.82 110.827C100.098 108.962 100.865 106.85 102.616 105.883L158.041 75.257C159.259 74.584 160.739 74.5923 161.949 75.2788L181.084 86.1329C183.821 87.6859 183.776 91.6464 181.003 93.1359L112.939 129.699C110.82 130.837 108.183 129.862 107.315 127.619Z"
    fill="#D2A900" />
  <path
    d="M37.0818 75.2427L16.4024 90.0287C13.9864 91.7562 14.2292 95.4212 16.852 96.8148L87.737 134.481C89.7908 135.572 92.3391 134.688 93.2754 132.559L102.188 112.295C103.025 110.393 102.265 108.166 100.439 107.172L41.3211 74.9835C39.975 74.2506 38.3285 74.3512 37.0818 75.2427Z"
    fill="#D2A900" />
  <path
    d="M93.038 38.7023L81.6835 37.5838C80.966 37.5131 80.2422 37.6357 79.5882 37.9388L27.2235 62.208C24.0018 63.7012 24.1713 68.3058 27.4939 69.5499L39.1813 73.9261C40.2613 74.3305 41.4652 74.253 42.4853 73.7133L94.5171 46.1865C98.0233 44.3316 96.9877 39.0914 93.038 38.7023Z"
    fill="#D2A900" />
  <path
    d="M160.561 75.9546L168.767 74.974C172.552 74.5217 173.641 69.5494 170.384 67.5857L118.106 36.0665C117.134 35.4801 115.955 35.3351 114.866 35.6678L107.489 37.921C104.155 38.9395 103.611 43.4228 106.608 45.1849L158.056 75.4315C158.81 75.8749 159.69 76.0586 160.561 75.9546Z"
    fill="#D2A900" />
  <path d="M100.539 132.812V116.113L101.712 113.395C101.321 119.737 100.539 132.501 100.539 132.812Z" fill="#E3B500" />
  <defs>
    <filter id="filter0_d" x="17.8516" y="147.881" width="165.082" height="102.75" filterUnits="userSpaceOnUse"
      color-interpolation-filters="sRGB">
      <feFlood flood-opacity="0" result="BackgroundImageFix" />
      <feColorMatrix in="SourceAlpha" type="matrix" values="0 0 0 0 0 0 0 0 0 0 0 0 0 0 0 0 0 0 127 0" />
      <feOffset />
      <feGaussianBlur stdDeviation="8" />
      <feColorMatrix type="matrix" values="0 0 0 0 1 0 0 0 0 0.8 0 0 0 0 0 0 0 0 0.4 0" />
      <feBlend mode="normal" in2="BackgroundImageFix" result="effect1_dropShadow" />
      <feBlend mode="normal" in="SourceGraphic" in2="effect1_dropShadow" result="shape" />
    </filter>
  </defs>
</svg>