<svg width="27" height="32" viewBox="0 0 27 32" fill="none" xmlns="http://www.w3.org/2000/svg"><path d="M25.3333 31.9993H13.3333C12.9797 31.9993 12.6406 31.8589 12.3905 31.6088C12.1405 31.3588 12 31.0196 12 30.666V27.9993C12 27.6457 12.1405 27.3066 12.3905 27.0565C12.6406 26.8065 12.9797 26.666 13.3333 26.666H25.3333C25.687 26.666 26.0261 26.8065 26.2761 27.0565C26.5262 27.3066 26.6667 27.6457 26.6667 27.9993V30.666C26.6667 31.0196 26.5262 31.3588 26.2761 31.6088C26.0261 31.8589 25.687 31.9993 25.3333 31.9993Z" fill="#D5343A"></path><path d="M25.3333 0H1.33333C0.979711 0 0.640572 0.140475 0.390523 0.390523C0.140475 0.640572 0 0.979711 0 1.33333V4C0 4.35362 0.140475 4.69276 0.390523 4.94281C0.640572 5.19286 0.979711 5.33333 1.33333 5.33333H25.3333C25.687 5.33333 26.0261 5.19286 26.2761 4.94281C26.5262 4.69276 26.6667 4.35362 26.6667 4V1.33333C26.6667 0.979711 26.5262 0.640572 26.2761 0.390523C26.0261 0.140475 25.687 0 25.3333 0Z" fill="#0A0A0A"></path><path d="M25.3333 8H1.33333C0.979711 8 0.640572 8.14047 0.390523 8.39052C0.140475 8.64057 0 8.97971 0 9.33333V22.6667C0 23.0203 0.140475 23.3594 0.390523 23.6095C0.640572 23.8595 0.979711 24 1.33333 24H25.3333C25.687 24 26.0261 23.8595 26.2761 23.6095C26.5262 23.3594 26.6667 23.0203 26.6667 22.6667V9.33333C26.6667 8.97971 26.5262 8.64057 26.2761 8.39052C26.0261 8.14047 25.687 8 25.3333 8Z" fill="#0A0A0A"></path></svg>