<?xml version="1.0" encoding="utf-8"?><svg xml:space="preserve" viewBox="0 0 100 100" y="0" x="0" xmlns="http://www.w3.org/2000/svg" id="圖層_1" version="1.1" width="200px" height="200px" xmlns:xlink="http://www.w3.org/1999/xlink" style="width:100%;height:100%;background-size:initial;background-repeat-y:initial;background-repeat-x:initial;background-position-y:initial;background-position-x:initial;background-origin:initial;background-color:initial;background-clip:initial;background-attachment:initial;animation-play-state:paused" ><g class="ldl-scale" style="transform-origin:50% 50%;transform:rotate(0deg) scale(0.8, 0.8);animation-play-state:paused" ><path fill="#666" d="M66.714 28.708h-9.996v36.829h31.978V50.691a9.322 9.322 0 0 0-2.729-6.59L73.303 31.438a9.317 9.317 0 0 0-6.589-2.73z" style="fill:rgb(20, 19, 19);animation-play-state:paused" ></path>
<path fill="#666" d="M89.4 70.851H10.6a2.1 2.1 0 0 1-2.1-2.1v-5.346c0-1.16.94-2.1 2.1-2.1h78.8c1.16 0 2.1.94 2.1 2.1v5.346a2.1 2.1 0 0 1-2.1 2.1z" style="fill:rgb(20, 19, 19);animation-play-state:paused" ></path>
<path fill="#849b87" d="M10.507 58.55h42.872V29.355a7.31 7.31 0 0 0-7.309-7.309H17.815a7.31 7.31 0 0 0-7.309 7.309V58.55z" style="fill:rgb(202, 22, 22);animation-play-state:paused" ></path>
<circle stroke-miterlimit="10" stroke-width="4" stroke="#333" fill="#fff" r="10.246" cy="67.707" cx="26.332" style="stroke:rgb(226, 212, 212);fill:rgb(29, 28, 28);animation-play-state:paused" ></circle>
<circle stroke-miterlimit="10" stroke-width="4" stroke="#333" fill="#fff" r="10.246" cy="66.616" cx="72.707" style="stroke:rgb(226, 212, 212);fill:rgb(29, 28, 28);animation-play-state:paused" ></circle>
<metadata xmlns:d="https://loading.io/stock/" style="animation-play-state:paused" ><d:name style="animation-play-state:paused" >truck</d:name>
<d:tags style="animation-play-state:paused" >freighter,bulk carrier,cargo,goods,commodity,cargolux,truck,business</d:tags>
<d:license style="animation-play-state:paused" >pro</d:license>
<d:slug style="animation-play-state:paused" >3it84q</d:slug></metadata></g><!-- generated by https://loading.io/ --></svg>