<?xml version="1.0" encoding="UTF-8"?>
<svg version="1.1" xmlns="http://www.w3.org/2000/svg" width="600" height="600">
<path d="M0 0 C198 0 396 0 600 0 C600 198 600 396 600 600 C402 600 204 600 0 600 C0 402 0 204 0 0 Z " fill="#E21E27" transform="translate(0,0)"/>
<path d="M0 0 C198 0 396 0 600 0 C600 198 600 396 600 600 C402 600 204 600 0 600 C0 402 0 204 0 0 Z M111 132 C107.82415364 135.54947535 104.88185216 139.20973791 102 143 C101.07355701 144.17498434 100.14642576 145.34942621 99.21875 146.5234375 C87.56310273 161.46204459 77.90415939 177.78740978 70 195 C69.6704834 195.71414062 69.3409668 196.42828125 69.00146484 197.1640625 C54.61908966 228.74888643 47.52474329 262.98543298 47.75 297.625 C47.75376648 298.5052887 47.75753296 299.38557739 47.76141357 300.2925415 C47.95592404 339.11630211 55.75623131 375.94670126 73 411 C73.36673828 411.75651855 73.73347656 412.51303711 74.11132812 413.29248047 C85.99392682 437.58545826 102.28395774 458.62706242 121 478 C121.50063965 478.52255371 122.0012793 479.04510742 122.51708984 479.58349609 C128.94226247 486.27154656 135.65725265 492.33696609 143 498 C143.81911865 498.63373535 143.81911865 498.63373535 144.65478516 499.28027344 C178.12180584 524.9981243 215.82493987 541.18020076 257.125 549.3125 C258.33095825 549.55190308 258.33095825 549.55190308 259.5612793 549.79614258 C297.42602479 556.81847275 339.55533885 552.70297116 376 541 C376.74024414 540.76700195 377.48048828 540.53400391 378.24316406 540.29394531 C391.62130578 536.02714258 405.11373734 530.67186764 417.25 523.57421875 C417.9085498 523.19378418 418.56709961 522.81334961 419.24560547 522.42138672 C420.99587265 521.38868816 422.72176906 520.31498898 424.4453125 519.23828125 C429.48924383 517.48121946 432.96769921 518.56847527 438 520 C438.92619141 520.25402588 439.85238281 520.50805176 440.80664062 520.76977539 C443.77671298 521.60780307 446.73226954 522.48612673 449.6875 523.375 C457.56312609 525.71034399 465.44064815 527.95500461 473.390625 530.0234375 C476.12480655 530.76320523 478.83491437 531.53706806 481.546875 532.3515625 C482.319104 532.58343262 483.09133301 532.81530273 483.88696289 533.05419922 C485.38247359 533.5065186 486.87655008 533.96361709 488.36889648 534.42626953 C491.77331344 535.4573702 494.40433653 536 498 536 C498.11051783 529.17005505 497.80757529 522.47741349 497.16015625 515.6796875 C497.07374374 514.73618439 496.98733124 513.79268127 496.89830017 512.82058716 C496.71629947 510.84227237 496.53215613 508.8641536 496.34594727 506.88623047 C496.06263022 503.8763834 495.78561327 500.8660087 495.50976562 497.85546875 C495.33109383 495.92184127 495.15206938 493.98824634 494.97265625 492.0546875 C494.89032242 491.16490204 494.80798859 490.27511658 494.72315979 489.35836792 C494.15118842 483.29580975 493.52747068 477.24738473 492.55078125 471.234375 C492.12055208 466.7487069 492.35438889 463.97714114 494.87890625 460.15625 C496.61122448 458.13927854 498.35810196 456.16616442 500.15234375 454.20703125 C517.50850956 435.18053298 530.06744541 408.24011701 538 384 C538.27199219 383.20722656 538.54398438 382.41445313 538.82421875 381.59765625 C539.31546014 380.16032032 539.79470646 378.71882748 540.26171875 377.2734375 C540.78340687 375.66696932 541.33018972 374.06854778 541.89453125 372.4765625 C561.82928234 313.22825848 554.45149109 244.39418985 527 189 C526.68224609 188.3498291 526.36449219 187.6996582 526.03710938 187.02978516 C514.52111273 163.65140341 499.01196614 142.7417223 481 124 C480.48179687 123.45456543 479.96359375 122.90913086 479.4296875 122.34716797 C472.01490936 114.5694127 464.23815118 107.6825615 455.640625 101.23925781 C454.139722 100.10554001 452.66226203 98.94095744 451.1875 97.7734375 C373.38307619 36.9887314 266.12617745 33.36879442 111 132 Z " fill="#FEFEFE" transform="translate(0,0)"/>
<path d="M0 0 C2.19429503 -0.00216709 4.38807035 -0.02029958 6.58227539 -0.03930664 C43.78029851 -0.19022207 78.33436933 14.7499162 105.16235352 40.18530273 C106.59901367 41.5252832 106.59901367 41.5252832 108.06469727 42.89233398 C121.86835246 56.03282425 131.79919979 71.58769641 139.64672852 88.86499023 C140.14688477 89.96069336 140.64704102 91.05639648 141.16235352 92.18530273 C141.65928711 93.38026367 141.65928711 93.38026367 142.16625977 94.59936523 C142.4949707 95.12272461 142.82368164 95.64608398 143.16235352 96.18530273 C145.49090217 96.55056527 147.82534314 96.87880957 150.16235352 97.18530273 C160.12719368 101.45594852 164.53286222 110.30158463 168.90063477 119.77905273 C175.80251276 138.41198653 173.9808188 161.65337327 165.91235352 179.62280273 C162.1982502 186.40906559 157.14141896 192.65836307 150.16235352 196.18530273 C147.70532227 196.69702148 147.70532227 196.69702148 145.34985352 196.87280273 C144.5596582 196.93854492 143.76946289 197.00428711 142.95532227 197.07202148 C142.06780273 197.1280957 142.06780273 197.1280957 141.16235352 197.18530273 C140.83235352 198.34030273 140.50235352 199.49530273 140.16235352 200.68530273 C128.40151742 235.53019851 99.37630892 263.04287314 67.16235352 279.18530273 C55.27554987 284.78790265 42.12339601 289.2398773 29.09985352 291.18530273 C24.60672109 291.89438585 21.58481813 293.44315239 17.86547852 296.01342773 C8.68985986 302.32692681 -6.48029397 301.31926362 -17.05639648 299.68920898 C-22.72065001 298.14202862 -28.80696814 295.48515504 -31.99389648 290.30639648 C-34.01910003 285.21525978 -33.54111761 280.22071369 -31.77514648 275.11108398 C-28.07600701 267.09963245 -23.3613227 261.07163444 -15.27514648 257.24780273 C-6.77208737 254.60834627 2.57919549 254.96710313 10.66235352 258.62280273 C16.57593942 261.98261335 21.847095 266.7605602 23.83813477 273.45874023 C23.99862305 274.31338867 23.99862305 274.31338867 24.16235352 275.18530273 C61.6795596 267.79849532 91.33325369 248.46493482 113.25219727 217.20483398 C131.74599049 188.89651287 137.73978502 154.10943182 132.09985352 120.87280273 C131.52036779 118.25975134 130.90614182 115.7473789 130.16235352 113.18530273 C129.94192383 112.41541016 129.72149414 111.64551758 129.49438477 110.85229492 C124.27673175 93.27377346 115.93369334 77.27231597 104.16235352 63.18530273 C103.73792969 62.67193359 103.31350586 62.15856445 102.8762207 61.62963867 C82.92428835 37.80017342 52.15738746 20.40106231 20.97827148 17.38891602 C1.87502433 16.0075992 -16.43041677 16.45518604 -34.83764648 22.18530273 C-35.5537207 22.39928711 -36.26979492 22.61327148 -37.00756836 22.83374023 C-53.23609748 27.80823734 -68.26882252 36.8611188 -80.83764648 48.18530273 C-81.67295898 48.89041992 -82.50827148 49.59553711 -83.36889648 50.32202148 C-102.61957899 66.86929024 -115.34735994 89.85289767 -121.83764648 114.18530273 C-122.14573242 115.31194336 -122.45381836 116.43858398 -122.77124023 117.59936523 C-124.70401725 125.49693257 -125.24833353 133.15381121 -125.19604492 141.25854492 C-125.26455788 145.46457242 -125.51954665 148.37198826 -128.12670898 151.77905273 C-130.83764648 154.18530273 -130.83764648 154.18530273 -134.83764648 154.18530273 C-134.83764648 168.04530273 -134.83764648 181.90530273 -134.83764648 196.18530273 C-142.67085981 196.18530273 -144.51577371 195.27955977 -149.83764648 190.18530273 C-152.09688577 187.66118711 -154.01294664 185.03707915 -155.83764648 182.18530273 C-156.3906543 181.3306543 -156.3906543 181.3306543 -156.95483398 180.45874023 C-165.79281247 164.90663856 -166.95182792 142.10053734 -162.29443359 125.12426758 C-158.63247672 113.7484728 -153.29822652 103.76128439 -143.09545898 97.16577148 C-140.83764648 96.18530273 -140.83764648 96.18530273 -137.25561523 95.92358398 C-136.12768555 95.67995117 -134.99975586 95.43631836 -133.83764648 95.18530273 C-132.02956167 92.59405808 -132.02956167 92.59405808 -131.02514648 89.18530273 C-117.71496091 53.71608031 -87.54837131 26.85121616 -53.83764648 11.18530273 C-42.9011872 6.27505571 -31.60270721 3.36621737 -19.83764648 1.18530273 C-18.91749756 1.00805664 -17.99734863 0.83081055 -17.04931641 0.64819336 C-11.39736311 -0.16640972 -5.69953864 -0.00062833 0 0 Z " fill="#FEFAFA" transform="translate(295.837646484375,149.814697265625)"/>
<path d="M0 0 C1.31173691 -0.00686325 2.62347382 -0.0137265 3.97496033 -0.02079773 C7.54943686 -0.03863755 11.12366668 -0.03757827 14.69817424 -0.03185534 C17.6925215 -0.02875021 20.68682228 -0.03487057 23.68116289 -0.04089409 C30.7500469 -0.05490748 37.81880997 -0.0534046 44.88769531 -0.04199219 C52.15813186 -0.03051311 59.42819942 -0.04459015 66.69858736 -0.07138866 C72.96216918 -0.09360387 79.22563567 -0.10017002 85.48925406 -0.09431225 C89.22083574 -0.09095545 92.95218097 -0.09327206 96.68372917 -0.11056328 C100.84798125 -0.12902011 105.01152344 -0.11478576 109.17578125 -0.09765625 C110.39738953 -0.10732422 111.6189978 -0.11699219 112.87762451 -0.12695312 C122.28672538 -0.04614516 131.06317504 1.77567456 138.06420898 8.5 C146.1281 18.16650569 146.55311637 27.75200822 146.32495117 39.79492188 C146.27759791 42.46598752 146.28388356 45.1330613 146.29711914 47.80444336 C146.25760869 59.93069348 145.35356742 70.54676131 136.58618164 79.74780273 C130.8116588 84.69406069 124.52695796 86.51901319 117.03781128 86.55122375 C115.89402512 86.55837906 114.75023895 86.56553436 113.5717926 86.57290649 C112.32083298 86.5755954 111.06987335 86.5782843 109.78100586 86.58105469 C108.44690271 86.58732305 107.1128013 86.59397019 105.77870178 86.60096741 C101.40073859 86.62197072 97.02277522 86.63236821 92.64477539 86.64233398 C91.13435981 86.64638332 89.62394442 86.6505003 88.11352921 86.65468407 C81.01431295 86.67372975 73.91510704 86.68796052 66.81587017 86.69629604 C58.63795465 86.70605806 50.46031055 86.7323529 42.28249061 86.77279693 C35.95109361 86.80302774 29.61977409 86.8177716 23.28830636 86.82107705 C19.51190452 86.82342014 15.73579284 86.83228283 11.95946884 86.85753822 C8.40200178 86.88094568 4.84501327 86.885002 1.28748894 86.87477684 C-0.62619778 86.87405122 -2.53986088 86.89305422 -4.45344543 86.9128418 C-13.62328385 86.85798404 -21.27308541 85.45914188 -28.22241211 79.15405273 C-37.1720606 69.31788245 -36.64168636 58.13164843 -36.75244141 45.59619141 C-36.77394309 43.77210466 -36.80795241 41.94811889 -36.85498047 40.12451172 C-37.16998066 27.76776061 -36.98886714 17.87721254 -28.35107422 8.15771484 C-20.42063678 0.2272774 -10.67515343 -0.03927305 0 0 Z " fill="#FEFCFC" transform="translate(245.347412109375,249.595947265625)"/>
<path d="M0 0 C4.79240118 2.73021643 8.96613704 7.05442359 10.6875 12.375 C11.17435554 18.21726651 10.76729926 23.27249429 7.6875 28.375 C3.26366128 33.24028335 -0.30360176 35.88322522 -6.828125 36.68359375 C-13.18603073 36.98332359 -16.75310297 36.19178226 -21.65625 32.078125 C-25.75543958 27.86292062 -28.06648936 23.9827128 -28.625 18.0625 C-28.05031502 11.28121721 -26.44325342 7.04951916 -21.3125 2.4375 C-15.17559768 -2.66496234 -7.28273684 -3.33676726 0 0 Z " fill="#DE222B" transform="translate(254.3125,275.625)"/>
<path d="M0 0 C5.21323542 2.90738129 8.52195787 6.53981352 11.25 11.8125 C12.35271995 17.93302315 12.0126193 23.44295761 8.75 28.8125 C4.82041934 33.85958379 0.89548085 36.20312228 -5.390625 37.25390625 C-11.64260275 37.66430144 -15.89134205 36.46223434 -20.8671875 32.63671875 C-25.48859749 28.15912857 -26.96014412 23.68133254 -27.3125 17.3125 C-27.0884541 11.74225532 -25.48511678 7.93669145 -21.75 3.8125 C-14.84089438 -1.57660238 -8.30102019 -2.62865639 0 0 Z " fill="#E02029" transform="translate(360.75,275.1875)"/>
<path d="M0 0 C0.62941152 0.28348171 1.25882303 0.56696342 1.90730762 0.85903549 C9.80263265 4.10561071 16.72258819 4.54934036 25.19213867 4.45410156 C26.58290575 4.45297059 27.97367521 4.4536118 29.36444092 4.45587158 C33.1056201 4.45700995 36.84627665 4.43364482 40.58733535 4.40557575 C44.50971877 4.3804141 48.4321168 4.37820855 52.35456848 4.37347412 C59.7668785 4.3610874 67.17894995 4.32832474 74.59115535 4.28807616 C83.03619782 4.24322368 91.48125223 4.22133768 99.92638433 4.20129442 C117.28439376 4.15958774 134.64217158 4.08932036 152 4 C148.77947189 6.87801938 146.71226576 7.37603318 142.42991638 7.38095093 C141.29598953 7.3894104 140.16206268 7.39786987 138.99377441 7.40658569 C137.75373657 7.400513 136.51369873 7.39444031 135.23608398 7.38818359 C133.9266835 7.39344055 132.61728302 7.39869751 131.26820374 7.40411377 C127.6768228 7.4177936 124.08570038 7.41248363 120.49431491 7.40297651 C116.7278161 7.3953722 112.96133918 7.4024287 109.19483948 7.40713501 C102.86219321 7.41259502 96.52965183 7.40539947 90.19702148 7.39111328 C82.89779236 7.37483555 75.59881529 7.38003857 68.29959244 7.3965925 C62.01996452 7.41025951 55.74041201 7.4121002 49.460774 7.40427649 C45.71627914 7.39962213 41.97190217 7.39891194 38.22741508 7.40888596 C34.69869434 7.41762776 31.17029386 7.411404 27.64160728 7.39420319 C25.74605104 7.38841673 23.85046736 7.39719558 21.95492554 7.40658569 C14.52412688 7.35209795 8.05517364 6.35432992 1 4 C0.67 2.68 0.34 1.36 0 0 Z " fill="#CB434A" transform="translate(220,331)"/>
<path d="M0 0 C0 0.99 0 1.98 0 3 C-0.9590625 3.37125 -0.9590625 3.37125 -1.9375 3.75 C-2.9584375 4.36875 -2.9584375 4.36875 -4 5 C-4.13100098 5.60102539 -4.26200195 6.20205078 -4.39697266 6.82128906 C-5.19436393 9.70222821 -6.61009302 10.99819607 -8.7109375 13.109375 C-9.46117187 13.86347656 -10.21140625 14.61757812 -10.984375 15.39453125 C-11.77328125 16.17183594 -12.5621875 16.94914062 -13.375 17.75 C-14.15617187 18.54277344 -14.93734375 19.33554688 -15.7421875 20.15234375 C-16.495 20.90128906 -17.2478125 21.65023437 -18.0234375 22.421875 C-18.71356934 23.10862305 -19.40370117 23.79537109 -20.11474609 24.50292969 C-22 26 -22 26 -25 26 C-25.103125 26.598125 -25.20625 27.19625 -25.3125 27.8125 C-26.11135651 30.35431617 -27.10071545 31.17376486 -29 33 C-29.495 33.845625 -29.99 34.69125 -30.5 35.5625 C-32 38 -32 38 -35 40 C-35.28875 40.598125 -35.5775 41.19625 -35.875 41.8125 C-37 44 -37 44 -39.4375 46.375 C-42.08734968 49.08948016 -43.47643477 51.55193133 -45 55 C-45.99 54.67 -46.98 54.34 -48 54 C-36.82874643 38.11301233 -24.75194417 23.70923366 -11.0625 9.9375 C-10.53116455 9.4014917 -9.9998291 8.8654834 -9.45239258 8.31323242 C-6.44927894 5.32247923 -3.36818916 2.58662041 0 0 Z " fill="#CD2B31" transform="translate(137,107)"/>
<path d="M0 0 C0.33 0 0.66 0 1 0 C1.02688151 1.64574566 1.04634123 3.29161413 1.0625 4.9375 C1.07410156 5.85402344 1.08570313 6.77054688 1.09765625 7.71484375 C1 10 1 10 0 11 C-1.14937444 16.10932857 -1.95245066 21.30005565 -2.5625 26.5 C-3 30 -3 30 -4 33 C-4.20613653 34.87759606 -4.36630319 36.76039102 -4.5 38.64453125 C-4.5820166 39.78696289 -4.6640332 40.92939453 -4.74853516 42.10644531 C-4.83151855 43.32944336 -4.91450195 44.55244141 -5 45.8125 C-5.08685059 47.05741211 -5.17370117 48.30232422 -5.26318359 49.58496094 C-6.02052947 60.71638232 -6.56771874 71.85169387 -7 83 C-7.33 83 -7.66 83 -8 83 C-8.62754572 39.20052723 -8.62754572 39.20052723 -5 21 C-4.82887695 20.10941895 -4.65775391 19.21883789 -4.48144531 18.30126953 C-1.52568283 3.05136567 -1.52568283 3.05136567 0 0 Z " fill="#C7353D" transform="translate(56,235)"/>
<path d="M0 0 C1.13436996 0.00566483 2.26873993 0.01132965 3.43748474 0.01716614 C4.67250732 0.03370743 5.90752991 0.05024872 7.17997742 0.06729126 C8.487686 0.07675278 9.79539459 0.08621429 11.14273071 0.09596252 C14.72095829 0.12208194 18.29895267 0.16074962 21.87703729 0.20168638 C25.61924695 0.24236157 29.3615462 0.27147457 33.10385132 0.30181885 C40.18697003 0.36100643 47.26994708 0.43057838 54.35293216 0.50388968 C62.4181218 0.58686086 70.48340102 0.65824277 78.54870856 0.72865558 C95.13646249 0.87373161 111.72404342 1.03334736 128.31156921 1.20254517 C128.31156921 1.53254517 128.31156921 1.86254517 128.31156921 2.20254517 C127.29169576 2.20889307 127.29169576 2.20889307 126.2512188 2.21536922 C109.70054067 2.31871414 93.14990665 2.42735762 76.59930229 2.54188442 C68.59552829 2.59714139 60.59174982 2.6506109 52.5879364 2.69985962 C45.61109164 2.74279379 38.6342787 2.78909483 31.65748322 2.83942372 C27.96400156 2.8659504 24.27052591 2.89080134 20.57700729 2.91161919 C16.45185922 2.93493295 12.32679993 2.96576405 8.20170593 2.9972229 C6.36859108 3.00585609 6.36859108 3.00585609 4.4984436 3.0146637 C3.37111313 3.02445251 2.24378265 3.03424133 1.08229065 3.04432678 C-0.38059482 3.05400561 -0.38059482 3.05400561 -1.87303352 3.06387997 C-4.87387379 3.21167869 -7.73659398 3.65440273 -10.68843079 4.20254517 C-10.68843079 3.54254517 -10.68843079 2.88254517 -10.68843079 2.20254517 C-6.96075363 0.48627824 -4.09192547 -0.03834982 0 0 Z " fill="#BD4043" transform="translate(236.6884307861328,247.79745483398438)"/>
<path d="M0 0 C16.43783911 -0.04676115 32.87565659 -0.082009 49.31354618 -0.10362434 C56.94627674 -0.11392835 64.57896592 -0.12797193 72.21166992 -0.15087891 C78.86584531 -0.17083961 85.51999073 -0.1837228 92.17419523 -0.18817699 C95.69617037 -0.19077984 99.21805978 -0.19687936 102.7400074 -0.21146011 C106.67572742 -0.22762107 110.61136426 -0.22797796 114.54711914 -0.22705078 C115.709496 -0.23424133 116.87187286 -0.24143188 118.06947327 -0.24884033 C125.43684443 -0.23005444 131.45880503 0.33693082 138 4 C134.75065739 5.09085797 133.15879007 4.91316019 130.03102112 3.58952332 C124.20376964 1.50571401 118.63974383 1.55987865 112.50366211 1.56762695 C111.28315155 1.5574353 110.06264099 1.54724365 108.80514526 1.53674316 C105.48540729 1.5118659 102.16611054 1.49991339 98.84631801 1.49388909 C95.36692418 1.48445838 91.88765595 1.45825152 88.40834045 1.43388367 C81.83192017 1.39034338 75.25552445 1.36172011 68.67900425 1.33856028 C61.18672504 1.31144141 53.69457297 1.26753427 46.20238483 1.22227156 C30.80165541 1.12960411 15.400902 1.05784182 0 1 C0 0.67 0 0.34 0 0 Z " fill="#CE2128" transform="translate(240,248)"/>
<path d="M0 0 C0.33 0.66 0.66 1.32 1 2 C2.093125 1.979375 3.18625 1.95875 4.3125 1.9375 C8 2 8 2 11 3 C11 3.66 11 4.32 11 5 C11.556875 5.2475 12.11375 5.495 12.6875 5.75 C18.09797326 8.67458014 23.78683372 13.09822325 26 19 C26 20.32 26 21.64 26 23 C26.66 23 27.32 23 28 23 C28.20496094 23.71027344 28.40992188 24.42054688 28.62109375 25.15234375 C28.89050781 26.07144531 29.15992188 26.99054688 29.4375 27.9375 C29.70433594 28.85402344 29.97117187 29.77054687 30.24609375 30.71484375 C30.79026051 32.9402493 30.79026051 32.9402493 32 34 C32.23481693 36.18292774 32.41363323 38.37203174 32.5625 40.5625 C32.64628906 41.76003906 32.73007812 42.95757812 32.81640625 44.19140625 C32.87699219 45.11824219 32.93757813 46.04507813 33 47 C33.33 47 33.66 47 34 47 C34 52.94 34 58.88 34 65 C33.01 65.495 33.01 65.495 32 66 C30.75213888 63.50427776 30.84205985 61.73251912 30.7890625 58.94140625 C30.76070313 57.91466797 30.73234375 56.88792969 30.703125 55.83007812 C30.65188593 53.68700423 30.60738121 51.54375645 30.5703125 49.40039062 C30.26989697 39.31769436 28.16984099 30.59340986 23.5625 21.625 C22.98628906 20.48289062 22.41007812 19.34078125 21.81640625 18.1640625 C18.49108562 12.37156851 15.16856325 8.55738351 9 6 C5.30476048 5.28076792 5.30476048 5.28076792 2 5 C1.34 4.67 0.68 4.34 0 4 C0 2.68 0 1.36 0 0 Z " fill="#C13238" transform="translate(437,242)"/>
<path d="M0 0 C6.66267698 -0.12951208 13.2867637 0.06203797 19.9375 0.4375 C20.670896 0.47673584 21.40429199 0.51597168 22.15991211 0.55639648 C27.56098139 0.88084674 27.56098139 0.88084674 29.88452148 1.51147461 C32.49165398 2.11353717 34.89479099 2.1297071 37.5703125 2.1328125 C39.16166016 2.13474609 39.16166016 2.13474609 40.78515625 2.13671875 C42.43837891 2.13091797 42.43837891 2.13091797 44.125 2.125 C45.78982422 2.13080078 45.78982422 2.13080078 47.48828125 2.13671875 C48.54660156 2.13542969 49.60492188 2.13414062 50.6953125 2.1328125 C51.66484863 2.13168457 52.63438477 2.13055664 53.63330078 2.12939453 C56.01878866 2.15632176 56.01878866 2.15632176 58 1 C60.10374996 0.84558791 62.21195119 0.75007361 64.3203125 0.68359375 C66.20556641 0.62075195 66.20556641 0.62075195 68.12890625 0.55664062 C69.44761719 0.51732422 70.76632812 0.47800781 72.125 0.4375 C73.46485751 0.39430488 74.80470156 0.35069027 76.14453125 0.30664062 C79.42957815 0.20029019 82.71470281 0.09826192 86 0 C86 0.33 86 0.66 86 1 C72.13981092 3.88539252 58.41553476 4.30995223 44.3125 4.3125 C43.44593781 4.31572266 42.57937561 4.31894531 41.68655396 4.32226562 C27.6270953 4.35411301 13.86633478 3.41808893 0 1 C0 0.67 0 0.34 0 0 Z " fill="#C03137" transform="translate(256,548)"/>
<path d="M0 0 C0.66 0 1.32 0 2 0 C2.33 1.32 2.66 2.64 3 4 C3.66 4 4.32 4 5 4 C6.89417514 9.60493384 7.29396644 14.54783181 7.265625 20.44140625 C7.26753845 21.32730942 7.2694519 22.21321259 7.27142334 23.1259613 C7.27277789 24.98916917 7.26913275 26.85238671 7.26074219 28.71557617 C7.25001945 31.55734542 7.2606689 34.39848441 7.2734375 37.24023438 C7.27211602 39.05729305 7.26955388 40.87435134 7.265625 42.69140625 C7.26967346 43.53530411 7.27372192 44.37920197 7.27789307 45.24867249 C7.24118465 49.89407527 6.77761809 53.6287718 5 58 C4.34 58 3.68 58 3 58 C3 58.99 3 59.98 3 61 C2.34 61 1.68 61 1 61 C1.21148682 60.43869385 1.42297363 59.8773877 1.64086914 59.29907227 C4.52573887 50.47172654 4.49051169 41.81580116 4.44604492 32.62963867 C4.4375053 29.93916968 4.46642557 27.25080892 4.49804688 24.56054688 C4.53206622 15.73114848 4.55717907 7.8809041 0 0 Z " fill="#D12C34" transform="translate(386,262)"/>
<path d="M0 0 C0.33 0 0.66 0 1 0 C3.0363292 11.26938903 3.31618782 22.2097353 3.25 33.625 C3.24822754 34.50486572 3.24645508 35.38473145 3.24462891 36.29125977 C3.21464199 48.94919671 2.84845862 61.45688792 1 74 C0.67 74 0.34 74 0 74 C-0.02903577 70.89585298 -0.0468107 67.79174091 -0.0625 64.6875 C-0.07087891 63.80642578 -0.07925781 62.92535156 -0.08789062 62.01757812 C-0.09111328 61.17001953 -0.09433594 60.32246094 -0.09765625 59.44921875 C-0.10289307 58.66893311 -0.10812988 57.88864746 -0.11352539 57.0847168 C0 55 0 55 1 52 C1.09157079 50.64820783 1.13066091 49.29238842 1.1328125 47.9375 C1.13474609 47.14690186 1.13667969 46.35630371 1.13867188 45.54174805 C1.13416016 44.70297119 1.12964844 43.86419434 1.125 43 C1.12306641 42.1335083 1.12113281 41.2670166 1.11914062 40.37426758 C1.09039167 36.11423148 0.98536583 31.92405029 0.5 27.6875 C0.12613076 23.9255493 -0.06410334 20.22538211 -0.06640625 16.4453125 C-0.06769531 15.44024658 -0.06898438 14.43518066 -0.0703125 13.3996582 C-0.05900894 8.93298531 -0.0384179 4.46652468 0 0 Z " fill="#C5373E" transform="translate(549,262)"/>
<path d="M0 0 C0.66 0.33 1.32 0.66 2 1 C1.69707031 1.4640625 1.39414063 1.928125 1.08203125 2.40625 C-9.99002862 20.66663182 -10.77560719 42.14856622 -6 62.625 C-5.37902839 65.10098939 -4.7098097 67.54735397 -4 70 C-4.99 70.495 -4.99 70.495 -6 71 C-8.7860626 64.43285244 -10.31264202 58.33004243 -10.3359375 51.1875 C-10.3459227 50.09042725 -10.3459227 50.09042725 -10.35610962 48.97119141 C-10.36618175 47.42824796 -10.37092833 45.88526144 -10.37060547 44.34228516 C-10.37493733 42.03340515 -10.41119578 39.72650631 -10.44921875 37.41796875 C-10.52310967 27.31358777 -9.13366011 18.6300127 -6 9 C-5.34 9 -4.68 9 -4 9 C-3.855625 8.236875 -3.71125 7.47375 -3.5625 6.6875 C-3 4 -3 4 -2 1 C-1.34 0.67 -0.68 0.34 0 0 Z " fill="#CE5458" transform="translate(141,256)"/>
<path d="M0 0 C-0.66 0.66 -1.32 1.32 -2 2 C-3.80859375 1.6328125 -3.80859375 1.6328125 -6 1 C-7.68558459 0.90946307 -9.37449336 0.86990797 -11.0625 0.875 C-11.91972656 0.87242187 -12.77695312 0.86984375 -13.66015625 0.8671875 C-16.15564201 0.90634865 -16.15564201 0.90634865 -19 2 C-19.99 3.485 -19.99 3.485 -21 5 C-21.99 5 -22.98 5 -24 5 C-25.86132673 9.70461323 -26.2509496 13.8757696 -26.125 18.875 C-26.11597656 19.56335938 -26.10695313 20.25171875 -26.09765625 20.9609375 C-26.07432513 22.64077838 -26.03846326 24.32043746 -26 26 C-25.34 26 -24.68 26 -24 26 C-24 26.99 -24 27.98 -24 29 C-23.13375 29.0928125 -23.13375 29.0928125 -22.25 29.1875 C-19.11309013 30.32027301 -17.90832496 32.34197595 -16 35 C-21.5310993 33.26165451 -24.56326103 30.08079437 -27.8125 25.375 C-29.75428145 19.85625272 -30.243822 14.19460266 -28.0859375 8.65234375 C-21.9102686 -2.00566548 -11.03364412 -4.52662323 0 0 Z " fill="#C3383F" transform="translate(363,276)"/>
<path d="M0 0 C0.96141403 -0.00570007 1.92282806 -0.01140015 2.91337585 -0.01727295 C4.9379264 -0.02667262 6.96249189 -0.03323676 8.98706055 -0.03710938 C12.05480073 -0.04681357 15.12186971 -0.07788485 18.18945312 -0.109375 C27.83922955 -0.1606244 36.58246601 -0.12867966 45.76171875 3.203125 C47.75495953 3.57474616 49.75239488 3.93159475 51.76171875 4.203125 C51.76171875 4.863125 51.76171875 5.523125 51.76171875 6.203125 C46.99596049 5.83202087 42.32498451 5.4553525 37.69921875 4.203125 C28.83754537 1.82602918 19.74350812 2.04629547 10.64282227 2.07275391 C8.46428383 2.07808811 6.28595385 2.07279563 4.10742188 2.06640625 C-4.04968723 2.06293055 -12.11886578 2.34926864 -20.23828125 3.203125 C-15.73131569 -1.30384056 -6.08348493 0.02845728 0 0 Z " fill="#C43E45" transform="translate(290.23828125,148.796875)"/>
<path d="M0 0 C1.98 0 3.96 0 6 0 C-4.24842053 11.9503243 -27.13528161 17.62996098 -42 20 C-42.99 20 -43.98 20 -45 20 C-45 19.34 -45 18.68 -45 18 C-43.02 18 -41.04 18 -39 18 C-39 17.34 -39 16.68 -39 16 C-37.78763672 15.81824219 -37.78763672 15.81824219 -36.55078125 15.6328125 C-35.48214844 15.46523438 -34.41351563 15.29765625 -33.3125 15.125 C-32.25675781 14.96257812 -31.20101563 14.80015625 -30.11328125 14.6328125 C-27.02485832 14.10393469 -27.02485832 14.10393469 -24.35546875 12.9296875 C-22 12 -22 12 -18 12 C-18 11.34 -18 10.68 -18 10 C-16.68 10 -15.36 10 -14 10 C-14 9.34 -14 8.68 -14 8 C-12.35 8 -10.7 8 -9 8 C-9 7.34 -9 6.68 -9 6 C-8.01 6 -7.02 6 -6 6 C-6 5.34 -6 4.68 -6 4 C-4.35 4 -2.7 4 -1 4 C-0.67 2.68 -0.34 1.36 0 0 Z " fill="#C3353C" transform="translate(365,405)"/>
<path d="M0 0 C0.66 0.33 1.32 0.66 2 1 C1 3 1 3 -1.484375 4.0703125 C-12.05503437 7.48428144 -22.33305904 8.69240264 -33 5 C-33.33 4.34 -33.66 3.68 -34 3 C-33.01773437 3.01571045 -33.01773437 3.01571045 -32.015625 3.03173828 C-29.01045668 3.07365359 -26.00535016 3.09943809 -23 3.125 C-21.97003906 3.14175781 -20.94007813 3.15851563 -19.87890625 3.17578125 C-12.65499218 3.22179344 -6.85806644 2.28602215 0 0 Z " fill="#CC373E" transform="translate(312,446)"/>
<path d="M0 0 C9.80201181 1.70913584 19.04200347 4.06310721 28.41186523 7.38891602 C30.35318441 8.07691853 32.30000676 8.74730711 34.24804688 9.41601562 C43.72770992 12.72770992 43.72770992 12.72770992 46 15 C42.7 14.67 39.4 14.34 36 14 C36 13.34 36 12.68 36 12 C30.06 11.01 30.06 11.01 24 10 C24 9.34 24 8.68 24 8 C16.4165851 5.74461972 16.4165851 5.74461972 8.625 4.5 C4.96319997 3.99492413 2.93383816 3.20037862 0 1 C0 0.67 0 0.34 0 0 Z " fill="#C53238" transform="translate(352,53)"/>
<path d="M0 0 C0.66 0.33 1.32 0.66 2 1 C-3.95703125 12.9140625 -3.95703125 12.9140625 -5.01855469 15.00878906 C-5.90156823 16.80029615 -6.70790828 18.62910842 -7.50390625 20.4609375 C-9 23 -9 23 -10.9453125 23.8125 C-11.66460937 23.874375 -12.38390625 23.93625 -13.125 24 C-18.72405715 24.86422229 -22.53985273 27.64698148 -27 31 C-26.34 29.35 -25.68 27.7 -25 26 C-24.34 26 -23.68 26 -23 26 C-23 25.34 -23 24.68 -23 24 C-21.39743892 23.49487756 -19.79288208 22.99608373 -18.1875 22.5 C-17.29417969 22.2215625 -16.40085938 21.943125 -15.48046875 21.65625 C-13 21 -13 21 -10 21 C-10 20.01 -10 19.02 -10 18 C-9.34 18 -8.68 18 -8 18 C-7.855625 17.278125 -7.71125 16.55625 -7.5625 15.8125 C-7.04166667 13.20833333 -6.52083333 10.60416667 -6 8 C-5.34 8 -4.68 8 -4 8 C-4 7.34 -4 6.68 -4 6 C-3.34 6 -2.68 6 -2 6 C-2 4.68 -2 3.36 -2 2 C-1.34 2 -0.68 2 0 2 C0 1.34 0 0.68 0 0 Z " fill="#C5343A" transform="translate(171,223)"/>
<path d="M0 0 C0.33 0.66 0.66 1.32 1 2 C-0.16330423 5.0052026 -1.7572254 6.7572254 -4 9 C-4.495 9.845625 -4.99 10.69125 -5.5 11.5625 C-7 14 -7 14 -10 16 C-10.433125 16.8971875 -10.433125 16.8971875 -10.875 17.8125 C-12 20 -12 20 -14.4375 22.375 C-17.08734968 25.08948016 -18.47643477 27.55193133 -20 31 C-20.99 30.67 -21.98 30.34 -23 30 C-17.23296287 21.79851686 -11.38917034 13.73500445 -5 6 C-4.20529297 5.03707031 -4.20529297 5.03707031 -3.39453125 4.0546875 C-2.26857538 2.69849415 -1.13540451 1.34829285 0 0 Z " fill="#C7373D" transform="translate(112,131)"/>
<path d="M0 0 C0.66 0 1.32 0 2 0 C1.78765213 0.54164795 1.57530426 1.0832959 1.35652161 1.64135742 C-0.73331586 7.34734608 -1.43289725 12.26332986 -1.36328125 18.3125 C-1.36377975 19.16626221 -1.36427826 20.02002441 -1.36479187 20.8996582 C-1.36246822 22.69126736 -1.3528418 24.48288086 -1.33618164 26.27441406 C-1.3125596 28.99314031 -1.31563799 31.7108843 -1.32226562 34.4296875 C-1.31668808 36.18229742 -1.30957772 37.93490328 -1.30078125 39.6875 C-1.30169266 40.48776611 -1.30260406 41.28803223 -1.30354309 42.11254883 C-1.23542067 47.62337547 -0.3864741 52.6695648 1 58 C0.01 57.67 -0.98 57.34 -2 57 C-3.1433376 51.49697178 -3.17834788 46.12154162 -3.203125 40.52734375 C-3.20882507 39.52667374 -3.21452515 38.52600372 -3.22039795 37.49501038 C-3.22981531 35.3862513 -3.2363689 33.27747773 -3.24023438 31.16870117 C-3.24997766 27.94489099 -3.28104724 24.72170869 -3.3125 21.49804688 C-3.31902719 19.44531627 -3.32427877 17.39258113 -3.328125 15.33984375 C-3.3404718 14.37827866 -3.3528186 13.41671356 -3.36553955 12.42601013 C-3.33699886 3.85542184 -3.33699886 3.85542184 0 0 Z " fill="#B7272D" transform="translate(211,263)"/>
<path d="M0 0 C0 0.66 0 1.32 0 2 C-0.83249268 2.05534912 -1.66498535 2.11069824 -2.52270508 2.16772461 C-5.61472559 2.37518336 -8.70647895 2.5861757 -11.7980957 2.79956055 C-13.79294644 2.93616104 -15.78807485 3.06868672 -17.78320312 3.20117188 C-19.66362305 3.33168945 -19.66362305 3.33168945 -21.58203125 3.46484375 C-22.73936768 3.543396 -23.8967041 3.62194824 -25.08911133 3.70288086 C-28.06167871 3.89930397 -28.06167871 3.89930397 -31 5 C-31 4.34 -31 3.68 -31 3 C-31.99 2.67 -32.98 2.34 -34 2 C-22.59556312 0.25981345 -11.52992873 -0.24020685 0 0 Z " fill="#CA343C" transform="translate(296,48)"/>
<path d="M0 0 C1.66666667 0.66666667 3.33333333 1.33333333 5 2 C5.825 2.268125 6.65 2.53625 7.5 2.8125 C10.04748376 4.02255479 11.5073666 5.4394212 13.45263672 7.43774414 C16.64424022 10.66006519 19.99822108 13.71739591 23.3125 16.8125 C24.05306641 17.50537109 24.79363281 18.19824219 25.55664062 18.91210938 C27.37038284 20.60883597 29.18485208 22.30477751 31 24 C30.34 24.66 29.68 25.32 29 26 C28.16339844 25.11699219 27.32679688 24.23398438 26.46484375 23.32421875 C19.08349551 15.66984414 11.51603953 9.08775609 2.7890625 3.01171875 C1.86867188 2.34785156 0.94828125 1.68398437 0 1 C0 0.67 0 0.34 0 0 Z " fill="#C2353C" transform="translate(379,172)"/>
<path d="M0 0 C0.33 0 0.66 0 1 0 C1 11.22 1 22.44 1 34 C0.34 34 -0.32 34 -1 34 C-0.9175 35.11375 -0.835 36.2275 -0.75 37.375 C-0.71143319 42.75507006 -2.78855221 47.18220303 -5 52 C-6.30048067 49.39903867 -5.7802842 48.50209431 -5.0390625 45.72265625 C-1.20358594 30.42074599 -0.09279825 15.75204744 0 0 Z " fill="#F5C9CA" transform="translate(430,286)"/>
<path d="M0 0 C0.73605469 0.27714844 1.47210938 0.55429687 2.23046875 0.83984375 C3.20628906 1.20207031 4.18210938 1.56429688 5.1875 1.9375 C6.15042969 2.29714844 7.11335937 2.65679687 8.10546875 3.02734375 C13.51823845 4.84620968 18.68239128 5.19175334 24.36328125 5.31640625 C25.15526413 5.33718735 25.94724701 5.35796844 26.76322937 5.37937927 C29.27956928 5.44447804 31.79600872 5.50357423 34.3125 5.5625 C36.02409861 5.605723 37.73568735 5.64933848 39.44726562 5.69335938 C43.63140984 5.80011847 47.81565362 5.90149635 52 6 C52 6.33 52 6.66 52 7 C46.50483085 7.07480335 41.00996565 7.12890749 35.5144043 7.16479492 C33.64944284 7.17977389 31.78451595 7.20016424 29.91967773 7.22631836 C10.03989442 7.49791465 10.03989442 7.49791465 1 4 C0.67 2.68 0.34 1.36 0 0 Z " fill="#C82129" transform="translate(220,331)"/>
<path d="M0 0 C1.423125 0.7425 1.423125 0.7425 2.875 1.5 C-0.125 2.5 -0.125 2.5 -3.125 1.5 C-10.35746069 0.81148393 -10.35746069 0.81148393 -17 3.1875 C-17.70125 3.950625 -18.4025 4.71375 -19.125 5.5 C-20.77240076 7.1857124 -22.43566078 8.8563186 -24.125 10.5 C-24.785 10.5 -25.445 10.5 -26.125 10.5 C-24.75023555 5.30644539 -21.38158407 2.49572509 -17.125 -0.5 C-11.52691786 -2.36602738 -5.45237362 -2.35898614 0 0 Z " fill="#C6363E" transform="translate(254.125,275.5)"/>
<path d="M0 0 C7.09530571 -0.12150157 14.06125253 0.21859073 21.125 0.875 C22.06214844 0.95363281 22.99929688 1.03226563 23.96484375 1.11328125 C29.499198 1.61640436 34.64746153 2.50128923 40 4 C40 4.33 40 4.66 40 5 C35.71 5 31.42 5 27 5 C27 4.34 27 3.68 27 3 C26.08734375 3.03480469 26.08734375 3.03480469 25.15625 3.0703125 C16.63808536 3.24568648 8.41332763 2.18229949 0 1 C0 0.67 0 0.34 0 0 Z " fill="#C43D44" transform="translate(308,48)"/>
<path d="M0 0 C6.66267698 -0.12951208 13.2867637 0.06203797 19.9375 0.4375 C20.670896 0.47673584 21.40429199 0.51597168 22.15991211 0.55639648 C25.53855263 0.75935644 28.75638956 0.99219415 32 2 C32 2.66 32 3.32 32 4 C9.19872014 3.21889502 9.19872014 3.21889502 0 1 C0 0.67 0 0.34 0 0 Z " fill="#C73C43" transform="translate(256,548)"/>
<path d="M0 0 C1.44791044 0.01005493 2.89582768 0.01917632 4.34375 0.02734375 C7.85431037 0.04914656 11.36461028 0.08353619 14.875 0.125 C14.875 0.455 14.875 0.785 14.875 1.125 C14.0185791 1.18034912 13.1621582 1.23569824 12.27978516 1.29272461 C9.05540914 1.50194982 5.83114064 1.71274858 2.60693359 1.92456055 C1.22025501 2.01534541 -0.16646297 2.10553084 -1.55322266 2.19506836 C-9.42536498 2.70377359 -17.28291929 3.25664442 -25.125 4.125 C-25.455 3.465 -25.785 2.805 -26.125 2.125 C-17.44526399 -0.19465226 -8.89826831 -0.10831608 0 0 Z " fill="#C33B41" transform="translate(299.125,165.875)"/>
<path d="M0 0 C0.66 0 1.32 0 2 0 C2.33 1.32 2.66 2.64 3 4 C3.66 4 4.32 4 5 4 C6.1650499 6.3300998 6.1209358 7.67247077 6.11352539 10.26611328 C6.11344986 11.14687531 6.11337433 12.02763733 6.11329651 12.93508911 C6.10813522 13.88721283 6.10297394 14.83933655 6.09765625 15.8203125 C6.0962413 16.79410858 6.09482635 17.76790466 6.09336853 18.77120972 C6.08775973 21.88917073 6.07520573 25.0070606 6.0625 28.125 C6.05748613 30.23567605 6.05292303 32.34635322 6.04882812 34.45703125 C6.03778745 39.63804521 6.02104073 44.81901752 6 50 C5.67 50 5.34 50 5 50 C4.9906543 48.84064941 4.98130859 47.68129883 4.97167969 46.48681641 C4.93150365 42.14399202 4.86567094 37.80185566 4.79248047 33.45947266 C4.76442984 31.58781846 4.74313698 29.71604931 4.72900391 27.84423828 C4.85682904 13.39975811 4.85682904 13.39975811 0 0 Z " fill="#B12228" transform="translate(386,262)"/>
<path d="M0 0 C1.18904232 3.56712695 0.78762907 4.01581686 -0.8125 7.25 C-2.63025753 11.10489959 -3.94425502 14.85823123 -5 19 C-5.20625 19.804375 -5.4125 20.60875 -5.625 21.4375 C-5.74875 21.953125 -5.8725 22.46875 -6 23 C-6.66 23 -7.32 23 -8 23 C-8 24.32 -8 25.64 -8 27 C-8.99 27 -9.98 27 -11 27 C-8.7384246 17.41186264 -4.29793681 8.80005115 0 0 Z " fill="#C73B42" transform="translate(73,189)"/>
<path d="M0 0 C7.31110994 -0.3689719 13.21256822 0.18447274 20 3 C19.67 3.66 19.34 4.32 19 5 C18.03513672 4.75443359 18.03513672 4.75443359 17.05078125 4.50390625 C13.07159829 3.84665324 9.2118563 3.893647 5.1875 3.9375 C4.39923828 3.94201172 3.61097656 3.94652344 2.79882812 3.95117188 C0.86585239 3.96288688 -1.06708393 3.98082002 -3 4 C-3 3.34 -3 2.68 -3 2 C-2.01 2 -1.02 2 0 2 C0 1.34 0 0.68 0 0 Z " fill="#CA2830" transform="translate(286,403)"/>
<path d="M0 0 C0.66 0.33 1.32 0.66 2 1 C1.69707031 1.4640625 1.39414063 1.928125 1.08203125 2.40625 C-1.98665377 7.46721975 -4.00583792 12.56275501 -5.75 18.1875 C-6.06553833 19.20263672 -6.06553833 19.20263672 -6.38745117 20.23828125 C-7.5545322 24.13332469 -8.4242211 27.97580617 -9 32 C-9.33 32 -9.66 32 -10 32 C-10.65720455 23.94924431 -8.22928846 16.64327471 -6 9 C-5.34 9 -4.68 9 -4 9 C-3.855625 8.236875 -3.71125 7.47375 -3.5625 6.6875 C-3 4 -3 4 -2 1 C-1.34 0.67 -0.68 0.34 0 0 Z " fill="#C0353B" transform="translate(141,256)"/>
<path d="M0 0 C5.3049931 5.3049931 8.97017692 16.56552377 10 24 C9.34 24.99 8.68 25.98 8 27 C6.68373308 23.38026598 6 20.90432869 6 17 C5.34 17 4.68 17 4 17 C3.69255859 15.82630859 3.69255859 15.82630859 3.37890625 14.62890625 C3.10949219 13.61699219 2.84007812 12.60507813 2.5625 11.5625 C2.16224609 10.04849609 2.16224609 10.04849609 1.75390625 8.50390625 C1.24021923 6.08247999 1.24021923 6.08247999 0 5 C-0.04063832 3.33382885 -0.042721 1.66611905 0 0 Z " fill="#C83940" transform="translate(529,195)"/>
<path d="M0 0 C8.4287322 3.82126905 14.67223924 12.71510263 20 20 C20 20.66 20 21.32 20 22 C19.34 22 18.68 22 18 22 C16.9140625 20.671875 16.9140625 20.671875 15.625 18.75 C12.22040008 14.00058312 8.17510563 10.06045205 3.96337891 6.03808594 C2.60792481 4.72663177 1.29956541 3.36685682 0 2 C0 1.34 0 0.68 0 0 Z " fill="#C43D44" transform="translate(386,199)"/>
<path d="M0 0 C0.33 0 0.66 0 1 0 C1 3.3 1 6.6 1 10 C-3.98844309 9.3900874 -8.60155346 8.36525565 -13.4375 6.9375 C-14.67371094 6.57527344 -15.90992188 6.21304688 -17.18359375 5.83984375 C-18.11300781 5.56269531 -19.04242188 5.28554688 -20 5 C-16.52782228 3.82895893 -14.0545777 4.19045276 -10.5 4.9375 C-7.15370576 5.63158026 -4.45239821 6 -1 6 C-0.67 4.02 -0.34 2.04 0 0 Z " fill="#C54249" transform="translate(497,526)"/>
<path d="M0 0 C0.99 0.33 1.98 0.66 3 1 C2.67 1.33 2.34 1.66 2 2 C1.38769891 10.95040126 2.37235208 20.06722508 3 29 C0.55312961 26.55312961 0.03963289 24.8880324 -0.11352539 21.45629883 C-0.10828857 20.46654053 -0.10305176 19.47678223 -0.09765625 18.45703125 C-0.09443359 17.38388672 -0.09121094 16.31074219 -0.08789062 15.20507812 C-0.07951172 14.08552734 -0.07113281 12.96597656 -0.0625 11.8125 C-0.05798828 10.68134766 -0.05347656 9.55019531 -0.04882812 8.38476562 C-0.03703498 5.58979073 -0.0205765 2.7949218 0 0 Z " fill="#C63E45" transform="translate(491,461)"/>
<path d="M0 0 C-2.83636599 1.89091066 -4.20913229 2.3902577 -7.4375 3 C-9.87861524 3.46261406 -11.81102955 3.90131137 -14.01953125 5.0546875 C-16.28126902 6.13425464 -17.76338708 6.2078871 -20.25 6.125 C-22.10625 6.063125 -22.10625 6.063125 -24 6 C-20.32798686 3.55199124 -16.76419546 2.55078304 -12.5625 1.3125 C-11.79873047 1.07466797 -11.03496094 0.83683594 -10.24804688 0.59179688 C-9.13719727 0.26211914 -9.13719727 0.26211914 -8.00390625 -0.07421875 C-6.99565796 -0.37718872 -6.99565796 -0.37718872 -5.96704102 -0.6862793 C-3.70038715 -1.04778485 -2.16955474 -0.6917026 0 0 Z " fill="#C83C42" transform="translate(238,57)"/>
<path d="M0 0 C0 0.66 0 1.32 0 2 C-4.56746512 4.25169623 -8.82277227 4.42423979 -13.8125 4.625 C-14.60076172 4.66367187 -15.38902344 4.70234375 -16.20117188 4.7421875 C-18.1337538 4.83588844 -20.06684376 4.91900779 -22 5 C-18.47773428 2.97469721 -14.95941784 2.20547112 -11 1.375 C-9.783125 1.11460938 -8.56625 0.85421875 -7.3125 0.5859375 C-4 0 -4 0 0 0 Z " fill="#C73940" transform="translate(260,51)"/>
<path d="M0 0 C3.52076232 -0.05855176 7.0413976 -0.0937806 10.5625 -0.125 C12.0484668 -0.15013672 12.0484668 -0.15013672 13.56445312 -0.17578125 C20.75993387 -0.22359175 26.61190099 0.42266455 33 4 C29.73013049 5.10063487 28.07552966 4.90081206 24.91015625 3.60546875 C19.73971936 1.74351802 14.89549297 1.45265389 9.4375 1.3125 C8.06754883 1.26125977 8.06754883 1.26125977 6.66992188 1.20898438 C4.44673771 1.12750642 2.22389803 1.05804262 0 1 C0 0.67 0 0.34 0 0 Z " fill="#CB2229" transform="translate(345,248)"/>
<path d="M0 0 C2.97 0 5.94 0 9 0 C9 0.66 9 1.32 9 2 C10.3303125 1.9071875 10.3303125 1.9071875 11.6875 1.8125 C15.34485017 2.01951982 17.04777151 2.916074 20 5 C16.94371936 5.97812873 15.14722553 6.00835683 12.109375 5.00390625 C11.40039062 4.77509766 10.69140625 4.54628906 9.9609375 4.31054688 C9.23132813 4.06369141 8.50171875 3.81683594 7.75 3.5625 C7.00492187 3.31951172 6.25984375 3.07652344 5.4921875 2.82617188 C3.65841765 2.22667019 1.82877996 1.61455513 0 1 C0 0.67 0 0.34 0 0 Z " fill="#C73B41" transform="translate(446,521)"/>
<path d="M0 0 C-3.41743915 3.41743915 -8.32064431 3.66250547 -12.9375 4.6875 C-14.46020508 5.04424805 -14.46020508 5.04424805 -16.01367188 5.40820312 C-16.98755859 5.62798828 -17.96144531 5.84777344 -18.96484375 6.07421875 C-19.8580835 6.27619873 -20.75132324 6.47817871 -21.67163086 6.6862793 C-24 7 -24 7 -27 6 C-27 5.67 -27 5.34 -27 5 C-26.28972656 4.86722656 -25.57945312 4.73445312 -24.84765625 4.59765625 C-23.92855469 4.42105469 -23.00945312 4.24445312 -22.0625 4.0625 C-20.68771484 3.80146484 -20.68771484 3.80146484 -19.28515625 3.53515625 C-17.04710156 3.22285012 -17.04710156 3.22285012 -16 2 C-14.25990151 1.60001092 -12.50709069 1.25462198 -10.75 0.9375 C-9.79609375 0.76089844 -8.8421875 0.58429687 -7.859375 0.40234375 C-5.1915009 0.02694617 -2.68901371 -0.07360439 0 0 Z " fill="#C1353B" transform="translate(372,541)"/>
<path d="M0 0 C0.33 0.66 0.66 1.32 1 2 C-1.23815621 8.59667093 -1.23815621 8.59667093 -4.125 10.125 C-4.74375 10.41375 -5.3625 10.7025 -6 11 C-6.81171228 13.55519921 -6.81171228 13.55519921 -7 16 C-8.32 16.33 -9.64 16.66 -11 17 C-9.24933204 13.11390189 -6.81675994 9.72187742 -4.375 6.25 C-3.95476562 5.64800781 -3.53453125 5.04601562 -3.1015625 4.42578125 C-2.07006863 2.94886957 -1.03535421 1.47420806 0 0 Z " fill="#C6363E" transform="translate(425,372)"/>
<path d="M0 0 C0.33 0 0.66 0 1 0 C1.08636719 0.59167969 1.17273438 1.18335938 1.26171875 1.79296875 C2.24600143 7.32843005 3.33808277 10.47766254 8 14 C10.30531063 15.18135213 12.5638922 16.09243043 15 17 C11.23375329 18.25541557 9.62811066 17.37061958 6 16 C6 15.34 6 14.68 6 14 C5.360625 13.731875 4.72125 13.46375 4.0625 13.1875 C2 12 2 12 1 9 C0.34 9 -0.32 9 -1 9 C-0.67 6.03 -0.34 3.06 0 0 Z " fill="#BF3439" transform="translate(262,431)"/>
<path d="M0 0 C0.99 0.33 1.98 0.66 3 1 C3 6.94 3 12.88 3 19 C2.34 19.33 1.68 19.66 1 20 C-0.1482685 17.703463 -0.11561175 16.41686833 -0.09765625 13.8671875 C-0.09443359 13.06152344 -0.09121094 12.25585938 -0.08789062 11.42578125 C-0.07951172 10.58402344 -0.07113281 9.74226563 -0.0625 8.875 C-0.05798828 8.02550781 -0.05347656 7.17601562 -0.04882812 6.30078125 C-0.03702874 4.20049091 -0.01909306 2.1002367 0 0 Z " fill="#DB454B" transform="translate(468,288)"/>
<path d="M0 0 C0.66 1.32 1.32 2.64 2 4 C1.01 5.485 1.01 5.485 0 7 C-0.66 7 -1.32 7 -2 7 C-2.2165625 7.8971875 -2.2165625 7.8971875 -2.4375 8.8125 C-2.8872439 10.56150404 -3.42892341 12.28677023 -4 14 C-4.66 14 -5.32 14 -6 14 C-6 14.99 -6 15.98 -6 17 C-6.99 17.33 -7.98 17.66 -9 18 C-7.45614871 13.85967154 -5.48971062 10.06446947 -3.375 6.1875 C-3.05015625 5.59001953 -2.7253125 4.99253906 -2.390625 4.37695312 C-1.59620849 2.91662865 -0.79844624 1.45812509 0 0 Z " fill="#C83C42" transform="translate(83,170)"/>
<path d="M0 0 C0.66 0.33 1.32 0.66 2 1 C-1.75264754 5.96387672 -5.45890328 10.73412126 -10 15 C-10 13.35 -10 11.7 -10 10 C-8.68 9.67 -7.36 9.34 -6 9 C-6 8.01 -6 7.02 -6 6 C-5.34 6 -4.68 6 -4 6 C-4 5.34 -4 4.68 -4 4 C-3.34 4 -2.68 4 -2 4 C-2 3.34 -2 2.68 -2 2 C-1.34 2 -0.68 2 0 2 C0 1.34 0 0.68 0 0 Z " fill="#C82E35" transform="translate(405,370)"/>
<path d="M0 0 C3.9813236 1.32710787 4.33187507 2.98751373 6.15625 6.58007812 C6.5171875 7.31677734 6.878125 8.05347656 7.25 8.8125 C7.81460937 9.90014648 7.81460937 9.90014648 8.390625 11.00976562 C8.74125 11.71423828 9.091875 12.41871094 9.453125 13.14453125 C9.93507324 14.10903198 9.93507324 14.10903198 10.42675781 15.09301758 C11.12470442 17.41484933 10.76842067 18.73466818 10 21 C8.705826 18.43873936 7.41459216 15.87606642 6.125 13.3125 C5.76019531 12.59126953 5.39539063 11.87003906 5.01953125 11.12695312 C3.1820758 7.46874636 1.43861498 3.8388305 0 0 Z " fill="#C13239" transform="translate(426,221)"/>
<path d="M0 0 C0.33 0 0.66 0 1 0 C1 2.64 1 5.28 1 8 C0.01 8.33 -0.98 8.66 -2 9 C-2.33 13.29 -2.66 17.58 -3 22 C-3.66 21.34 -4.32 20.68 -5 20 C-4.73841581 12.93722691 -2.36800109 6.60837513 0 0 Z " fill="#C84047" transform="translate(178,248)"/>
<path d="M0 0 C8.20877337 1.52494999 16.14132068 3.10469709 24 6 C19.77528056 7.30415252 17.2259864 6.26779592 13 5 C11.62772605 4.83042242 10.25230699 4.68463854 8.875 4.5625 C5.08925585 4.01295649 3.02835744 3.27126808 0 1 C0 0.67 0 0.34 0 0 Z " fill="#C04248" transform="translate(352,53)"/>
<path d="M0 0 C2.40672398 2.40672398 2.79132175 4.11378549 3.6875 7.375 C4.09548828 8.80972656 4.09548828 8.80972656 4.51171875 10.2734375 C4.9947433 12.97064661 4.9004538 14.44972144 4 17 C4 16.34 4 15.68 4 15 C3.34 15 2.68 15 2 15 C0.73694665 9.92523206 -0.27036084 5.27203646 0 0 Z " fill="#C8393F" transform="translate(423,255)"/>
<path d="M0 0 C0.33 0.66 0.66 1.32 1 2 C-0.38070492 4.76140983 -2.53255535 5.41996369 -5.15625 6.85546875 C-7.8357799 8.518821 -9.84075468 10.7207966 -12 13 C-12.99 13.66 -13.98 14.32 -15 15 C-15.66 14.34 -16.32 13.68 -17 13 C-11.39 8.71 -5.78 4.42 0 0 Z " fill="#C4383D" transform="translate(155,93)"/>
<path d="M0 0 C4.16961775 1.38987258 5.50277277 4.32338851 7.75 7.875 C8.17410156 8.51308594 8.59820312 9.15117187 9.03515625 9.80859375 C10.11047152 11.48636578 11.06436478 13.24050898 12 15 C11.67 15.99 11.34 16.98 11 18 C9.15912001 15.38021769 7.32861565 12.75335419 5.5 10.125 C4.97535156 9.37863281 4.45070313 8.63226563 3.91015625 7.86328125 C3.16572266 6.79013672 3.16572266 6.79013672 2.40625 5.6953125 C1.94541016 5.03547363 1.48457031 4.37563477 1.00976562 3.69580078 C0 2 0 2 0 0 Z " fill="#C03239" transform="translate(83,428)"/>
<path d="M0 0 C0.66 0.33 1.32 0.66 2 1 C1.40165275 5.14298667 -0.00664285 8.18194377 -2.0625 11.8125 C-2.61035156 12.78832031 -3.15820312 13.76414062 -3.72265625 14.76953125 C-4.35494141 15.87361328 -4.35494141 15.87361328 -5 17 C-5.33 17 -5.66 17 -6 17 C-6 15.35 -6 13.7 -6 12 C-5.01 11.67 -4.02 11.34 -3 11 C-3.33 9.68 -3.66 8.36 -4 7 C-3.34 7 -2.68 7 -2 7 C-2 6.34 -2 5.68 -2 5 C-1.34 5 -0.68 5 0 5 C0 3.35 0 1.7 0 0 Z " fill="#C7373D" transform="translate(417,347)"/>
<path d="M0 0 C0.33 0.66 0.66 1.32 1 2 C2.093125 1.979375 3.18625 1.95875 4.3125 1.9375 C8 2 8 2 11 3 C11 3.66 11 4.32 11 5 C12.32 5.66 13.64 6.32 15 7 C14.67 7.66 14.34 8.32 14 9 C13.319375 8.525625 12.63875 8.05125 11.9375 7.5625 C8.57419386 5.77350737 5.76011139 5.42567299 2 5 C1.34 4.67 0.68 4.34 0 4 C0 2.68 0 1.36 0 0 Z " fill="#C64046" transform="translate(437,242)"/>
<path d="M0 0 C-2.57005181 2.57005181 -4.25139178 2.57173288 -7.8125 3.125 C-8.85019531 3.29257812 -9.88789063 3.46015625 -10.95703125 3.6328125 C-13.67942337 3.96131681 -16.26250781 4.07084083 -19 4 C-18.67 3.34 -18.34 2.68 -18 2 C-14.98046875 1.11328125 -14.98046875 1.11328125 -11.1875 0.3125 C-9.94355469 0.04050781 -8.69960938 -0.23148437 -7.41796875 -0.51171875 C-4.41522875 -0.94068161 -2.7837478 -1.04478192 0 0 Z " fill="#C4383E" transform="translate(338,439)"/>
<path d="M0 0 C0 3 0 3 -2.08203125 5.41015625 C-2.98308594 6.28542969 -3.88414062 7.16070312 -4.8125 8.0625 C-5.70582031 8.94035156 -6.59914063 9.81820313 -7.51953125 10.72265625 C-10 13 -10 13 -13 15 C-13.99 14.67 -14.98 14.34 -16 14 C-15.34773438 13.49210937 -14.69546875 12.98421875 -14.0234375 12.4609375 C-9.04494408 8.53982321 -4.36533967 4.59509439 0 0 Z " fill="#FEE2E3" transform="translate(394,386)"/>
<path d="M0 0 C3.125 -0.1875 3.125 -0.1875 6 0 C1.335213 4.34307755 -4.21573668 6.52826576 -10 9 C-10 8.34 -10 7.68 -10 7 C-8.68 6.67 -7.36 6.34 -6 6 C-6 5.34 -6 4.68 -6 4 C-5.38125 3.896875 -4.7625 3.79375 -4.125 3.6875 C-1.63473516 3.12474627 -1.63473516 3.12474627 0 0 Z " fill="#C3363B" transform="translate(422,517)"/>
<path d="M0 0 C0.33 0.99 0.66 1.98 1 3 C-2.40431947 5.26954631 -4.16524202 5.36549949 -8.1875 5.625 C-9.27417969 5.69976562 -10.36085938 5.77453125 -11.48046875 5.8515625 C-12.72763672 5.92503906 -12.72763672 5.92503906 -14 6 C-11.09091772 4.06061181 -8.59137621 3.03225043 -5.3125 1.875 C-4.31863281 1.52179688 -3.32476562 1.16859375 -2.30078125 0.8046875 C-1.54152344 0.53914063 -0.78226562 0.27359375 0 0 Z " fill="#C8353D" transform="translate(359,430)"/>
<path d="M0 0 C0.66 0.33 1.32 0.66 2 1 C0.85865673 3.00256574 -0.28818633 5.00199797 -1.4375 7 C-2.39462891 8.670625 -2.39462891 8.670625 -3.37109375 10.375 C-3.90863281 11.24125 -4.44617188 12.1075 -5 13 C-5.33 13 -5.66 13 -6 13 C-6 11.35 -6 9.7 -6 8 C-5.34 8 -4.68 8 -4 8 C-4 6.35 -4 4.7 -4 3 C-2.68 2.67 -1.36 2.34 0 2 C0 1.34 0 0.68 0 0 Z " fill="#C63338" transform="translate(521,418)"/>
<path d="M0 0 C0 3.58912412 -0.66436554 4.10857029 -3 6.6875 C-3.556875 7.31011719 -4.11375 7.93273437 -4.6875 8.57421875 C-5.120625 9.04472656 -5.55375 9.51523437 -6 10 C-7.32 9.67 -8.64 9.34 -10 9 C-6.7 6.03 -3.4 3.06 0 0 Z " fill="#C73339" transform="translate(402,401)"/>
<path d="M0 0 C0.66 0.99 1.32 1.98 2 3 C-1.3 5.97 -4.6 8.94 -8 12 C-8.66 11.67 -9.32 11.34 -10 11 C-6.7 7.37 -3.4 3.74 0 0 Z " fill="#C5333B" transform="translate(413,389)"/>
<path d="M0 0 C7.92 3.96 7.92 3.96 16 8 C15.34 8.66 14.68 9.32 14 10 C13.01 9.67 12.02 9.34 11 9 C11 8.34 11 7.68 11 7 C10.484375 6.9175 9.96875 6.835 9.4375 6.75 C5.95544268 5.67859775 3.12799115 3.86476395 0 2 C0 1.34 0 0.68 0 0 Z " fill="#C3373C" transform="translate(412,74)"/>
<path d="M0 0 C0.66 0.33 1.32 0.66 2 1 C1.16855469 1.70576172 1.16855469 1.70576172 0.3203125 2.42578125 C-0.76636719 3.35970703 -0.76636719 3.35970703 -1.875 4.3125 C-2.59429687 4.92738281 -3.31359375 5.54226562 -4.0546875 6.17578125 C-6.19179331 8.0412324 -6.19179331 8.0412324 -8 11 C-10.625 11.6875 -10.625 11.6875 -13 12 C-8.87675353 7.74790208 -4.48717034 3.86364295 0 0 Z " fill="#C1383E" transform="translate(222,191)"/>
<path d="M0 0 C3.21524305 1.40844718 5.32183868 3.10344786 7.75 5.625 C8.67039062 6.57246094 8.67039062 6.57246094 9.609375 7.5390625 C10.29773438 8.26222656 10.29773438 8.26222656 11 9 C10.34 9.66 9.68 10.32 9 11 C7.49403892 9.54782324 5.99537896 8.08807139 4.5 6.625 C3.6646875 5.81289062 2.829375 5.00078125 1.96875 4.1640625 C0 2 0 2 0 0 Z " fill="#CA4047" transform="translate(399,187)"/>
<path d="M0 0 C4.47207238 1.40550846 6.80049165 3.6364143 10 7 C11.31175986 8.02813611 12.6369893 9.04084432 14 10 C13.67 10.66 13.34 11.32 13 12 C11.20425007 10.56760415 9.41353093 9.1288996 7.625 7.6875 C6.62726563 6.88699219 5.62953125 6.08648437 4.6015625 5.26171875 C2 3 2 3 0 0 Z " fill="#BF393D" transform="translate(128,484)"/>
<path d="M0 0 C0.73605469 0.27714844 1.47210938 0.55429687 2.23046875 0.83984375 C3.20628906 1.20207031 4.18210938 1.56429688 5.1875 1.9375 C6.15042969 2.29714844 7.11335937 2.65679687 8.10546875 3.02734375 C10.7368278 3.91156562 13.26894908 4.52568586 16 5 C16 5.33 16 5.66 16 6 C10.47322267 6.19392201 6.24385089 5.7479503 1 4 C0.67 2.68 0.34 1.36 0 0 Z " fill="#C2343C" transform="translate(220,331)"/>
<path d="M0 0 C-3.41016497 2.86453858 -6.90694544 4.34703566 -11 6 C-11 5.01 -11 4.02 -11 3 C-10.01 3 -9.02 3 -8 3 C-8 2.34 -8 1.68 -8 1 C-3.375 -1.125 -3.375 -1.125 0 0 Z " fill="#C8343B" transform="translate(236,164)"/>
<path d="M0 0 C2.79192205 -0.05380578 5.5828141 -0.09357669 8.375 -0.125 C9.1690625 -0.14175781 9.963125 -0.15851563 10.78125 -0.17578125 C12.85492015 -0.19335473 14.92883241 -0.10335168 17 0 C17.66 0.66 18.32 1.32 19 2 C16 3 16 3 13 2 C10.77425665 1.77548542 8.54418481 1.59217122 6.3125 1.4375 C5.13300781 1.35371094 3.95351563 1.26992188 2.73828125 1.18359375 C1.83464844 1.12300781 0.93101562 1.06242187 0 1 C0 0.67 0 0.34 0 0 Z " fill="#D2545C" transform="translate(287,405)"/>
<path d="M0 0 C-1 3 -1 3 -2.7421875 4.203125 C-3.44601563 4.54859375 -4.14984375 4.8940625 -4.875 5.25 C-5.57367188 5.60578125 -6.27234375 5.9615625 -6.9921875 6.328125 C-9 7 -9 7 -12 6 C-10.37829621 4.99466333 -8.75252763 3.99588093 -7.125 3 C-5.76761719 2.1646875 -5.76761719 2.1646875 -4.3828125 1.3125 C-2 0 -2 0 0 0 Z " fill="#C43940" transform="translate(245,178)"/>
<path d="M0 0 C1.93922422 0.45098238 3.87633594 0.91105559 5.8125 1.375 C6.89144531 1.63023437 7.97039062 1.88546875 9.08203125 2.1484375 C12 3 12 3 15 5 C9.76119922 4.44854729 5.02649303 3.57077907 0 2 C0 1.34 0 0.68 0 0 Z " fill="#FAD6D6" transform="translate(440,520)"/>
<path d="M0 0 C3.99231996 2.05011025 6.14080646 3.8684588 8 8 C7.67 8.99 7.34 9.98 7 11 C6.731875 10.360625 6.46375 9.72125 6.1875 9.0625 C5.11332248 6.66868314 5.11332248 6.66868314 2 6 C0.8125 2.9375 0.8125 2.9375 0 0 Z " fill="#C53137" transform="translate(363,277)"/>
<path d="M0 0 C0 0.33 0 0.66 0 1 C-1.76949612 1.50471197 -3.54065223 2.00360685 -5.3125 2.5 C-6.79169922 2.91765625 -6.79169922 2.91765625 -8.30078125 3.34375 C-11 4 -11 4 -14 4 C-14 3.34 -14 2.68 -14 2 C-9.35150485 -0.3992233 -5.08913926 -0.19957409 0 0 Z " fill="#C8373B" transform="translate(240,248)"/>
<path d="M0 0 C-2.70879335 1.35439668 -5.00933268 1.06501451 -8 1 C-8 1.66 -8 2.32 -8 3 C-10.64 2.67 -13.28 2.34 -16 2 C-16 1.67 -16 1.34 -16 1 C-14.0852312 0.63571223 -12.16807707 0.28394694 -10.25 -0.0625 C-9.18265625 -0.25972656 -8.1153125 -0.45695313 -7.015625 -0.66015625 C-4.25228095 -0.97156937 -2.59053383 -0.8991416 0 0 Z " fill="#F7C5C8" transform="translate(352,548)"/>
<path d="M0 0 C0.33 1.32 0.66 2.64 1 4 C-0.4375 6.25 -0.4375 6.25 -2 8 C-3.32 7.67 -4.64 7.34 -6 7 C-4.02 4.69 -2.04 2.38 0 0 Z " fill="#CB333A" transform="translate(204,207)"/>
<path d="M0 0 C3.99500618 1.3697164 6.80009492 3.25722422 10 6 C7.69 5.67 5.38 5.34 3 5 C3 4.34 3 3.68 3 3 C2.01 2.67 1.02 2.34 0 2 C0 1.34 0 0.68 0 0 Z " fill="#C6363D" transform="translate(364,183)"/>
<path d="M0 0 C0.66 0.33 1.32 0.66 2 1 C0.55922954 4.36179774 -1.24750021 6.59156268 -4 9 C-4.66 9 -5.32 9 -6 9 C-4.47291037 5.56404834 -2.40072955 2.88087546 0 0 Z " fill="#FBDBDB" transform="translate(147,251)"/>
<path d="M0 0 C0.66 0.33 1.32 0.66 2 1 C-0.52956528 4.0916909 -3.22454612 4.90931332 -7 6 C-7.66 5.34 -8.32 4.68 -9 4 C-7.54618103 3.30300448 -6.08677047 2.61766134 -4.625 1.9375 C-3.40683594 1.36322266 -3.40683594 1.36322266 -2.1640625 0.77734375 C-1.44992187 0.52082031 -0.73578125 0.26429688 0 0 Z " fill="#C6373C" transform="translate(369,425)"/>
<path d="M0 0 C5.09659478 2.54829739 5.10871914 3.89354167 7 9 C6.01 9.495 6.01 9.495 5 10 C3.35 6.7 1.7 3.4 0 0 Z " fill="#C3383E" transform="translate(77,418)"/>
<path d="M0 0 C1.98 0 3.96 0 6 0 C3.45543849 2.96865509 0.51005335 4.3619751 -3 6 C-3 5.34 -3 4.68 -3 4 C-2.34 4 -1.68 4 -1 4 C-0.67 2.68 -0.34 1.36 0 0 Z " fill="#C7393E" transform="translate(365,405)"/>
<path d="M0 0 C0.66 0.33 1.32 0.66 2 1 C-0.31 3.64 -2.62 6.28 -5 9 C-5.66 8.67 -6.32 8.34 -7 8 C-4.69 5.36 -2.38 2.72 0 0 Z " fill="#FBDDDE" transform="translate(402,377)"/>
<path d="M0 0 C0.66 0 1.32 0 2 0 C2.33 1.32 2.66 2.64 3 4 C3.66 4 4.32 4 5 4 C5.33 5.98 5.66 7.96 6 10 C5.34 10 4.68 10 4 10 C2.68 6.7 1.36 3.4 0 0 Z " fill="#C7303A" transform="translate(386,262)"/>
<path d="M0 0 C-5.29230769 3.07692308 -5.29230769 3.07692308 -8.875 2.6875 C-9.57625 2.460625 -10.2775 2.23375 -11 2 C-6.98764085 -0.6749061 -4.6342454 -1.48957888 0 0 Z " fill="#F8D1D2" transform="translate(365,545)"/>
<path d="M0 0 C0.66 0 1.32 0 2 0 C1.01 2.97 0.02 5.94 -1 9 C-1.66 9 -2.32 9 -3 9 C-2.44271087 5.65626525 -1.64826111 2.96687001 0 0 Z " fill="#C62E37" transform="translate(211,263)"/>
<path d="M0 0 C0 0.99 0 1.98 0 3 C-1.98 3.99 -1.98 3.99 -4 5 C-4 5.99 -4 6.98 -4 8 C-5.32 7.67 -6.64 7.34 -8 7 C-5.36 4.69 -2.72 2.38 0 0 Z " fill="#C2383F" transform="translate(137,107)"/>
<path d="M0 0 C0.33 0 0.66 0 1 0 C1.66 3.3 2.32 6.6 3 10 C2.01 10.495 2.01 10.495 1 11 C1 10.34 1 9.68 1 9 C0.34 9 -0.32 9 -1 9 C-0.67 6.03 -0.34 3.06 0 0 Z " fill="#C54045" transform="translate(262,431)"/>
<path d="M0 0 C-5.29230769 4.06153846 -5.29230769 4.06153846 -8.875 3.75 C-9.57625 3.5025 -10.2775 3.255 -11 3 C-3.71428571 -1.85714286 -3.71428571 -1.85714286 0 0 Z " fill="#F9D4D5" transform="translate(350,418)"/>
<path d="M0 0 C0.33 1.32 0.66 2.64 1 4 C-1.4375 6.75 -1.4375 6.75 -4 9 C-4.66 8.67 -5.32 8.34 -6 8 C-4.02 5.36 -2.04 2.72 0 0 Z " fill="#F9D5D8" transform="translate(409,367)"/>
<path d="M0 0 C0.66 0 1.32 0 2 0 C2.66 2.64 3.32 5.28 4 8 C3.01 8.495 3.01 8.495 2 9 C0.50178941 5.62902617 0 3.79557881 0 0 Z " fill="#C63A3F" transform="translate(133,318)"/>
<path d="M0 0 C0.66 0 1.32 0 2 0 C1.34 3.3 0.68 6.6 0 10 C-0.33 10 -0.66 10 -1 10 C-1.02689216 8.52093108 -1.04634621 7.04172517 -1.0625 5.5625 C-1.07410156 4.73878906 -1.08570313 3.91507813 -1.09765625 3.06640625 C-1 1 -1 1 0 0 Z " fill="#FEE1E1" transform="translate(54,235)"/>
<path d="M0 0 C1.48280196 0.78483659 2.9611498 1.57809334 4.4375 2.375 C5.67306641 3.03628906 5.67306641 3.03628906 6.93359375 3.7109375 C9 5 9 5 10 7 C6.4124787 5.66749209 3.1635377 4.169283 0 2 C0 1.34 0 0.68 0 0 Z " fill="#BD3136" transform="translate(433,86)"/>
<path d="M0 0 C1.48117801 0.28127421 2.95993249 0.57533732 4.4375 0.875 C5.67306641 1.11863281 5.67306641 1.11863281 6.93359375 1.3671875 C7.61550781 1.57601562 8.29742187 1.78484375 9 2 C9.33 2.66 9.66 3.32 10 4 C5.74357648 4.3648363 3.46444495 3.47460354 0 1 C0 0.67 0 0.34 0 0 Z " fill="#C73841" transform="translate(352,53)"/>
<path d="M0 0 C1.32 0.33 2.64 0.66 4 1 C1.37801226 3.15377564 -0.64404172 4.40072174 -4 5 C-4.33 4.34 -4.66 3.68 -5 3 C-4.360625 2.87625 -3.72125 2.7525 -3.0625 2.625 C-2.0415625 2.315625 -2.0415625 2.315625 -1 2 C-0.67 1.34 -0.34 0.68 0 0 Z " fill="#CB363E" transform="translate(407,525)"/>
<path d="M0 0 C0.99 0.33 1.98 0.66 3 1 C1.69593116 3.01920337 0.36176581 5.01924973 -1 7 C-1.33 7 -1.66 7 -2 7 C-2 5.35 -2 3.7 -2 2 C-1.34 2 -0.68 2 0 2 C0 1.34 0 0.68 0 0 Z " fill="#CA333A" transform="translate(503,445)"/>
<path d="M0 0 C1.32 0.33 2.64 0.66 4 1 C1.03 3.475 1.03 3.475 -2 6 C-2 4.68 -2 3.36 -2 2 C-1.34 2 -0.68 2 0 2 C0 1.34 0 0.68 0 0 Z " fill="#C63037" transform="translate(389,387)"/>
<path d="M0 0 C2.9628331 0.39504441 5.38326241 1.59817629 8 3 C4.18510326 4.46726798 1.70988378 3.43336419 -2 2 C-1.34 1.34 -0.68 0.68 0 0 Z " fill="#C93E42" transform="translate(370,249)"/>
</svg>
