<svg width="41" height="40" viewBox="0 0 41 40" fill="none" xmlns="http://www.w3.org/2000/svg"><path d="M18.9353 16.2236L14.4169 20.4266C15.1192 22.2982 15.1985 24.3481 14.6429 26.2688C14.6084 26.4054 14.5469 26.5336 14.462 26.6459C14.3772 26.7581 14.2707 26.8521 14.149 26.9221C14.0272 26.9922 13.8927 27.0369 13.7534 27.0537C13.6141 27.0704 13.4729 27.0589 13.3381 27.0197C13.2034 26.9805 13.0778 26.9144 12.969 26.8255C12.8602 26.7365 12.7703 26.6265 12.7047 26.502C12.639 26.3774 12.599 26.2408 12.587 26.1004C12.575 25.96 12.5912 25.8186 12.6347 25.6846C13.1124 24.0084 12.9637 22.2146 12.2163 20.641C12.1205 20.4386 12.0915 20.2108 12.1336 19.9908C12.1758 19.7708 12.2869 19.57 12.4506 19.4179L17.5087 14.7105C17.6519 14.5773 17.767 14.4165 17.8471 14.2376C17.9272 14.0588 17.9707 13.8656 17.975 13.6696C17.9793 13.4735 17.9443 13.2786 17.8721 13.0964C17.7999 12.9142 17.6919 12.7485 17.5547 12.609C17.2958 12.348 16.9488 12.1941 16.5824 12.1777C16.2159 12.1614 15.8567 12.2838 15.5758 12.5208L7.61011 19.3044C7.50847 19.4113 7.38552 19.4954 7.2493 19.5513C7.11308 19.6072 6.96665 19.6336 6.81959 19.6288C6.67252 19.6239 6.52813 19.588 6.39584 19.5232C6.26355 19.4585 6.14635 19.3665 6.05189 19.2531C5.95743 19.1398 5.88783 19.0077 5.84766 18.8655C5.80748 18.7233 5.79762 18.5742 5.81873 18.4279C5.83983 18.2816 5.89143 18.1414 5.97014 18.0165C6.04885 17.8916 6.15291 17.7848 6.27552 17.7031L14.2245 10.911C14.9079 10.3329 15.7825 10.0336 16.6751 10.0725C17.5676 10.1115 18.4131 10.4857 19.0441 11.1212C19.3759 11.4604 19.6367 11.863 19.8113 12.3051C19.9858 12.7472 20.0705 13.2199 20.0604 13.6954C20.0503 14.1709 19.9455 14.6396 19.7523 15.0738C19.559 15.508 19.2813 15.8989 18.9353 16.2236ZM15.6804 35.4566C15.4735 35.4566 15.2713 35.5182 15.0993 35.6336C14.9273 35.7491 14.7933 35.9132 14.7141 36.1052C14.6349 36.2972 14.6142 36.5085 14.6546 36.7123C14.6949 36.9161 14.7946 37.1033 14.9408 37.2503C15.0871 37.3972 15.2735 37.4973 15.4764 37.5379C15.6793 37.5784 15.8896 37.5576 16.0807 37.4781C16.2718 37.3985 16.4351 37.2639 16.5501 37.0911C16.665 36.9183 16.7263 36.7151 16.7263 36.5073C16.7263 36.2286 16.6161 35.9614 16.42 35.7643C16.2238 35.5673 15.9578 35.4566 15.6804 35.4566ZM11.8356 9.91909C11.913 9.91923 11.9902 9.91077 12.0657 9.89388C13.2933 9.61109 14.4172 8.98758 15.3092 8.09438C16.2013 7.20117 16.8257 6.0742 17.1112 4.84186C17.1723 4.56876 17.1228 4.28249 16.9737 4.04602C16.8246 3.80956 16.5882 3.64227 16.3163 3.58096C16.0445 3.51965 15.7595 3.56934 15.5242 3.71911C15.2888 3.86887 15.1223 4.10643 15.0612 4.37953C14.869 5.22975 14.4413 6.00803 13.8277 6.62455C13.214 7.24107 12.4393 7.67068 11.593 7.86382C11.3575 7.93503 11.1544 8.08733 11.0196 8.29398C10.8848 8.50063 10.8268 8.7484 10.8557 8.99376C10.8847 9.23913 10.9988 9.46639 11.178 9.63561C11.3572 9.80484 11.5901 9.90521 11.8356 9.91909ZM35.5612 12.7771C34.469 13.1447 33.489 13.7881 32.7154 14.6455C31.9418 15.5029 31.4004 16.5456 31.1433 17.6736C31.0822 17.9456 31.1313 18.2308 31.2795 18.4665C31.4278 18.7022 31.6632 18.869 31.934 18.9303C32.068 18.9607 32.2067 18.9642 32.3421 18.9407C32.4776 18.9172 32.607 18.8672 32.7232 18.7934C32.9578 18.6444 33.1239 18.408 33.1849 18.136C33.3613 17.3594 33.7343 16.6418 34.268 16.0527C34.8016 15.4636 35.4776 15.023 36.2306 14.7736C36.4941 14.6844 36.7116 14.4937 36.8352 14.2434C36.9588 13.9932 36.9783 13.7039 36.8895 13.4391C36.8008 13.1744 36.611 12.9559 36.3619 12.8317C36.1127 12.7076 35.8248 12.688 35.5612 12.7771ZM36.2181 7.73353C35.4651 7.48412 34.789 7.04351 34.2554 6.4544C33.7218 5.8653 33.3487 5.14768 33.1723 4.37113C33.1113 4.09914 32.9452 3.86264 32.7107 3.71367C32.4761 3.5647 32.1922 3.51545 31.9214 3.57676C31.6507 3.63807 31.4153 3.80491 31.267 4.04059C31.1187 4.27626 31.0697 4.56147 31.1307 4.83346C31.3871 5.96521 31.9295 7.01149 32.7055 7.87137C33.4816 8.73125 34.4651 9.3757 35.5612 9.74257C35.6917 9.78589 35.8294 9.80298 35.9665 9.79284C36.1035 9.78271 36.2372 9.74555 36.36 9.6835C36.4828 9.62144 36.5922 9.5357 36.682 9.43117C36.7717 9.32664 36.8401 9.20538 36.8833 9.07429C36.9264 8.9432 36.9434 8.80486 36.9333 8.66717C36.9232 8.52948 36.8862 8.39514 36.8245 8.27181C36.7627 8.14848 36.6774 8.03858 36.5733 7.94838C36.4693 7.85819 36.3485 7.78947 36.2181 7.74614V7.73353ZM38.3894 0H9.85674C9.16803 0.00111147 8.50785 0.276457 8.02086 0.765698C7.53386 1.25494 7.25979 1.91817 7.25868 2.61007V7.58643L4.22133 10.6336C3.44547 11.409 2.8304 12.3313 2.41173 13.3471C1.99306 14.3629 1.77911 15.452 1.78225 16.5514V31.6823H1.04593C0.908222 31.6823 0.771872 31.7096 0.644702 31.7626C0.517532 31.8157 0.402045 31.8935 0.304868 31.9915C0.20769 32.0895 0.130736 32.2058 0.0784202 32.3338C0.0261045 32.4618 -0.00054245 32.5989 8.36811e-06 32.7372V38.9492C8.36811e-06 39.2279 0.110203 39.4952 0.306351 39.6922C0.502498 39.8893 0.768532 40 1.04593 40C1.32332 40 1.58935 39.8893 1.7855 39.6922C1.98165 39.4952 2.09184 39.2279 2.09184 38.9492V33.788H19.383V38.9492C19.383 39.2279 19.4932 39.4952 19.6893 39.6922C19.8855 39.8893 20.1515 40 20.4289 40C20.7063 40 20.9723 39.8893 21.1685 39.6922C21.3646 39.4952 21.4748 39.2279 21.4748 38.9492V32.7372C21.4748 32.4585 21.3646 32.1913 21.1685 31.9942C20.9723 31.7972 20.7063 31.6865 20.4289 31.6865H18.9018V30.6651C19.8292 29.9865 20.6085 29.1245 21.192 28.1321C21.7755 27.1397 22.1508 26.0379 22.2948 24.8944C22.3124 24.7564 22.3027 24.6163 22.2664 24.4821C22.2301 24.3478 22.1678 24.2221 22.0831 24.112C21.9984 24.002 21.893 23.9097 21.7728 23.8406C21.6527 23.7715 21.5201 23.7268 21.3828 23.7092C21.2454 23.6915 21.1059 23.7012 20.9723 23.7377C20.8387 23.7742 20.7135 23.8367 20.604 23.9218C20.4944 24.0069 20.4026 24.1128 20.3338 24.2335C20.265 24.3543 20.2205 24.4874 20.203 24.6254C20.0838 25.5606 19.7592 26.4575 19.2527 27.2513C18.7462 28.045 18.0705 28.7158 17.2744 29.2151C17.1308 29.3116 17.0132 29.4423 16.9322 29.5956C16.8512 29.7489 16.8092 29.92 16.81 30.0935V31.6696H3.87409V16.5388C3.87235 15.7157 4.03303 14.9004 4.34684 14.14C4.66065 13.3796 5.12137 12.6893 5.70235 12.1089L7.25868 10.5453V12.6132C7.25868 12.8919 7.36887 13.1592 7.56502 13.3562C7.76117 13.5533 8.0272 13.664 8.3046 13.664C8.58199 13.664 8.84803 13.5533 9.04417 13.3562C9.24032 13.1592 9.35052 12.8919 9.35052 12.6132V2.62268C9.35052 2.4878 9.40385 2.35844 9.49879 2.26307C9.59372 2.16769 9.72248 2.11411 9.85674 2.11411H38.4019C38.5362 2.11411 38.665 2.16769 38.7599 2.26307C38.8548 2.35844 38.9082 2.4878 38.9082 2.62268V19.897C38.9082 20.0319 38.8548 20.1613 38.7599 20.2566C38.665 20.352 38.5362 20.4056 38.4019 20.4056H17.9898C17.7124 20.4056 17.4464 20.5163 17.2502 20.7133C17.0541 20.9104 16.9439 21.1777 16.9439 21.4563C16.9439 21.735 17.0541 22.0023 17.2502 22.1993C17.4464 22.3964 17.7124 22.5071 17.9898 22.5071H38.4019C39.0906 22.506 39.7508 22.2306 40.2378 21.7414C40.7248 21.2522 40.9989 20.5889 41 19.897V2.62268C40.9989 1.93078 40.7248 1.26755 40.2378 0.778307C39.7508 0.289066 39.0906 0.0137205 38.4019 0.012609L38.3894 0ZM37.1636 24.2093C37.0345 24.1617 36.8973 24.1401 36.7599 24.1459C36.6225 24.1516 36.4876 24.1845 36.3628 24.2426C36.2381 24.3008 36.126 24.3831 36.0329 24.4849C35.9399 24.5866 35.8677 24.7058 35.8206 24.8356L35.1429 26.6723C35.0967 26.7987 35.0025 26.9015 34.8809 26.9583C34.7593 27.015 34.6203 27.021 34.4944 26.9749L25.6501 23.7218C25.3894 23.6259 25.1014 23.638 24.8495 23.7555C24.5977 23.8729 24.4026 24.0861 24.3071 24.348C24.2117 24.61 24.2238 24.8993 24.3407 25.1523C24.4576 25.4053 24.6698 25.6013 24.9305 25.6972L33.7832 28.9461C34.1045 29.0661 34.4462 29.121 34.7887 29.1077C35.1313 29.0943 35.4678 29.0131 35.7789 28.8685C36.09 28.724 36.3696 28.519 36.6015 28.2654C36.8334 28.0118 37.013 27.7146 37.1301 27.391L37.7953 25.5585C37.8425 25.4283 37.8636 25.2899 37.8573 25.1515C37.8511 25.0131 37.8176 24.8772 37.7589 24.7518C37.7002 24.6264 37.6174 24.5139 37.5152 24.4208C37.413 24.3277 37.2935 24.2558 37.1636 24.2093ZM31.7499 30.9047L30.4153 32.3253C30.3695 32.3742 30.3144 32.4135 30.2534 32.4409C30.1924 32.4683 30.1265 32.4833 30.0597 32.485C29.9251 32.4876 29.7948 32.4379 29.6957 32.3463L24.5331 27.4582C24.4331 27.3636 24.3155 27.2896 24.1871 27.2406C24.0586 27.1916 23.9218 27.1685 23.7845 27.1726C23.6472 27.1767 23.512 27.2079 23.3867 27.2645C23.2614 27.3211 23.1484 27.4019 23.0541 27.5024C22.9599 27.6028 22.8863 27.7209 22.8375 27.85C22.7887 27.979 22.7657 28.1164 22.7698 28.2544C22.7739 28.3924 22.805 28.5282 22.8613 28.6541C22.9176 28.78 22.9981 28.8935 23.0981 28.9881L28.2649 33.8762C28.7462 34.3341 29.3843 34.5884 30.0471 34.5865H30.1224C30.464 34.5775 30.8004 34.5003 31.1121 34.3596C31.4238 34.2189 31.7046 34.0175 31.9382 33.7669L33.2728 32.3463C33.463 32.1435 33.5653 31.8729 33.5571 31.5943C33.5489 31.3157 33.4308 31.0517 33.2288 30.8606C33.0269 30.6694 32.7576 30.5666 32.4803 30.5749C32.2029 30.5832 31.9402 30.7018 31.7499 30.9047ZM23.2236 13.954C22.9667 13.8644 22.6851 13.8789 22.4387 13.9943C22.1922 14.1098 22.0002 14.3171 21.9033 14.5724C21.8065 14.8277 21.8124 15.1108 21.9199 15.3618C22.0273 15.6128 22.2278 15.8118 22.4789 15.9168C23.3403 16.247 24.2762 16.3298 25.1817 16.156C26.0873 15.9821 26.9269 15.5584 27.6063 14.9323C28.2857 14.3062 28.7783 13.5024 29.0287 12.611C29.2792 11.7196 29.2777 10.7757 29.0244 9.88512C28.7711 8.99451 28.2761 8.19233 27.5946 7.56841C26.9132 6.94448 26.0723 6.52345 25.1662 6.35247C24.2601 6.18148 23.3244 6.26729 22.4641 6.60029C21.6038 6.93329 20.8527 7.50032 20.295 8.23789C20.1286 8.46083 20.0571 8.74107 20.0963 9.01694C20.1356 9.29282 20.2823 9.54174 20.5042 9.70894C20.7261 9.87615 21.005 9.94794 21.2797 9.90853C21.5543 9.86912 21.802 9.72173 21.9685 9.49879C22.2921 9.07255 22.7274 8.74523 23.2258 8.55349C23.7241 8.36176 24.2657 8.31317 24.79 8.41318C25.3142 8.51319 25.8004 8.75785 26.1941 9.11975C26.5877 9.48165 26.8734 9.94651 27.0189 10.4623C27.1645 10.978 27.1643 11.5243 27.0183 12.0399C26.8723 12.5556 26.5863 13.0202 26.1923 13.3818C25.7984 13.7433 25.312 13.9876 24.7876 14.0872C24.2633 14.1867 23.7217 14.1377 23.2236 13.9456V13.954ZM30.2689 11.2556C30.2689 11.5343 30.3791 11.8016 30.5752 11.9986C30.7714 12.1957 31.0374 12.3064 31.3148 12.3064H32.8042C33.0816 12.3064 33.3476 12.1957 33.5438 11.9986C33.7399 11.8016 33.8501 11.5343 33.8501 11.2556C33.8501 10.977 33.7399 10.7097 33.5438 10.5127C33.3476 10.3156 33.0816 10.2049 32.8042 10.2049H31.3148C31.0374 10.2049 30.7714 10.3156 30.5752 10.5127C30.3791 10.7097 30.2689 10.977 30.2689 11.2556Z" fill="black"></path></svg>