<?xml version="1.0" encoding="iso-8859-1"?>
<!-- Uploaded to: SVG Repo, www.svgrepo.com, Generator: SVG Repo Mixer Tools -->
<svg fill="#000000" height="800px" width="800px" version="1.1" id="Capa_1" xmlns="http://www.w3.org/2000/svg" xmlns:xlink="http://www.w3.org/1999/xlink" 
	 viewBox="0 0 491.7 491.7" xml:space="preserve">
<g>
	<g id="Icons_13_">
		<g>
			<path d="M152.491,261.671H16.6c-9.176,0-16.6,7.429-16.6,16.596c0,9.165,7.423,16.597,16.6,16.597h135.891
				c9.173,0,16.597-7.432,16.597-16.597C169.087,269.1,161.664,261.671,152.491,261.671z"/>
			<path d="M169.087,195.279H66.392c-9.176,0-16.6,7.433-16.6,16.601c0,9.164,7.424,16.596,16.6,16.596h102.696
				c9.173,0,16.597-7.432,16.597-16.596C185.684,202.711,178.261,195.279,169.087,195.279z"/>
			<path d="M185.684,128.891h-69.5c-9.176,0-16.599,7.431-16.599,16.596c0,9.167,7.423,16.6,16.599,16.6h69.5
				c9.176,0,16.6-7.433,16.6-16.6C202.284,136.322,194.86,128.891,185.684,128.891z"/>
			<path d="M380.136,278.445c-35.658,0-64.654,29.005-64.654,64.663c0,35.651,28.996,64.656,64.654,64.656
				c35.643,0,64.656-29.005,64.656-64.656C444.792,307.45,415.779,278.445,380.136,278.445z M380.136,374.568
				c-17.358,0-31.461-14.108-31.461-31.46c0-17.35,14.103-31.467,31.461-31.467c17.36,0,31.46,14.117,31.46,31.467
				C411.597,360.459,397.496,374.568,380.136,374.568z"/>
			<path d="M448.294,212.031l-10.405-0.089c-4.654-0.04-8.785-2.956-10.375-7.326L386.473,91.262
				c-1.589-4.398-5.769-7.326-10.455-7.326H261.573c-5.317,0-9.888,3.77-10.894,8.989l-45.48,233.657
				c-0.615,3.261,0.227,6.631,2.335,9.19c2.106,2.563,5.252,4.045,8.573,4.045h74.804c1.781-47.83,40.973-86.269,89.225-86.269
				s87.446,38.438,89.228,86.269h11.215c6.146,0,11.121-4.976,11.121-11.108v-72.922C491.7,231.756,472.331,212.226,448.294,212.031
				z M387.301,177.499c-1.215,1.611-3.111,2.568-5.137,2.568H266.905c-1.896,0-3.68-0.825-4.895-2.271
				c-1.215-1.434-1.735-3.338-1.425-5.193l9.61-57.719c0.52-3.085,3.195-5.354,6.323-5.354h88.676c2.836,0,5.347,1.87,6.142,4.603
				l16.988,57.718C388.89,173.788,388.516,175.879,387.301,177.499z"/>
		</g>
	</g>
</g>
</svg>