<svg width="56" height="43" viewBox="0 0 56 43" fill="none" xmlns="http://www.w3.org/2000/svg"><path d="M55.7265 23.6068L44.1401 12.0204C43.8808 11.7594 43.5721 11.5524 43.2321 11.4116C42.8922 11.2707 42.5276 11.1988 42.1596 11.2H26.1333V13.0667H30.8V27.0667H32.6667V13.0667H42.1596C42.2823 13.0666 42.4038 13.0907 42.5172 13.1376C42.6306 13.1845 42.7336 13.2534 42.8204 13.3401L44.4136 14.9333H40.1333C39.6383 14.9333 39.1635 15.13 38.8134 15.4801C38.4633 15.8301 38.2667 16.3049 38.2667 16.8V25.2C38.2667 25.6951 38.4633 26.1699 38.8134 26.5199C39.1635 26.87 39.6383 27.0667 40.1333 27.0667H54.1333V34.5333C54.1333 34.7809 54.035 35.0183 53.86 35.1933C53.6849 35.3683 53.4475 35.4667 53.2 35.4667H51.2587C51.0355 33.9128 50.2596 32.4915 49.0733 31.4634C47.887 30.4353 46.3698 29.8693 44.8 29.8693C43.2302 29.8693 41.713 30.4353 40.5267 31.4634C39.3404 32.4915 38.5645 33.9128 38.3413 35.4667H25.1253C24.9022 33.9128 24.1263 32.4915 22.94 31.4634C21.7537 30.4353 20.2365 29.8693 18.6667 29.8693C17.0969 29.8693 15.5797 30.4353 14.3934 31.4634C13.207 32.4915 12.4312 33.9128 12.208 35.4667H10.2667C10.0191 35.4667 9.78173 35.3683 9.6067 35.1933C9.43167 35.0183 9.33333 34.7809 9.33333 34.5333V26.1333H7.46667V34.5333C7.46667 35.2759 7.76167 35.9881 8.28677 36.5132C8.81187 37.0383 9.52406 37.3333 10.2667 37.3333H12.208C12.4117 38.7525 13.078 40.0648 14.1036 41.0667H0V42.9333H44.8C46.3694 42.9303 47.8854 42.363 49.0711 41.3349C50.2569 40.3068 51.0333 38.8865 51.2587 37.3333H53.2C53.9426 37.3333 54.6548 37.0383 55.1799 36.5132C55.705 35.9881 56 35.2759 56 34.5333V24.2667C55.9999 24.0192 55.9016 23.7818 55.7265 23.6068ZM14 36.4C14 35.477 14.2737 34.5748 14.7865 33.8073C15.2993 33.0399 16.0281 32.4418 16.8808 32.0886C17.7335 31.7354 18.6718 31.6429 19.5771 31.823C20.4823 32.0031 21.3139 32.4475 21.9665 33.1002C22.6191 33.7528 23.0636 34.5843 23.2437 35.4896C23.4237 36.3948 23.3313 37.3331 22.9781 38.1859C22.6249 39.0386 22.0268 39.7674 21.2593 40.2802C20.4919 40.793 19.5896 41.0667 18.6667 41.0667C17.4294 41.0652 16.2433 40.573 15.3685 39.6982C14.4936 38.8233 14.0015 37.6372 14 36.4ZM23.2297 41.0667C24.2553 40.0648 24.9216 38.7525 25.1253 37.3333H38.3413C38.5451 38.7525 39.2114 40.0648 40.2369 41.0667H23.2297ZM44.8 41.0667C43.877 41.0667 42.9748 40.793 42.2073 40.2802C41.4399 39.7674 40.8418 39.0386 40.4886 38.1859C40.1354 37.3331 40.0429 36.3948 40.223 35.4896C40.4031 34.5843 40.8475 33.7528 41.5002 33.1002C42.1528 32.4475 42.9843 32.0031 43.8896 31.823C44.7948 31.6429 45.7331 31.7354 46.5859 32.0886C47.4386 32.4418 48.1674 33.0399 48.6802 33.8073C49.193 34.5748 49.4667 35.477 49.4667 36.4C49.4652 37.6372 48.973 38.8233 48.0982 39.6982C47.2233 40.573 46.0372 41.0652 44.8 41.0667ZM40.1333 25.2V16.8H46.2803L54.1333 24.6531V25.2H40.1333Z" fill="black"></path><path d="M19.6 35.4667H17.7333V37.3333H19.6V35.4667Z" fill="black"></path><path d="M45.7333 35.4667H43.8667V37.3333H45.7333V35.4667Z" fill="black"></path><path d="M4.66667 32.6667H0V34.5333H4.66667V32.6667Z" fill="black"></path><path d="M4.66667 28.9333H1.86667V30.8H4.66667V28.9333Z" fill="black"></path><path d="M4.66665 25.2H2.79999V27.0667H4.66665V25.2Z" fill="black"></path><path d="M12.1333 24.2667C14.5331 24.2667 16.8789 23.5551 18.8743 22.2218C20.8696 20.8886 22.4247 18.9936 23.3431 16.7766C24.2614 14.5595 24.5017 12.1199 24.0335 9.76624C23.5654 7.41261 22.4098 5.25065 20.7129 3.55378C19.016 1.8569 16.8541 0.701311 14.5004 0.233144C12.1468 -0.235023 9.70718 0.00525719 7.49011 0.9236C5.27303 1.84194 3.37806 3.3971 2.04484 5.39242C0.711608 7.38774 0 9.73359 0 12.1333C0.00370531 15.3502 1.28322 18.4342 3.55786 20.7088C5.8325 22.9834 8.91651 24.263 12.1333 24.2667ZM12.1333 1.86667C14.1639 1.86667 16.1488 2.4688 17.8372 3.59692C19.5255 4.72503 20.8414 6.32847 21.6185 8.20445C22.3956 10.0804 22.5989 12.1447 22.2027 14.1363C21.8066 16.1278 20.8288 17.9571 19.393 19.393C17.9571 20.8288 16.1278 21.8066 14.1363 22.2027C12.1447 22.5989 10.0804 22.3956 8.20445 21.6185C6.32846 20.8414 4.72503 19.5255 3.59691 17.8372C2.4688 16.1488 1.86667 14.1639 1.86667 12.1333C1.86988 9.41144 2.95257 6.80193 4.87725 4.87726C6.80193 2.95258 9.41143 1.86988 12.1333 1.86667Z" fill="black"></path><path d="M12.1333 20.5333C12.3809 20.5333 12.6182 20.4349 12.7932 20.2599C13.3943 19.6588 18.6667 14.2707 18.6667 10.2667C18.6667 8.53392 17.9783 6.87214 16.7531 5.64691C15.5279 4.42167 13.8661 3.73334 12.1333 3.73334C10.4006 3.73334 8.73881 4.42167 7.51358 5.64691C6.28834 6.87214 5.60001 8.53392 5.60001 10.2667C5.60001 14.2707 10.8724 19.6588 11.4735 20.2599C11.6485 20.4349 11.8858 20.5333 12.1333 20.5333ZM12.1333 5.6C13.3706 5.60149 14.5567 6.09363 15.4315 6.96847C16.3064 7.84332 16.7985 9.02945 16.8 10.2667C16.8 12.6616 13.8628 16.3623 12.1333 18.2476C10.4039 16.3623 7.46667 12.6616 7.46667 10.2667C7.46815 9.02945 7.9603 7.84332 8.83514 6.96847C9.70999 6.09363 10.8961 5.60149 12.1333 5.6Z" fill="#F42020"></path><path d="M14.9333 10.2667C14.9333 9.71288 14.7691 9.17153 14.4615 8.71107C14.1538 8.25062 13.7165 7.89173 13.2049 7.67981C12.6932 7.46788 12.1302 7.41243 11.5871 7.52047C11.0439 7.62851 10.545 7.89518 10.1534 8.28677C9.76186 8.67836 9.49518 9.17727 9.38715 9.72042C9.27911 10.2636 9.33456 10.8265 9.54648 11.3382C9.75841 11.8498 10.1173 12.2871 10.5777 12.5948C11.0382 12.9025 11.5796 13.0667 12.1333 13.0667C12.876 13.0667 13.5881 12.7717 14.1132 12.2466C14.6383 11.7215 14.9333 11.0093 14.9333 10.2667ZM11.2 10.2667C11.2 10.0821 11.2548 9.90162 11.3573 9.74814C11.4599 9.59465 11.6056 9.47502 11.7762 9.40438C11.9467 9.33374 12.1344 9.31526 12.3154 9.35127C12.4965 9.38728 12.6628 9.47617 12.7933 9.6067C12.9238 9.73723 13.0127 9.90353 13.0487 10.0846C13.0848 10.2656 13.0663 10.4533 12.9956 10.6238C12.925 10.7944 12.8054 10.9402 12.6519 11.0427C12.4984 11.1453 12.3179 11.2 12.1333 11.2C11.8858 11.2 11.6484 11.1017 11.4734 10.9266C11.2983 10.7516 11.2 10.5142 11.2 10.2667Z" fill="#F42020"></path><path d="M39.2 28.9333H35.4667V30.8H39.2V28.9333Z" fill="black"></path></svg>