<svg width="56" height="39" viewBox="0 0 56 39" fill="none" xmlns="http://www.w3.org/2000/svg"><path d="M27.5358 18.2364C22.5238 18.2364 18.4176 14.1302 18.4176 9.11822C18.4176 4.10622 22.5238 0 27.5358 0C32.5478 0 36.654 4.10622 36.654 9.11822C36.654 14.1302 32.5478 18.2364 27.5358 18.2364ZM27.5358 3.01928C24.1542 3.01928 21.4369 5.73663 21.4369 9.11822C21.4369 12.4998 24.1542 15.2172 27.5358 15.2172C30.9174 15.2172 33.6348 12.4998 33.6348 9.11822C33.6348 5.73663 30.9174 3.01928 27.5358 3.01928Z" fill="#F42020"></path><path d="M45.108 18.9611C41.4849 18.9611 38.526 16.0022 38.526 12.379C38.526 8.75589 41.4849 5.797 45.108 5.797C48.7312 5.797 51.6901 8.75589 51.6901 12.379C51.6901 16.0022 48.7312 18.9611 45.108 18.9611ZM45.108 8.81627C43.1153 8.81627 41.5453 10.3863 41.5453 12.379C41.5453 14.3717 43.1153 15.9418 45.108 15.9418C47.1007 15.9418 48.6708 14.3717 48.6708 12.379C48.6708 10.3863 47.1007 8.81627 45.108 8.81627Z" fill="black"></path><path d="M9.96359 18.9611C6.34045 18.9611 3.38156 16.0022 3.38156 12.379C3.38156 8.75589 6.34045 5.797 9.96359 5.797C13.5867 5.797 16.5456 8.75589 16.5456 12.379C16.5456 16.0022 13.5867 18.9611 9.96359 18.9611ZM9.96359 8.81627C7.97086 8.81627 6.40084 10.3863 6.40084 12.379C6.40084 14.3717 7.97086 15.9418 9.96359 15.9418C11.9563 15.9418 13.5263 14.3717 13.5263 12.379C13.5263 10.3863 11.9563 8.81627 9.96359 8.81627Z" fill="black"></path><path d="M45.1684 32.3063C42.753 32.3063 41.1226 32.1855 39.9149 32.0044L38.6468 31.7628V30.2532C38.6468 27.8378 37.8617 25.4223 36.4125 23.2485L35.9294 22.5238L36.3521 21.7388C38.1033 18.2365 41.5453 16.0022 45.108 16.0022C50.4823 16.0022 55.0716 20.833 55.132 26.5697C55.132 32.3063 49.8181 32.3063 45.1684 32.3063ZM41.6057 29.1662C42.5114 29.2266 43.6588 29.287 45.1684 29.287C51.2673 29.287 52.1127 28.6832 52.1127 26.5697C52.0524 22.5842 48.7915 19.0215 45.108 19.0215C42.8737 19.0215 40.7603 20.2896 39.4318 22.3427C40.6999 24.4562 41.4245 26.8112 41.6057 29.1662Z" fill="black"></path><path d="M9.96361 32.3063C5.31393 32.3063 0 32.3063 0 26.5697C0 20.833 4.5893 16.0022 9.96361 16.0022C13.5264 16.0022 17.0287 18.2365 18.7195 21.7388L19.1422 22.5238L18.6591 23.2485C17.6326 24.7581 16.4249 27.1735 16.4853 30.1928V31.7024L15.2172 31.944C14.0094 32.1855 12.379 32.3063 9.96361 32.3063ZM9.96361 19.0215C6.2801 19.0215 3.01928 22.5238 3.01928 26.5697C3.01928 28.6832 3.86467 29.287 9.96361 29.287C11.4733 29.287 12.5602 29.2266 13.466 29.1662C13.5867 26.8112 14.3114 24.5166 15.6399 22.3427C14.3114 20.2896 12.1979 19.0215 9.96361 19.0215Z" fill="black"></path><path d="M27.5358 38.0429C20.5915 38.0429 13.4056 38.0429 13.4056 30.2531C13.4056 22.1011 19.8668 15.2171 27.5358 15.2171C35.2048 15.2171 41.666 22.1011 41.666 30.2531C41.666 38.0429 34.4801 38.0429 27.5358 38.0429ZM27.5358 18.2364C21.618 18.2364 16.4249 23.8523 16.4249 30.2531C16.4249 34.1178 18.478 35.0236 27.5358 35.0236C36.5936 35.0236 38.6467 34.1178 38.6467 30.2531C38.6467 23.8523 33.4536 18.2364 27.5358 18.2364Z" fill="#F42020"></path></svg>