<svg width="40" height="40" viewBox="0 0 40 40" fill="none" xmlns="http://www.w3.org/2000/svg"><g clip-path="url(#clip0)"><path d="M38.8281 2.42188H10.625C9.97781 2.42188 9.45312 2.94656 9.45312 3.59375V18.9049C7.88492 19.1737 6.43883 19.9735 5.3793 21.1719H4.76562V20C4.76562 19.3528 4.24094 18.8281 3.59375 18.8281H1.17188C0.524687 18.8281 0 19.3528 0 20C0 20.6472 0.524687 21.1719 1.17188 21.1719H2.42188V35.2344H1.17188C0.524687 35.2344 0 35.7591 0 36.4062C0 37.0534 0.524687 37.5781 1.17188 37.5781H3.59375C4.24094 37.5781 4.76562 37.0534 4.76562 36.4062V35.2344H5.75508C13.2288 37.5998 12.9463 37.5781 13.2812 37.5781H29.375C31.7994 37.5781 33.4977 35.1705 32.6891 32.8906H38.8281C39.4753 32.8906 40 32.3659 40 31.7188V3.59375C40 2.94656 39.4753 2.42188 38.8281 2.42188ZM22.3438 4.76562H27.0312V10.625H22.3438V4.76562ZM30.5469 34.0625C30.5469 34.7087 30.0212 35.2344 29.375 35.2344H13.4637C5.99008 32.869 6.2725 32.8906 5.9375 32.8906H4.76562V23.5156H5.9375C6.30969 23.5156 6.65977 23.3388 6.88062 23.0393C8.73664 20.5227 12.5119 20.5207 14.3693 23.0393C14.5902 23.3388 14.9403 23.5156 15.3125 23.5156H21.1719C21.818 23.5156 22.3438 24.0413 22.3438 24.6875C22.3438 25.3337 21.818 25.8594 21.1719 25.8594H14.1406C13.4934 25.8594 12.9688 26.3841 12.9688 27.0312C12.9688 30.2621 15.5973 32.8906 18.8281 32.8906H29.375C30.0212 32.8906 30.5469 33.4163 30.5469 34.0625ZM37.6562 30.5469C36.9458 30.5469 19.7934 30.5469 18.8281 30.5469C17.3003 30.5469 15.997 29.5673 15.5133 28.2031H21.1719C23.1104 28.2031 24.6875 26.626 24.6875 24.6875C24.6875 22.749 23.1104 21.1719 21.1719 21.1719H15.8707C14.8113 19.9735 13.3651 19.1737 11.7969 18.9049V4.76562H20V11.7969C20 12.4441 20.5247 12.9688 21.1719 12.9688H28.2031C28.8503 12.9688 29.375 12.4441 29.375 11.7969V4.76562H37.6562V30.5469Z" fill="black"></path></g><defs><clipPath id="clip0"><rect width="40" height="40" fill="white"></rect></clipPath></defs></svg>