<svg width="40" height="40" viewBox="0 0 40 40" fill="none" xmlns="http://www.w3.org/2000/svg"><path d="M39.3332 16.0001H32.6666V17.3335H38.6665V38.6667H1.33345V17.3335H7.33341V16.0001H0.666818C0.298853 16.0001 0.000183105 16.2981 0.000183105 16.6667V39.3333C0.000183105 39.702 0.298853 39.9999 0.666818 39.9999H39.3332C39.7011 39.9999 39.9998 39.702 39.9998 39.3333V16.6668C39.9999 16.2982 39.7012 16.0001 39.3332 16.0001Z" fill="black"></path><path d="M39.6158 16.0635C39.3818 15.9535 39.1051 15.9895 38.9065 16.1548L23.6786 28.8454C23.5165 28.9807 23.4279 29.1854 23.4399 29.3961C23.4519 29.6067 23.5633 29.7995 23.7399 29.9154L38.9677 39.8913C39.0784 39.9634 39.2057 40 39.3331 40C39.4417 40 39.551 39.9734 39.6497 39.92C39.8657 39.8034 39.9997 39.578 39.9997 39.3334V16.6668C39.9998 16.4088 39.8505 16.1728 39.6158 16.0635ZM38.6665 38.0999L25.2239 29.2927L38.6665 18.0901V38.0999Z" fill="black"></path><path d="M16.3214 28.8447L1.09346 16.1548C0.894786 15.9895 0.618147 15.9535 0.384164 16.0635C0.149479 16.1728 0.000183105 16.4082 0.000183105 16.6668V39.3333C0.000183105 39.5786 0.13487 39.804 0.35018 39.9199C0.448851 39.9733 0.558147 39.9999 0.666818 39.9999C0.794161 39.9999 0.921504 39.9639 1.03213 39.8913L16.26 29.9147C16.4366 29.7987 16.5479 29.606 16.56 29.3954C16.572 29.1847 16.4833 28.98 16.3214 28.8447ZM1.33345 38.0999V18.0901L14.776 29.2927L1.33345 38.0999Z" fill="black"></path><path d="M39.3331 16.0001H32.6666C32.2986 16.0001 31.9999 16.2981 31.9999 16.6667V21.9101L23.6787 28.8453C23.5166 28.9806 23.428 29.1853 23.44 29.396C23.452 29.6066 23.5633 29.7994 23.74 29.9153L38.9678 39.8913C39.0785 39.9633 39.2058 39.9999 39.3331 39.9999C39.4418 39.9999 39.5511 39.9733 39.6498 39.9199C39.8658 39.8033 39.9998 39.5779 39.9998 39.3333V16.6668C39.9999 16.2982 39.7012 16.0001 39.3331 16.0001ZM38.6665 38.0999L25.224 29.2927L33.0932 22.7347C33.2452 22.6074 33.3332 22.4201 33.3332 22.2221V17.3335H38.6665V38.0999Z" fill="black"></path><path d="M16.3214 28.844L8.00012 21.9094V16.6667C8.00012 16.2981 7.70145 16.0001 7.33349 16.0001H0.666818C0.298853 16.0001 0.000183105 16.2981 0.000183105 16.6667V39.3333C0.000183105 39.5786 0.13487 39.804 0.35018 39.9199C0.448851 39.9733 0.558147 39.9999 0.666818 39.9999C0.794161 39.9999 0.921504 39.9639 1.03213 39.8913L16.26 29.914C16.4366 29.798 16.5479 29.6053 16.56 29.3947C16.572 29.184 16.4833 28.9794 16.3214 28.844ZM1.33345 38.0999V17.3335H6.66677V22.2221C6.66677 22.4201 6.75474 22.6081 6.90677 22.7347L14.776 29.2927L1.33345 38.0999Z" fill="black"></path><path d="M7.61672 10.5469C7.38274 10.4376 7.10743 10.4722 6.90805 10.6369L0.241467 16.1535C0.0254535 16.3321 -0.055874 16.6288 0.0394377 16.8928C0.134749 17.1567 0.385451 17.3335 0.666776 17.3335H7.33336C7.70133 17.3335 8 17.0355 8 16.6668V11.1502C8.00008 10.8915 7.8507 10.6569 7.61672 10.5469ZM6.66673 16.0001H2.51809L6.66673 12.5675V16.0001Z" fill="black"></path><path d="M25.2579 4.15356L20.4246 0.153591C20.178 -0.0510952 19.8212 -0.0510952 19.5746 0.153591L14.7413 4.15356C14.5253 4.33223 14.4439 4.62887 14.5393 4.89293C14.6346 5.15691 14.8853 5.33363 15.1666 5.33363H24.8332C25.1145 5.33363 25.3645 5.15699 25.4598 4.89293C25.5553 4.62887 25.4746 4.33286 25.2579 4.15356ZM17.018 4.0002L20 1.53225L22.982 4.0002H17.018Z" fill="black"></path><path d="M39.7584 16.1535L35.2985 12.4622C35.0764 12.2788 34.7625 12.2588 34.5185 12.4115C33.8958 12.8028 33.2285 13.0728 32.5345 13.2128C32.2232 13.2754 31.9998 13.5488 31.9998 13.8661V16.6668C31.9998 17.0355 32.2985 17.3335 32.6665 17.3335H39.333C39.6144 17.3335 39.8651 17.1568 39.9604 16.8928C40.0558 16.6288 39.9751 16.3328 39.7584 16.1535ZM33.3332 16.0001V14.3894C33.8405 14.2447 34.3339 14.0434 34.8065 13.7861L37.4818 16H33.3332V16.0001Z" fill="black"></path><path d="M31.3332 0.000228882C27.2899 0.000228882 23.9999 3.2902 23.9999 7.33353C23.9999 11.3769 27.2899 14.6668 31.3332 14.6668C35.3771 14.6668 38.6665 11.3769 38.6665 7.33353C38.6665 3.2902 35.3765 0.000228882 31.3332 0.000228882ZM31.3332 13.3335C28.0245 13.3335 25.3332 10.6422 25.3332 7.33353C25.3332 4.02488 28.0245 1.33358 31.3332 1.33358C34.6418 1.33358 37.3331 4.02488 37.3331 7.33353C37.3331 10.6422 34.6418 13.3335 31.3332 13.3335Z" fill="black"></path><path d="M34.4265 4.82152C34.1439 4.58684 33.7239 4.62356 33.4879 4.90683L30.6219 8.3461L29.1379 6.86213C28.8779 6.60143 28.4553 6.60143 28.1953 6.86213C27.9346 7.12283 27.9346 7.54416 28.1953 7.80478L30.1952 9.80477C30.3206 9.93078 30.4899 10.0001 30.6666 10.0001C30.6766 10.0001 30.6866 10.0001 30.6966 9.99937C30.8839 9.9914 31.0586 9.90469 31.1786 9.7607L34.5119 5.76073C34.7479 5.47753 34.7092 5.05754 34.4265 4.82152Z" fill="black"></path><path d="M25.3332 16.0001H20.6666C20.2987 16.0001 20 16.2981 20 16.6667C20 17.0354 20.2987 17.3334 20.6666 17.3334H25.3332C25.7012 17.3334 25.9999 17.0354 25.9999 16.6667C25.9999 16.2982 25.7013 16.0001 25.3332 16.0001Z" fill="#F42020"></path><path d="M18 16.0001H10.6667C10.2987 16.0001 10.0001 16.2981 10.0001 16.6667C10.0001 17.0354 10.2987 17.3334 10.6667 17.3334H18C18.368 17.3334 18.6666 17.0354 18.6666 16.6667C18.6666 16.2982 18.368 16.0001 18 16.0001Z" fill="#F42020"></path><path d="M27.3332 22.6668H22.6666C22.2987 22.6668 22 22.9647 22 23.3334C22 23.7021 22.2987 24 22.6666 24H27.3332C27.7012 24 27.9999 23.7021 27.9999 23.3334C27.9999 22.9647 27.7013 22.6668 27.3332 22.6668Z" fill="black"></path><path d="M19.9999 22.6668H12.6666C12.2987 22.6668 12 22.9647 12 23.3334C12 23.7021 12.2987 24 12.6666 24H19.9999C20.3679 24 20.6666 23.7021 20.6666 23.3334C20.6666 22.9647 20.368 22.6668 19.9999 22.6668Z" fill="black"></path><path d="M29.3332 16.0001H27.9999C27.6319 16.0001 27.3332 16.2981 27.3332 16.6667C27.3332 17.0354 27.6319 17.3334 27.9999 17.3334H29.3332C29.7012 17.3334 29.9998 17.0354 29.9998 16.6667C29.9998 16.2982 29.7013 16.0001 29.3332 16.0001Z" fill="black"></path><path d="M19.3333 19.3334H14.6667C14.2987 19.3334 14.0001 19.6314 14.0001 20.0001C14.0001 20.3687 14.2987 20.6667 14.6667 20.6667H19.3333C19.7013 20.6667 19.9999 20.3687 19.9999 20.0001C19.9999 19.6314 19.7013 19.3334 19.3333 19.3334Z" fill="black"></path><path d="M29.3332 19.3334H21.9999C21.6319 19.3334 21.3333 19.6314 21.3333 20.0001C21.3333 20.3687 21.6319 20.6667 21.9999 20.6667H29.3332C29.7012 20.6667 29.9998 20.3687 29.9998 20.0001C29.9998 19.6314 29.7012 19.3334 29.3332 19.3334Z" fill="black"></path><path d="M14.6667 12.6669H10.0001C9.6321 12.6669 9.33344 12.9648 9.33344 13.3335C9.33344 13.7022 9.6321 14.0001 10.0001 14.0001H14.6667C15.0346 14.0001 15.3333 13.7022 15.3333 13.3335C15.3333 12.9648 15.0346 12.6669 14.6667 12.6669Z" fill="black"></path><path d="M24.6666 12.6669H17.3333C16.9653 12.6669 16.6667 12.9648 16.6667 13.3335C16.6667 13.7022 16.9653 14.0001 17.3333 14.0001H24.6666C25.0346 14.0001 25.3332 13.7022 25.3332 13.3335C25.3332 12.9648 25.0346 12.6669 24.6666 12.6669Z" fill="#F42020"></path><path d="M12 19.3334H10.6667C10.2987 19.3334 10.0001 19.6314 10.0001 20.0001C10.0001 20.3687 10.2987 20.6667 10.6667 20.6667H12C12.368 20.6667 12.6667 20.3687 12.6667 20.0001C12.6667 19.6314 12.368 19.3334 12 19.3334Z" fill="black"></path><path d="M22.6666 9.33352H14.6667C14.2987 9.33352 14.0001 9.63149 14.0001 10.0002C14.0001 10.3688 14.2987 10.6668 14.6667 10.6668H22.6666C23.0346 10.6668 23.3333 10.3688 23.3333 10.0002C23.3333 9.63149 23.0346 9.33352 22.6666 9.33352Z" fill="black"></path><path d="M12 9.33352H10.6667C10.2987 9.33352 10.0001 9.63149 10.0001 10.0002C10.0001 10.3688 10.2987 10.6668 10.6667 10.6668H12C12.368 10.6668 12.6667 10.3688 12.6667 10.0002C12.6667 9.63149 12.368 9.33352 12 9.33352Z" fill="black"></path><path d="M33.0879 13.3495C32.9332 13.2229 32.7286 13.1729 32.5332 13.2129C32.1405 13.2929 31.7365 13.3336 31.3332 13.3336C28.0245 13.3336 25.3332 10.6423 25.3332 7.33362C25.3332 6.50433 25.5025 5.69699 25.8359 4.93363C25.9266 4.72832 25.9066 4.49028 25.7832 4.30231C25.6599 4.11364 25.4499 4.00028 25.2253 4.00028H7.33338C6.96542 4.00028 6.66675 4.29825 6.66675 4.66692V22.2221C6.66675 22.4201 6.75472 22.6081 6.90675 22.7347L15.468 29.87C15.6927 30.0573 16.0146 30.076 16.26 29.9153L18.4753 28.4633C19.4013 27.8567 20.5987 27.856 21.5253 28.464L23.74 29.9153C23.8513 29.988 23.9786 30.024 24.1053 30.024C24.2579 30.024 24.4093 29.972 24.5319 29.8693L33.0932 22.7347C33.2452 22.6073 33.3332 22.42 33.3332 22.222V13.8661C33.3332 13.6668 33.2432 13.4761 33.0879 13.3495ZM31.9999 21.9101L24.0579 28.5293L22.2559 27.3486C21.5706 26.8993 20.7852 26.6746 19.9999 26.6746C19.2146 26.6746 18.4292 26.8993 17.7439 27.348L15.9419 28.5287L7.99994 21.9094V5.33355H24.2779C24.0933 5.98222 24 6.65222 24 7.33354C24 11.3769 27.2899 14.6668 31.3333 14.6668C31.5559 14.6668 31.7786 14.6568 31.9999 14.6375V21.9101Z" fill="black"></path></svg>