<svg width="20" height="20" viewBox="0 0 20 20" fill="none" xmlns="http://www.w3.org/2000/svg">
<path d="M4.26373 7.9102C3.98959 8.00107 3.98959 8.38885 4.26373 8.47973L9.90554 10.3499C9.96683 10.3702 10.033 10.3702 10.0943 10.3499L15.7361 8.47973C16.0103 8.38885 16.0103 8.00107 15.7361 7.9102L10.0943 6.04008C10.033 6.01976 9.96683 6.01976 9.90554 6.04008L4.26373 7.9102Z" fill="#828282"/>
<path d="M18.3314 9.09438C18.2579 8.97758 18.1141 8.92602 17.9831 8.96945L11.2579 11.1987C11.073 11.26 10.9947 11.4785 11.0984 11.6433L12.5601 13.9651C12.6336 14.0819 12.7773 14.1334 12.9083 14.09L19.6336 11.8607C19.8185 11.7994 19.8968 11.5809 19.7931 11.4161L18.3314 9.09438Z" fill="#333333"/>
<path d="M9.41416 14.0689C9.41416 13.768 9.02059 13.6545 8.86029 13.9091L7.94269 15.3666C7.86916 15.4834 7.72542 15.535 7.59442 15.4916L2.52293 13.8105C2.32877 13.7461 2.12854 13.8907 2.12854 14.0952V17.3687C2.12854 17.4981 2.2114 17.6128 2.33415 17.6535L9.01977 19.8697C9.21394 19.934 9.41416 19.7895 9.41416 19.5849V14.0689Z" fill="#333333"/>
<path d="M12.4057 15.4916C12.2747 15.535 12.1309 15.4834 12.0574 15.3666L11.1398 13.9091C10.9795 13.6545 10.5859 13.768 10.5859 14.0689V19.5849C10.5859 19.7895 10.7862 19.934 10.9803 19.8697L17.666 17.6535C17.7887 17.6128 17.8716 17.4981 17.8716 17.3687V14.0952C17.8716 13.8907 17.6713 13.7461 17.4772 13.8105L12.4057 15.4916Z" fill="#333333"/>
<path d="M7.09175 14.09C7.22276 14.1334 7.3665 14.0819 7.44003 13.9651L8.90166 11.6433C9.00543 11.4785 8.92705 11.26 8.74217 11.1987L2.01696 8.96945C1.88595 8.92602 1.74222 8.97758 1.66869 9.09438L0.207027 11.4161C0.103256 11.5809 0.181627 11.7994 0.366511 11.8607L7.09175 14.09Z" fill="#333333"/>
<path d="M9.41406 0.585938C9.41406 0.262333 9.6764 0 10 0C10.3236 0 10.5859 0.262333 10.5859 0.585938V3.32711C10.5859 3.65071 10.3236 3.91305 10 3.91305C9.6764 3.91305 9.41406 3.65071 9.41406 3.32711V0.585938Z" fill="#828282"/>
<path d="M4.19611 2.29844C4.0343 2.0182 4.13032 1.65985 4.41056 1.49805C4.6908 1.33624 5.04915 1.43226 5.21095 1.7125L6.58154 4.08636C6.74334 4.3666 6.64732 4.72494 6.36708 4.88675C6.08684 5.04855 5.72849 4.95253 5.56669 4.67229L4.19611 2.29844Z" fill="#828282"/>
<path d="M13.6328 4.88672C13.3525 4.72492 13.2565 4.36657 13.4183 4.08633L14.7889 1.71247C14.9507 1.43223 15.3091 1.33622 15.5893 1.49802C15.8695 1.65982 15.9656 2.01817 15.8038 2.29841L14.4332 4.67227C14.2714 4.95251 13.913 5.04852 13.6328 4.88672Z" fill="#828282"/>
</svg>
