<svg width="42" height="42" viewBox="0 0 42 42" fill="none" xmlns="http://www.w3.org/2000/svg"><path d="M36.1025 9.1002C35.735 8.6277 35.3325 8.1727 34.9125 7.73521C35.2625 7.57771 35.5775 7.40271 35.8925 7.22771L36.7675 8.7502C36.5575 8.8727 36.33 8.9952 36.1025 9.1002Z" fill="black"></path><path d="M29.82 9.50271C31.6925 9.06521 33.425 8.47021 34.9125 7.73521C35.3325 8.17271 35.735 8.62771 36.1025 9.10021C34.4225 9.95771 32.4625 10.6752 30.3275 11.2002C30.17 10.6052 30.0125 10.0452 29.82 9.50271Z" fill="black"></path><path d="M31.5 21.0002C31.5 21.3152 31.5 21.6302 31.4825 21.9277C31.4475 22.4177 31.01 22.7677 30.555 22.7502C30.0825 22.7327 29.715 22.3127 29.7325 21.8227C29.75 21.5602 29.75 21.2802 29.75 21.0002C29.75 17.5877 29.33 14.3677 28.5775 11.5502C29.1725 11.4452 29.75 11.3227 30.3275 11.2002C31.08 14.1052 31.5 17.4302 31.5 21.0002Z" fill="black"></path><path d="M30.3275 11.2002C29.75 11.3227 29.1725 11.4452 28.5775 11.5502C28.4375 10.9727 28.2625 10.4127 28.0875 9.87021C28.6825 9.76521 29.26 9.64271 29.82 9.50271C30.0125 10.0452 30.17 10.6052 30.3275 11.2002Z" fill="black"></path><path d="M28.0875 9.8702C26.6525 5.4952 24.395 2.4327 21.875 1.8552V1.7677C23.275 1.8377 24.64 2.0477 25.9525 2.4152C27.545 4.0602 28.875 6.5102 29.82 9.5027C29.26 9.6427 28.6825 9.7652 28.0875 9.8702Z" fill="black"></path><path d="M34.9125 7.7352C32.48 5.1977 29.3825 3.3427 25.9525 2.4152C24.5 0.875198 22.82 0.0176984 21.035 0.000198364C30.8 0.0176984 39.41 6.9477 41.51 16.4852C41.615 16.9577 41.3175 17.4127 40.845 17.5177C40.3725 17.6227 39.9 17.3252 39.795 16.8527C39.165 13.9652 37.87 11.3227 36.1025 9.1002C36.33 8.9952 36.5575 8.8727 36.7675 8.7502L35.8925 7.2277C35.5775 7.4027 35.2625 7.5777 34.9125 7.7352Z" fill="black"></path><path d="M28.5775 11.5502C26.46 11.9702 24.2025 12.1977 21.875 12.2327V10.4827C24.0275 10.4477 26.1275 10.2377 28.0875 9.87021C28.2625 10.4127 28.4375 10.9727 28.5775 11.5502Z" fill="black"></path><path d="M21 12.2502C21.2975 12.2502 21.595 12.2502 21.875 12.2327V17.9902C21.875 18.4802 21.49 18.8652 21 18.8652C20.51 18.8652 20.125 18.4802 20.125 17.9902V12.2327C20.405 12.2502 20.7025 12.2502 21 12.2502Z" fill="black"></path><path d="M21 12.2502C20.7025 12.2502 20.405 12.2502 20.125 12.2327V10.4827C20.405 10.5002 20.7025 10.5002 21 10.5002C21.2975 10.5002 21.595 10.5002 21.875 10.4827V12.2327C21.595 12.2502 21.2975 12.2502 21 12.2502Z" fill="black"></path><path d="M21.875 1.85521V10.4827C21.595 10.5002 21.2975 10.5002 21 10.5002C20.7025 10.5002 20.405 10.5002 20.125 10.4827V1.85521C20.405 1.78521 20.7025 1.75021 21 1.75021C21.14 1.75021 21.2975 1.75021 21.4375 1.76771C21.595 1.78521 21.735 1.82021 21.875 1.85521Z" fill="black"></path><path d="M21.875 1.76771V1.85521C21.735 1.82021 21.595 1.78521 21.4375 1.76771C21.5775 1.75021 21.735 1.76771 21.875 1.76771Z" fill="black"></path><path d="M21.385 40.8102C21.4375 40.9152 21.455 41.0202 21.455 41.1427C21.455 41.1602 21.455 41.1777 21.4375 41.1952C21.455 41.0552 21.42 40.9327 21.385 40.8102Z" fill="black"></path><path d="M21.35 41.5102C21.385 41.4227 21.42 41.3002 21.4375 41.1952C21.4375 41.3177 21.4025 41.4227 21.35 41.5102Z" fill="black"></path><path d="M21.385 40.7927C21.3325 40.7052 21.28 40.6177 21.21 40.5302C21.2975 40.6002 21.35 40.6877 21.385 40.7927Z" fill="black"></path><path d="M21 1.75021C20.7025 1.75021 20.4225 1.75021 20.125 1.76771V1.31271C20.125 0.840214 20.51 0.437714 21 0.437714C21.49 0.437714 21.875 0.840214 21.875 1.31271V1.76771C21.735 1.76771 21.5775 1.75021 21.4375 1.76771C21.2975 1.75021 21.14 1.75021 21 1.75021Z" fill="black"></path><path d="M21.07 40.4077C21.14 40.4427 21.175 40.4952 21.21 40.5302C21.175 40.4952 21.1225 40.4427 21.07 40.4077Z" fill="black"></path><path d="M21.35 41.5102C21.2625 41.7202 21.0875 41.8777 20.8775 41.9302C21.0875 41.8427 21.245 41.7027 21.35 41.5102Z" fill="black"></path><path d="M20.125 1.76771C20.4225 1.75021 20.7025 1.75021 21 1.75021C20.7025 1.75021 20.405 1.78521 20.125 1.85521V1.76771Z" fill="black"></path><path d="M20.93 40.3202C20.86 40.2852 20.7725 40.2677 20.685 40.2502C20.7725 40.2677 20.86 40.2852 20.93 40.3202Z" fill="black"></path><path d="M21.35 41.5102C21.245 41.7027 21.0875 41.8427 20.8775 41.9302C20.79 41.9652 20.685 41.9827 20.5625 41.9827C20.5275 41.9827 20.51 41.9827 20.475 41.9827C18.8825 41.8252 17.3775 41.0202 16.0475 39.6027C17.5 39.9877 19.0225 40.2152 20.5975 40.2502H20.65C20.65 40.2502 20.6675 40.2502 20.685 40.2502C20.7725 40.2677 20.86 40.2852 20.93 40.3202C20.9825 40.3377 21.0175 40.3727 21.07 40.4077C21.1225 40.4427 21.175 40.4952 21.21 40.5302C21.28 40.6177 21.3325 40.7052 21.385 40.7927C21.385 40.7927 21.3675 40.8102 21.385 40.8102C21.42 40.9327 21.455 41.0552 21.4375 41.1952C21.42 41.3002 21.385 41.4227 21.35 41.5102Z" fill="black"></path><path d="M21 0.437698C20.51 0.437698 20.125 0.840198 20.125 1.3127V1.7677C18.725 1.8377 17.3775 2.0477 16.065 2.3977C17.535 0.857698 19.1975 0.000198364 21 0.000198364H21.035C22.82 0.0176984 24.5 0.875198 25.9525 2.4152C24.64 2.0477 23.275 1.8377 21.875 1.7677V1.3127C21.875 0.840198 21.49 0.437698 21 0.437698Z" fill="black"></path><path d="M18.83 21.0002C18.83 21.4902 18.445 21.8752 17.955 21.8752H12.2675C12.25 21.5952 12.25 21.2977 12.25 21.0002C12.25 20.7027 12.25 20.4227 12.2675 20.1252H17.955C18.445 20.1252 18.83 20.5277 18.83 21.0002Z" fill="black"></path><path d="M17.8675 29.7502L23.625 35.5252V32.3752C23.625 31.9027 24.01 31.5002 24.5 31.5002H32.375C35.6125 31.5002 38.4125 29.5402 39.62 26.7227C38.5875 27.5277 37.275 28.0002 35.875 28.0002H24.5C24.01 28.0002 23.625 27.6152 23.625 27.1252V23.9927L17.8675 29.7502ZM16.0125 30.3802C15.6625 30.0302 15.6625 29.4877 16.0125 29.1377L23.8875 21.2627C24.1325 21.0177 24.5175 20.9302 24.8325 21.0702C25.165 21.2102 25.375 21.5252 25.375 21.8752V26.2502H35.875C38.29 26.2502 40.25 24.2902 40.25 21.8752C40.25 21.4027 40.635 21.0002 41.125 21.0002C41.615 21.0002 42 21.4027 42 21.8752V23.6252C42 28.9452 37.6775 33.2502 32.375 33.2502H25.375V37.6252C25.375 37.9927 25.165 38.3077 24.8325 38.4477C24.7275 38.4827 24.605 38.5002 24.5 38.5002C24.2725 38.5002 24.045 38.4127 23.8875 38.2552L16.0125 30.3802Z" fill="#535353"></path><path d="M13.9125 9.87021C15.8725 10.2377 17.9725 10.4477 20.125 10.4827V12.2327C17.7975 12.1977 15.54 11.9702 13.4225 11.5502C13.5625 10.9727 13.7375 10.4127 13.9125 9.87021Z" fill="black"></path><path d="M14.63 34.0377C16.17 37.7302 18.34 39.9877 20.5975 40.2502C19.0225 40.2152 17.5 39.9877 16.0475 39.6027C14.8925 38.3952 13.8775 36.7502 13.02 34.7202C12.8275 34.2652 13.0375 33.7577 13.4925 33.5652C13.93 33.3902 14.455 33.6002 14.63 34.0377Z" fill="black"></path><path d="M20.125 1.8552C17.605 2.4327 15.3475 5.4952 13.9125 9.8702C13.3175 9.7652 12.74 9.6427 12.18 9.5027C13.1425 6.4927 14.4725 4.0427 16.065 2.3977C17.3775 2.0477 18.725 1.8377 20.125 1.7677V1.8552Z" fill="black"></path><path d="M12.18 9.50271C12.74 9.64271 13.3175 9.76521 13.9125 9.87021C13.7375 10.4127 13.5625 10.9727 13.4225 11.5502C12.8275 11.4452 12.25 11.3227 11.6725 11.2002C11.83 10.6052 11.9875 10.0452 12.18 9.50271Z" fill="black"></path><path d="M12.7575 27.3527C12.845 27.8252 12.53 28.2802 12.0575 28.3677C12.005 28.3677 11.9525 28.3677 11.9 28.3677C11.48 28.3677 11.1125 28.0702 11.0425 27.6502C10.7275 25.8477 10.5525 23.9052 10.5175 21.8752H12.2675C12.3025 23.8002 12.46 25.6377 12.7575 27.3527Z" fill="black"></path><path d="M13.4225 11.5502C12.74 14.1227 12.32 17.0452 12.2675 20.1252H10.5175C10.57 16.8877 10.99 13.8602 11.6725 11.2002C12.25 11.3227 12.8275 11.4452 13.4225 11.5502Z" fill="black"></path><path d="M12.25 21.0002C12.25 21.2977 12.25 21.5952 12.2675 21.8752H10.5175C10.5 21.5952 10.5 21.2977 10.5 21.0002C10.5 20.7027 10.5 20.4227 10.5175 20.1252H12.2675C12.25 20.4227 12.25 20.7027 12.25 21.0002Z" fill="black"></path><path d="M12.18 9.50271C11.9875 10.0452 11.83 10.6052 11.6725 11.2002C9.52001 10.6752 7.56 9.97521 5.88 9.10021C6.2475 8.62771 6.65 8.17271 7.07 7.73521C8.55751 8.45271 10.29 9.04771 12.18 9.50271Z" fill="black"></path><path d="M10.5175 20.1252C10.5 20.4227 10.5 20.7027 10.5 21.0002C10.5 21.2977 10.5 21.5952 10.5175 21.8752H1.76747C1.74997 21.5777 1.74997 21.2977 1.74997 21.0002C1.74997 20.7027 1.74997 20.4052 1.76747 20.1252H10.5175Z" fill="black"></path><path d="M11.9525 32.5502C10.1325 33.0052 8.50498 33.5652 7.10498 34.2652C6.68498 33.8277 6.28248 33.3727 5.91498 32.9177C7.52498 32.0602 9.41498 31.3777 11.5325 30.8527C12.005 30.7302 12.4775 31.0277 12.6 31.4827C12.705 31.9552 12.425 32.4277 11.9525 32.5502Z" fill="black"></path><path d="M7.10498 34.2652C9.50248 36.7852 12.5825 38.6752 16.0475 39.6027C17.3775 41.0202 18.8825 41.8252 20.475 41.9827H20.5625C20.685 41.9827 20.79 41.9652 20.8775 41.9302C20.79 41.9827 20.685 42.0002 20.58 42.0002H20.5625C14.4375 41.8777 8.92498 39.0777 5.16248 34.7202C5.30248 34.8427 5.49498 34.8952 5.66998 34.8952C5.82748 34.8952 5.96748 34.8602 6.10748 34.7902C6.42248 34.6152 6.75498 34.4227 7.10498 34.2652Z" fill="black"></path><path d="M6.10748 7.22771C6.40498 7.40271 6.73748 7.56021 7.06998 7.73521C6.64998 8.1727 6.24748 8.6277 5.87998 9.1002C5.65248 8.9777 5.44248 8.8727 5.23248 8.7502L6.10748 7.22771Z" fill="black"></path><path d="M5.91502 32.9177C6.28252 33.3727 6.68502 33.8277 7.10502 34.2652C6.75502 34.4227 6.42252 34.6152 6.10752 34.7902C5.96752 34.8602 5.82752 34.8952 5.67002 34.8952C5.49502 34.8952 5.30252 34.8427 5.16252 34.7202C5.09252 34.6502 5.00502 34.5627 4.91752 34.4577C4.91752 34.4402 4.90002 34.4402 4.90002 34.4227C4.67252 34.0027 4.83002 33.5127 5.23252 33.2677C5.46002 33.1452 5.68752 33.0227 5.91502 32.9177Z" fill="black"></path><path d="M4.91751 34.4577C5.00501 34.5627 5.09251 34.6502 5.16251 34.7202C5.05751 34.6502 4.97001 34.5627 4.91751 34.4577Z" fill="black"></path><path d="M1.74997 21.0002C1.74997 21.2977 1.74997 21.5777 1.76747 21.8752H1.31247C0.82247 21.8752 0.437469 21.4902 0.437469 21.0002C0.437469 20.5277 0.82247 20.1252 1.31247 20.1252H1.76747C1.74997 20.4052 1.74997 20.7027 1.74997 21.0002Z" fill="black"></path><path d="M0 21C0 9.4325 9.415 0 21 0C19.1975 0 17.535 0.8575 16.065 2.3975C12.5825 3.3075 9.485 5.1975 7.07 7.735C6.7375 7.56 6.405 7.4025 6.1075 7.2275L5.2325 8.75C5.4425 8.8725 5.6525 8.9775 5.88 9.1C3.465 12.1625 1.96 15.96 1.7675 20.125H1.3125C0.8225 20.125 0.4375 20.5275 0.4375 21C0.4375 21.49 0.8225 21.875 1.3125 21.875H1.7675C1.96 26.005 3.4825 29.8375 5.915 32.9175C5.6875 33.0225 5.46 33.145 5.2325 33.2675C4.83 33.5125 4.6725 34.0025 4.9 34.4225C1.855 30.7825 0 26.0925 0 21H0Z" fill="black"></path></svg>