<svg width="44" height="32" viewBox="0 0 44 32" fill="none" xmlns="http://www.w3.org/2000/svg"><path d="M3.66667 0C1.65647 0 0 1.62635 0 3.59999V28.3999C0 30.3735 1.65647 31.9999 3.66667 31.9999H32.1852C32.3471 32.0021 32.5079 31.9728 32.6582 31.9135C32.8085 31.8542 32.9453 31.7661 33.0607 31.6545C33.176 31.5428 33.2676 31.4098 33.3301 31.2631C33.3926 31.1164 33.4248 30.9589 33.4248 30.7999C33.4248 30.6409 33.3926 30.4834 33.3301 30.3367C33.2676 30.19 33.176 30.0569 33.0607 29.9453C32.9453 29.8336 32.8085 29.7456 32.6582 29.6863C32.5079 29.627 32.3471 29.5976 32.1852 29.5999H3.66667C2.96841 29.5999 2.44444 29.0854 2.44444 28.3999V16.7999H41.5556V28.3999C41.5556 29.0854 41.0316 29.5999 40.3333 29.5999H36.2593C36.0973 29.5976 35.9365 29.627 35.7862 29.6863C35.6359 29.7456 35.4991 29.8336 35.3838 29.9453C35.2684 30.0569 35.1769 30.19 35.1143 30.3367C35.0518 30.4834 35.0196 30.6409 35.0196 30.7999C35.0196 30.9589 35.0518 31.1164 35.1143 31.2631C35.1769 31.4098 35.2684 31.5428 35.3838 31.6545C35.4991 31.7661 35.6359 31.8542 35.7862 31.9135C35.9365 31.9728 36.0973 32.0021 36.2593 31.9999H40.3333C42.3435 31.9999 44 30.3735 44 28.3999V3.59999C44 1.62635 42.3435 0 40.3333 0H3.66667ZM3.66667 2.39999H40.3333C41.0316 2.39999 41.5556 2.91443 41.5556 3.59999V7.19997H23.4259H5.2963C5.13434 7.19772 4.97354 7.2271 4.82324 7.2864C4.67295 7.3457 4.53616 7.43373 4.42082 7.54538C4.30548 7.65703 4.21389 7.79008 4.15137 7.93679C4.08886 8.0835 4.05667 8.24094 4.05667 8.39997C4.05667 8.559 4.08886 8.71644 4.15137 8.86315C4.21389 9.00986 4.30548 9.1429 4.42082 9.25456C4.53616 9.36621 4.67295 9.45424 4.82324 9.51354C4.97354 9.57284 5.13434 9.60221 5.2963 9.59996H41.5556V14.3999H2.44444V3.59999C2.44444 2.91443 2.96841 2.39999 3.66667 2.39999Z" fill="black"></path></svg>