<svg width="48" height="40" viewBox="0 0 48 40" fill="none" xmlns="http://www.w3.org/2000/svg"><path d="M35.6571 13.2991V9.42011H28.6041C28.1416 6.7812 26.766 4.39017 24.7191 2.6673C22.6722 0.944438 20.085 0 17.4122 0C14.7395 0 12.1523 0.944438 10.1054 2.6673C8.05851 4.39017 6.68291 6.7812 6.22041 9.42011H0V35.0506H1.42041C1.61338 36.2209 2.16302 37.3027 2.99385 38.1474C3.82469 38.992 4.89598 39.5581 6.06062 39.7679C7.22526 39.9778 8.42614 39.821 9.49837 39.3193C10.5706 38.8175 11.4616 37.9953 12.049 36.9655C12.6257 38.0028 13.5115 38.8334 14.5823 39.3412C15.6532 39.849 16.8555 40.0086 18.0213 39.7976C19.1871 39.5866 20.2579 39.0156 21.084 38.1644C21.9101 37.3133 22.4501 36.2246 22.6286 35.0506H33.649C33.8295 36.42 34.5003 37.677 35.5365 38.5875C36.5727 39.498 37.9037 40 39.2816 40C40.6596 40 41.9905 39.498 43.0267 38.5875C44.0629 37.677 44.7337 36.42 44.9143 35.0506H48V22.1372L43.4939 13.2991H35.6571ZM39.2816 28.422C37.9547 28.4182 36.6698 28.8881 35.6571 29.7477V24.5922H44.0816V31.0735C43.5629 30.2678 42.8528 29.6039 42.0151 29.1411C41.1773 28.6784 40.2381 28.4313 39.2816 28.422ZM41.0939 17.2271L42.8571 20.6641H35.6571V17.2271H41.0939ZM17.4367 3.92085C18.9071 3.93054 20.3416 4.37649 21.5595 5.20244C22.7773 6.02838 23.7239 7.19735 24.2799 8.56191C24.8359 9.92648 24.9764 11.4255 24.6836 12.87C24.3908 14.3145 23.6779 15.6397 22.6348 16.6786C21.5917 17.7174 20.2651 18.4234 18.8223 18.7074C17.3794 18.9914 15.885 18.8408 14.5275 18.2745C13.17 17.7082 12.0101 16.7516 11.1942 15.5254C10.3783 14.2991 9.94289 12.8581 9.94286 11.3841C9.94284 10.3999 10.137 9.42537 10.5142 8.51667C10.8914 7.60797 11.4442 6.78303 12.1407 6.08936C12.8372 5.39568 13.6637 4.84696 14.5727 4.4748C15.4816 4.10263 16.4549 3.91437 17.4367 3.92085ZM6.22041 13.3482C6.68291 15.9871 8.05851 18.3781 10.1054 20.101C12.1523 21.8238 14.7395 22.7683 17.4122 22.7683C20.085 22.7683 22.6722 21.8238 24.7191 20.101C26.766 18.3781 28.1416 15.9871 28.6041 13.3482H31.7388V31.1226H21.8449C21.3308 30.2977 20.6162 29.6173 19.7681 29.1449C18.92 28.6726 17.9661 28.4239 16.9959 28.422C16.0322 28.4229 15.0849 28.6717 14.2445 29.1445C13.4041 29.6173 12.6987 30.2984 12.1959 31.1226H11.902C11.3879 30.2977 10.6733 29.6173 9.82521 29.1449C8.97711 28.6726 8.02326 28.4239 7.05306 28.422C5.93913 28.4154 4.84826 28.7401 3.91837 29.3549V13.3482H6.22041ZM7.05306 35.9344C6.58079 35.9346 6.12711 35.7499 5.78862 35.4198C5.45013 35.0896 5.25358 34.6401 5.24082 34.1668C5.24082 33.685 5.43175 33.2229 5.77161 32.8822C6.11147 32.5415 6.57242 32.3501 7.05306 32.3501C7.5337 32.3501 7.99465 32.5415 8.33451 32.8822C8.67437 33.2229 8.86531 33.685 8.86531 34.1668C8.85254 34.6401 8.65599 35.0896 8.3175 35.4198C7.97901 35.7499 7.52533 35.9346 7.05306 35.9344ZM16.9959 35.9344C16.5283 35.9344 16.0798 35.7482 15.7491 35.4167C15.4184 35.0852 15.2327 34.6356 15.2327 34.1668C15.2325 33.6934 15.4167 33.2385 15.746 32.8992C16.0754 32.5599 16.5238 32.3629 16.9959 32.3501C17.4727 32.3625 17.9264 32.5579 18.2637 32.8959C18.6009 33.234 18.7958 33.6889 18.8082 34.1668C18.7954 34.6401 18.5988 35.0896 18.2604 35.4198C17.9219 35.7499 17.4682 35.9346 16.9959 35.9344ZM39.2816 35.9344C38.814 35.9344 38.3655 35.7482 38.0348 35.4167C37.7041 35.0852 37.5184 34.6356 37.5184 34.1668C37.5182 33.6934 37.7024 33.2385 38.0317 32.8992C38.3611 32.5599 38.8095 32.3629 39.2816 32.3501C39.7584 32.3625 40.2122 32.5579 40.5494 32.8959C40.8866 33.234 41.0815 33.6889 41.0939 34.1668C41.0811 34.6401 40.8846 35.0896 40.5461 35.4198C40.2076 35.7499 39.7539 35.9346 39.2816 35.9344Z" fill="black"></path><path d="M22 8.81699H18.9437V5H15V13H22V8.81699Z" fill="#F42020"></path></svg>