<svg width="48" height="40" viewBox="0 0 48 40" fill="none" xmlns="http://www.w3.org/2000/svg"><path d="M46.9983 19.1792L42.4916 10.1657C41.6283 8.43899 39.8926 7.36628 37.9619 7.36628H32.4116V5.06432C32.4116 2.27185 30.1398 0 27.3473 0H5.06432C2.27185 0 0 2.27185 0 5.06432V34.5294C0 35.2922 0.618399 35.9106 1.38118 35.9106H4.79692C5.39976 38.0337 7.35459 39.5938 9.66824 39.5938C11.9819 39.5938 13.9366 38.0337 14.5396 35.9106H32.6046C33.2075 38.0337 35.1623 39.5938 37.4759 39.5938C39.7896 39.5938 41.7443 38.0337 42.3473 35.9106H45.763C46.5258 35.9106 47.1442 35.2922 47.1442 34.5294V19.7969C47.1442 19.5824 47.0943 19.371 46.9983 19.1792ZM37.9619 10.1286C38.8394 10.1286 39.6285 10.6162 40.0209 11.4011L43.5282 18.4157H41.0919L39.6321 15.4961C39.291 14.8138 38.4615 14.5372 37.7791 14.8784C37.0968 15.2196 36.8203 16.0492 37.1614 16.7315L38.0036 18.4157H32.4116V10.1286H37.9619ZM9.66824 36.8314C8.39894 36.8314 7.36628 35.7987 7.36628 34.5294C7.36628 33.2601 8.39894 32.2275 9.66824 32.2275C10.9375 32.2275 11.9702 33.2601 11.9702 34.5294C11.9702 35.7987 10.9375 36.8314 9.66824 36.8314ZM9.66824 29.4651C7.35459 29.4651 5.39985 31.0252 4.79692 33.1483H2.76235V5.06432C2.76235 3.79502 3.79502 2.76235 5.06432 2.76235H27.3473C28.6166 2.76235 29.6493 3.79502 29.6493 5.06432V33.1483H14.5396C13.9366 31.0252 11.9819 29.4651 9.66824 29.4651ZM37.4759 36.8314C36.2066 36.8314 35.174 35.7987 35.174 34.5294C35.174 33.2601 36.2066 32.2275 37.4759 32.2275C38.7452 32.2275 39.7779 33.2601 39.7779 34.5294C39.7779 35.7987 38.7452 36.8314 37.4759 36.8314ZM42.3473 33.1483C41.7444 31.0252 39.7896 29.4651 37.4759 29.4651C35.1623 29.4651 33.2076 31.0252 32.6046 33.1483H32.4116V21.1781H44.3818V23.9404H42.0799C41.3171 23.9404 40.6987 24.5588 40.6987 25.3216C40.6987 26.0844 41.3171 26.7028 42.0799 26.7028H44.3818V33.1483H42.3473Z" fill="black"></path><path d="M22.6513 25.782C23.4141 25.782 24.0325 25.1636 24.0325 24.4008V16.3543L24.0544 16.3731C24.3149 16.5964 24.6345 16.7057 24.9526 16.7057C25.3418 16.7057 25.7288 16.542 26.002 16.2233C26.4984 15.6441 26.4313 14.7722 25.8521 14.2758L17.1047 6.77798C16.5875 6.33463 15.8242 6.33463 15.307 6.77798L6.55958 14.2758C5.98041 14.7722 5.91328 15.6442 6.40977 16.2233C6.90626 16.8026 7.77824 16.8696 8.35723 16.3731L8.37915 16.3543V24.4008C8.37915 25.1636 8.99755 25.782 9.76032 25.782H22.6513ZM11.1415 13.9866L16.2058 9.64577L21.2701 13.9866V23.0196H17.587V20.7177C17.587 19.9549 16.9686 19.3365 16.2058 19.3365C15.443 19.3365 14.8246 19.9549 14.8246 20.7177V23.0196H11.1415V13.9866Z" fill="black"></path><path d="M15.285 16.5741H17.1266C17.8894 16.5741 18.5078 15.9557 18.5078 15.1929C18.5078 14.4302 17.8894 13.8118 17.1266 13.8118H15.285C14.5222 13.8118 13.9038 14.4302 13.9038 15.1929C13.9038 15.9557 14.5222 16.5741 15.285 16.5741Z" fill="#535353"></path></svg>