<svg width="54" height="40" viewBox="0 0 54 40" fill="none" xmlns="http://www.w3.org/2000/svg"><path d="M54 20.272L47.0413 6.35439H41.291V0H0V34.9365H4.65729C5.34547 37.3232 7.54777 39.0745 10.1529 39.0745C11.7795 39.0745 13.2485 38.3909 14.2909 37.2973C15.3334 38.3909 16.8023 39.0745 18.4289 39.0745C21.0341 39.0745 23.2365 37.3232 23.9245 34.9365H38.3511C39.0393 37.3232 41.2417 39.0745 43.8468 39.0745C46.452 39.0745 48.6544 37.3232 49.3425 34.9365H54V20.272ZM45.0857 9.51834L49.8581 19.0634H41.291V9.51834H45.0857ZM38.127 3.16406V22.2375H3.16406V3.16406H38.127ZM3.16406 25.4015H38.127V31.7725H23.9247C23.2366 29.3858 21.0343 27.6345 18.4291 27.6345C16.8025 27.6345 15.3336 28.318 14.2911 29.4116C13.2487 28.318 11.7797 27.6345 10.1532 27.6345C7.54798 27.6345 5.34558 29.3858 4.6575 31.7725H3.16406V25.4015ZM10.1531 35.9104C8.74368 35.9104 7.59712 34.7638 7.59712 33.3545C7.59712 31.9452 8.74368 30.7986 10.1531 30.7986C11.5624 30.7986 12.709 31.9452 12.709 33.3545C12.709 34.7638 11.5623 35.9104 10.1531 35.9104ZM18.429 35.9104C17.0196 35.9104 15.873 34.7638 15.873 33.3545C15.873 31.9452 17.0197 30.7986 18.429 30.7986C19.8382 30.7986 20.9849 31.9452 20.9849 33.3545C20.9849 34.7638 19.8384 35.9104 18.429 35.9104ZM43.8469 35.9104C42.4376 35.9104 41.291 34.7638 41.291 33.3545C41.291 31.9452 42.4377 30.7986 43.8469 30.7986C45.2562 30.7986 46.4029 31.9452 46.4029 33.3545C46.4029 34.7638 45.2563 35.9104 43.8469 35.9104ZM49.3427 31.7725C48.6545 29.3858 46.4522 27.6345 43.847 27.6345C42.9287 27.6345 42.0609 27.8533 41.2911 28.2396V22.2275H50.8359V31.7725H49.3427Z" fill="black"></path></svg>