<svg width="76" height="41" viewBox="0 0 76 41" fill="none" xmlns="http://www.w3.org/2000/svg"><path d="M76 0H22.2656V4.45312H6.71709L0 19.5666V35.625H9.28922C10.2083 38.2164 12.6832 40.0781 15.5859 40.0781C18.4886 40.0781 20.9635 38.2164 21.8827 35.625H49.6642C50.5833 38.2164 53.0582 40.0781 55.9609 40.0781C57.6705 40.0781 59.2313 39.4318 60.4141 38.3718C61.5968 39.432 63.1576 40.0781 64.8672 40.0781C68.5504 40.0781 71.5469 37.0816 71.5469 33.3984C71.5469 31.155 70.4339 29.1677 68.7324 27.9557H76V0ZM9.61103 8.90625H13.3594V17.8125H5.65265L9.61103 8.90625ZM15.5859 35.625C14.3582 35.625 13.3594 34.6262 13.3594 33.3984C13.3594 32.1707 14.3582 31.1719 15.5859 31.1719C16.8137 31.1719 17.8125 32.1707 17.8125 33.3984C17.8125 34.6262 16.8137 35.625 15.5859 35.625ZM22.2656 31.1719H21.8827C20.9635 28.5805 18.4886 26.7188 15.5859 26.7188C12.6832 26.7188 10.2083 28.5805 9.28922 31.1719H4.45312V22.2656H17.8125V8.90625H22.2656V31.1719ZM49.2812 31.1719H26.7188V27.9557H49.2812V31.1719ZM55.9609 35.625C54.7332 35.625 53.7344 34.6262 53.7344 33.3984C53.7344 32.1707 54.7332 31.1719 55.9609 31.1719C57.1887 31.1719 58.1875 32.1707 58.1875 33.3984C58.1875 34.6262 57.1887 35.625 55.9609 35.625ZM64.8672 35.625C63.6395 35.625 62.6406 34.6262 62.6406 33.3984C62.6406 32.1707 63.6395 31.1719 64.8672 31.1719C66.0949 31.1719 67.0938 32.1707 67.0938 33.3984C67.0938 34.6262 66.0949 35.625 64.8672 35.625ZM71.5469 23.5026H26.7188V4.45312H71.5469V23.5026Z" fill="black"></path></svg>