<svg xmlns="http://www.w3.org/2000/svg" xmlns:xlink="http://www.w3.org/1999/xlink" viewBox="0,0,255.98729,255.98729" width="128px" height="128px"><g fill-opacity="0" fill="#dddddd" fill-rule="nonzero" stroke="none" stroke-width="1" stroke-linecap="butt" stroke-linejoin="miter" stroke-miterlimit="10" stroke-dasharray="" stroke-dashoffset="0" font-family="none" font-weight="none" font-size="none" text-anchor="none" style="mix-blend-mode: normal"><path d="M0,255.98729v-255.98729h255.98729v255.98729z" id="bgRectangle"></path></g><g fill="#19a231" fill-rule="nonzero" stroke="none" stroke-width="1" stroke-linecap="butt" stroke-linejoin="miter" stroke-miterlimit="10" stroke-dasharray="" stroke-dashoffset="0" font-family="none" font-weight="none" font-size="none" text-anchor="none" style="mix-blend-mode: normal"><g transform="scale(2,2)"><path d="M65,1c-34.7,0 -63,28.3 -63,63c0,34.7 28.3,63 63,63c34.7,0 63,-28.3 63,-63c0,-34.7 -28.3,-63 -63,-63zM65,7c31.4,0 57,25.6 57,57c0,31.4 -25.6,57 -57,57c-31.4,0 -57,-25.6 -57,-57c0,-31.4 25.6,-57 57,-57zM64.94922,27.90039c-9.225,0 -18.44922,3.5 -25.44922,10.5c-14,14 -14,36.90039 0,50.90039c7,7 16.2,10.5 25.5,10.5c4.5,0 8.89961,-0.8 13.09961,-2.5c4.5,-1.8 8.70078,-4.40156 12.30078,-8.10156c5.8,-5.8 9.09922,-13 10.19922,-20.5c1,-7.3 -0.19922,-14.8 -3.69922,-21.5c-0.6,-1 -2.30117,-1.09961 -3.20117,-0.09961l-26.39844,30.90039c-0.5,0.6 -1.30117,1 -2.20117,1h-0.09961c-0.8,0 -1.59961,-0.30039 -2.09961,-0.90039l-14.90039,-14.90039c-1,-1 -1.3,-2.69844 -0.5,-3.89844c1.1,-1.6 3.29961,-1.8 4.59961,-0.5l12.70117,12.69922l25.89844,-30.19922c0.7,-0.8 0.60039,-2.00117 -0.09961,-2.70117l-0.19922,-0.19922c-7,-7 -16.22617,-10.5 -25.45117,-10.5z"></path></g></g></svg>