<svg width="40" height="40" viewBox="0 0 40 40" fill="none" xmlns="http://www.w3.org/2000/svg"><path d="M23.5294 34.1176H35.2941V27.0588H23.5294V34.1176ZM25.8823 29.4117H32.9412V31.7647H25.8823V29.4117Z" fill="black"></path><path d="M24.7059 0H15.2941H0V40H40V0H24.7059ZM22.3529 2.35294V11.9194L20 10.3507L17.6471 11.9194V2.35294H22.3529ZM9.41177 31.7647C9.41177 32.4134 8.884 32.9412 8.23529 32.9412C7.58659 32.9412 7.05882 32.4134 7.05882 31.7647V29.4118H9.41177V31.7647ZM9.41177 35.0918C9.84996 34.9363 10.2486 34.6969 10.5882 34.3926C10.9278 34.6969 11.3265 34.9363 11.7647 35.0918V37.6471H9.41177V35.0918ZM12.9412 32.9412C12.2925 32.9412 11.7647 32.4134 11.7647 31.7647V29.4118H14.1176V31.7647C14.1176 32.4134 13.5899 32.9412 12.9412 32.9412ZM37.6471 37.6471H14.1176V35.0918C15.4869 34.6061 16.4706 33.2984 16.4706 31.7647V27.0588H11.7647H9.41177H4.70588V31.7647C4.70588 33.2984 5.68949 34.6061 7.05882 35.0918V37.6471H2.35294V2.35294H15.2941V16.3159L20 13.1787L24.7059 16.3159V2.35294H37.6471V37.6471Z" fill="black"></path></svg>