<svg width="67" height="35" viewBox="0 0 67 35" fill="none" xmlns="http://www.w3.org/2000/svg"><path d="M21.1467 23.9293H2.30185C1.02911 23.9293 0 24.9597 0 26.2308C0 27.5017 1.02911 28.5323 2.30185 28.5323H21.1467C22.4185 28.5323 23.448 27.5017 23.448 26.2308C23.448 24.9597 22.4185 23.9293 21.1467 23.9293Z" fill="#F42020"></path><path d="M23.448 14.7224H9.20662C7.93443 14.7224 6.90491 15.7531 6.90491 17.0243C6.90491 18.2952 7.93443 19.3259 9.20662 19.3259H23.4479C24.7204 19.3259 25.7499 18.2952 25.7499 17.0243C25.75 15.7529 24.7205 14.7224 23.448 14.7224Z" fill="#F42020"></path><path d="M28.0518 7.81732C28.0518 6.54651 27.0224 5.51575 25.7501 5.51575H16.112C14.8392 5.51575 13.81 6.54651 13.81 7.81732C13.81 9.08855 14.8392 10.1192 16.112 10.1192H25.7501C27.0223 10.1193 28.0518 9.08868 28.0518 7.81732Z" fill="#F42020"></path><path d="M65.8184 1.72147C64.8828 0.627016 63.5212 0 62.0797 0H35.6916C33.2527 0 31.2095 1.74857 30.8294 4.16047L27.0446 28.3732C26.8246 29.7935 27.2336 31.2345 28.1681 32.3269C29.1036 33.4213 30.4652 34.0488 31.9068 34.0488H58.295C60.734 34.0488 62.7769 32.2998 63.1571 29.8879L66.9417 5.6756C67.1617 4.25484 66.7531 2.81386 65.8184 1.72147ZM58.6073 29.1754C58.5828 29.3316 58.4519 29.4452 58.295 29.4452H31.9068C31.8143 29.4452 31.7267 29.4038 31.666 29.3347C31.6056 29.2643 31.5807 29.1699 31.5944 29.0798L35.3793 4.87278C35.4041 4.7165 35.5346 4.60301 35.6917 4.60301H44.1974L43.0914 10.5588C43.0077 11.0082 43.1271 11.4722 43.421 11.8241C43.7136 12.1771 44.1477 12.3803 44.6058 12.3803H49.9581C50.7 12.3803 51.3379 11.8512 51.4727 11.1219L52.6848 4.60329H62.0797C62.1721 4.60329 62.26 4.64511 62.3204 4.71361C62.3808 4.7846 62.4056 4.87897 62.3921 4.96866L58.6073 29.1754Z" fill="black"></path></svg>